<svg width="11" height="10" viewBox="0 0 11 10" fill="none" xmlns="http://www.w3.org/2000/svg">
<path fill-rule="evenodd" clip-rule="evenodd" d="M10.5729 0.644449C10.9232 0.873522 11.0214 1.34258 10.7923 1.69285L5.6412 9.57103C5.58118 9.66282 5.50195 9.74049 5.40898 9.79866C5.316 9.85683 5.21151 9.89412 5.10271 9.90795C4.99391 9.92178 4.88341 9.91182 4.77884 9.87876C4.67427 9.8457 4.57812 9.79033 4.49705 9.71647L1.16397 6.6864C1.0153 6.55123 0.926419 6.36254 0.916872 6.16184C0.907325 5.96113 0.9779 5.76485 1.11307 5.61618C1.24824 5.46751 1.43693 5.37863 1.63764 5.36908C1.83834 5.35954 2.03462 5.43011 2.18329 5.56528L4.85945 7.99782L9.52454 0.863825C9.6345 0.695735 9.80671 0.578197 10.0033 0.537058C10.1999 0.495919 10.4048 0.534547 10.5729 0.644449Z" fill="#C30D23"/>
</svg>
