<svg width="80" height="80" viewBox="0 0 80 80" fill="none" xmlns="http://www.w3.org/2000/svg">
<circle cx="40" cy="40" r="40" fill="#FEE355"/>
<path d="M73.9999 74.0389L59.9149 74.0389L59.915 64.0001L73.9999 74.0389Z" fill="#FEE355"/>
<path d="M23.1232 39V38.188L26.9592 37.712H29.8152L33.3432 38.244V39.056L23.1232 39ZM26.6792 39C26.7352 36.844 26.7632 34.632 26.7632 32.504V20.072L23.0392 20.632V19.736L29.6192 18.112L30.0392 18.42L29.9272 22.9V32.504C29.9272 34.632 29.9832 36.844 30.0392 39H26.6792ZM54.9728 37.922V38.56H39.9248V37.922H54.9728ZM50.8808 32.906V33.544H44.5448V32.906H50.8808ZM49.6708 26.416L50.6388 25.36L52.7068 26.944C52.5528 27.098 52.2448 27.274 51.8268 27.362V34.49C51.8048 34.644 50.8588 35.106 50.1988 35.106H49.8908V26.416H49.6708ZM45.5788 34.798C45.5788 34.974 44.8088 35.414 43.9948 35.414H43.7088V25.558L45.6888 26.416H50.8808V27.054H45.5788V34.798ZM54.0268 22.192L55.0828 20.982L57.2608 22.72C57.1068 22.918 56.7768 23.072 56.3368 23.182V39.792C56.3148 39.99 55.3248 40.496 54.5768 40.496H54.2468V22.192H54.0268ZM40.9588 39.902C40.9588 40.144 40.1668 40.672 39.2648 40.672H38.9128V21.224L41.1568 22.192H55.1048V22.83H40.9588V39.902ZM28.5133 48.108V47.52L29.9833 48.108H29.8013V58.594C29.8013 58.664 29.3953 58.846 28.7373 58.846H28.5133V48.108ZM29.2273 48.108H33.8613V48.5H29.2273V48.108ZM29.2273 50.404H33.8613V50.796H29.2273V50.404ZM29.2273 52.91H33.8613V53.316H29.2273V52.91ZM33.4133 48.108H33.2593L33.9313 47.38L35.3313 48.458C35.2473 48.57 35.0233 48.696 34.7293 48.752V53.582C34.7013 53.68 34.0573 53.932 33.6233 53.932H33.4133V48.108ZM34.3093 53.722L35.7793 54.772C35.6673 54.912 35.5273 54.954 35.2053 54.856C34.2953 55.458 33.2173 55.976 32.3633 56.228L32.2373 56.032C32.8813 55.5 33.6933 54.604 34.3093 53.722ZM26.5393 48.08H26.3853L27.1133 47.38L28.4713 48.668C28.3593 48.794 28.1633 48.836 27.8413 48.836C27.3373 49.662 26.4413 51.118 25.7693 51.93C27.2393 52.882 27.8413 54.142 27.8413 55.206C27.8413 56.494 27.3093 57.208 25.8393 57.264C25.8393 56.886 25.7833 56.424 25.6713 56.27C25.5593 56.13 25.2933 56.018 24.9853 55.962V55.766C25.2653 55.766 25.7413 55.766 25.9093 55.766C26.0493 55.766 26.1473 55.752 26.2593 55.696C26.4693 55.57 26.5953 55.318 26.5953 54.856C26.5953 53.932 26.2733 52.924 25.4053 51.972C25.7833 50.992 26.3013 49.116 26.5393 48.08ZM23.5993 48.08V47.506L25.0413 48.08H24.8593V59.756C24.8593 59.854 24.4533 60.19 23.8233 60.19H23.5993V48.08ZM24.1873 48.08H27.3093V48.486H24.1873V48.08ZM31.2713 53.05C31.9013 56.186 33.7353 57.922 36.2133 58.86L36.1853 59C35.6253 59.098 35.1913 59.49 34.9673 60.12C32.7273 58.762 31.5373 56.774 31.0473 53.148L31.2713 53.05ZM26.7633 58.678C27.7853 58.524 30.0533 58.118 32.2933 57.628L32.3353 57.824C31.2993 58.37 29.8573 59.056 27.8553 59.868C27.7993 60.05 27.6593 60.176 27.5193 60.218L26.7633 58.678ZM41.2953 47.702L41.4213 47.548C41.7293 47.59 42.0513 47.674 42.3033 47.8C42.9193 48.136 43.4513 48.822 43.4513 49.228C43.4513 49.578 43.3393 49.816 43.2273 50.138C43.0873 50.586 42.9893 51.006 42.9333 51.398C42.9053 51.678 43.0033 51.692 43.1433 51.44C43.8433 50.194 44.7533 49.396 45.6913 49.396C47.3153 49.396 48.2533 51.006 48.2533 53.806C48.2533 56.872 46.7693 59.28 42.7233 60.106L42.5833 59.826C46.1533 58.412 46.8393 56.018 46.8393 53.624C46.8393 51.23 46.2793 50.054 45.3833 50.054C44.8093 50.054 44.0393 50.614 43.5493 51.566C43.1013 52.434 42.8633 53.26 42.8633 54.184C42.8633 54.8 42.9613 55.248 42.9613 55.808C42.9613 56.158 42.7233 56.396 42.4013 56.396C42.0793 56.396 41.8553 56.242 41.7013 55.892C41.5333 55.528 41.4633 54.94 41.4633 54.464C41.4633 53.036 42.1073 50.544 42.1073 49.704C42.1073 48.85 41.8833 48.374 41.2953 47.702ZM55.1133 59.21C54.5393 59.21 54.0913 58.748 54.0913 58.188C54.0913 57.628 54.5393 57.194 55.1133 57.194C55.7013 57.194 56.1493 57.628 56.1493 58.188C56.1493 58.748 55.7013 59.21 55.1133 59.21ZM55.1133 48.472C55.7013 48.472 56.0793 48.822 56.0793 49.48C56.0793 50.194 55.9113 51.3 55.5613 53.316L55.3093 55.724H54.9033L54.6793 53.316C54.3153 51.3 54.1473 50.194 54.1473 49.48C54.1473 48.822 54.5253 48.472 55.1133 48.472Z" fill="#3B3331"/>
</svg>
