<?xml version="1.0" encoding="utf-8"?>
<!-- Generator: Adobe Illustrator 27.6.1, SVG Export Plug-In . SVG Version: 6.00 Build 0)  -->
<svg version="1.1" id="レイヤー_1" xmlns="http://www.w3.org/2000/svg" xmlns:xlink="http://www.w3.org/1999/xlink" x="0px"
	 y="0px" viewBox="0 0 239.2 69.98" style="enable-background:new 0 0 239.2 69.98;" xml:space="preserve">
<style type="text/css">
	.st0{display:none;}
	.st1{fill:#3B3331;}
	.st2{fill:#C30D23;}
</style>
<path class="st0" d="M46.62,50.11c-0.05-0.15-0.1-0.25-0.2-0.3c-0.55-0.35-1.1-0.65-1.7-0.85c-0.6-0.15-1.2-0.45-1.75-0.8
	c-0.35-0.25-0.75-0.5-1.2-0.65c-0.45-0.15-0.85-0.35-1.25-0.55c-0.3-0.15-0.55-0.3-0.8-0.55c-0.25-0.2-0.55-0.35-0.8-0.45
	c-0.65-0.25-1.25-0.55-1.8-1c-0.55-0.45-1.15-0.85-1.7-1.25c-0.15-0.05-0.3-0.15-0.5-0.3c-0.2-0.1-0.35-0.2-0.4-0.3
	c-0.15-0.05-0.3-0.2-0.45-0.4c-0.2-0.15-0.4-0.3-0.55-0.4c-1.05-0.75-2.1-1.6-3.1-2.55c-1-0.95-1.95-1.95-2.8-2.9
	c-0.2-0.2-0.4-0.4-0.55-0.6s-0.35-0.4-0.55-0.6c-0.15-0.15-0.3-0.35-0.45-0.6c-0.15-0.2-0.3-0.4-0.45-0.55s-0.4-0.3-0.75-0.35
	s-0.65-0.05-0.9-0.05h-0.9c-0.06,0.01-0.13,0.01-0.19,0.02c-0.3-0.08-0.6-0.14-0.91-0.18c0-0.12-0.01-0.26-0.03-0.42
	c-0.1-0.45-0.2-0.9-0.3-1.45c-0.15-0.55-0.25-1.05-0.4-1.55c-0.15-0.45-0.3-0.8-0.35-0.95c-0.05-0.1-0.15-0.25-0.3-0.45
	c-0.15-0.15-0.2-0.3-0.2-0.4c0-0.45,0-0.95,0.05-1.4c0.05-0.45,0.05-0.95,0.05-1.4c0-0.35,0.05-0.65,0.1-0.95
	c0.05-0.3,0.1-0.6,0.1-0.95c0-0.15-0.05-0.4-0.2-0.75c0.05-0.15,0.05-0.4,0.1-0.7c0.05-0.3,0.15-0.5,0.3-0.55c0.05,0,0.3,0,0.8-0.05
	c0.45,0,1,0,1.6-0.05h2.6c0.25,0,0.5,0,0.75,0.05c0.2,0.05,0.45,0.1,0.7,0.1c0.5,0,1,0,1.45-0.05c0.45-0.05,0.95-0.05,1.45-0.05h1.3
	c0.4,0.05,0.8,0.05,1.25,0.05c0.25,0,0.5,0,0.75-0.05s0.5-0.05,0.75-0.05s0.55,0,0.8,0.05s0.5,0.05,0.75,0.05
	c0.35,0,0.75,0,1.15-0.05c0.35-0.05,0.55-0.3,0.55-0.8v-0.45c-0.05-0.15-0.05-0.3-0.05-0.45c0-0.15,0-0.35,0.05-0.55v-0.6
	c-0.05-0.15-0.1-0.3-0.15-0.45c-0.1-0.1-0.25-0.15-0.45-0.15h-0.55c-0.2,0.05-0.4,0.05-0.6,0.05c-0.35,0-0.65-0.05-0.9-0.1
	c-0.3-0.05-0.6-0.05-0.9-0.05c-0.05-0.05-0.2-0.05-0.35-0.05s-0.35,0.05-0.5,0.1c-0.15,0.05-0.35,0.1-0.5,0.1
	c-0.15,0-0.3,0-0.45-0.05s-0.3-0.05-0.45-0.05h-1.35c-0.25,0-0.45,0-0.65,0.05s-0.4,0.05-0.6,0.05c-0.3,0-0.6-0.05-0.85-0.15
	c-0.25-0.05-0.55-0.1-0.85-0.1c-0.25,0-0.55,0.05-0.85,0.1c-0.3,0.05-0.6,0.1-0.85,0.1h-3c-0.95,0-1.55-0.15-1.9-0.4
	s-0.5-0.85-0.5-1.8v-0.7c0-0.25,0.05-0.5,0.15-0.75c0.05-0.2,0.1-0.45,0.1-0.7c0-0.45,0-0.9-0.05-1.35c-0.05-0.4-0.05-0.85-0.05-1.3
	c0-0.25,0-0.55,0.05-0.8c0.05-0.25,0.05-0.5,0.05-0.75s-0.05-0.45-0.15-0.55c-0.1-0.05-0.3-0.1-0.55-0.1h-0.75
	c-0.25,0.05-0.5,0.05-0.75,0.05c-0.65,0-1.05,0.05-1.25,0.1c-0.2,0.05-0.3,0.45-0.3,1.1c0,0.2,0,0.4,0.05,0.6v0.6
	c0,0.35,0,0.65-0.05,0.95c-0.05,0.3-0.1,0.6-0.1,0.95c0,0.45,0.05,0.85,0.15,1.25c0.1,0.4,0.15,0.8,0.15,1.25
	c0,0.15-0.05,0.3-0.1,0.45c-0.1,0.2-0.15,0.5-0.15,0.85c0,0.3-0.05,0.55-0.2,0.7c-0.25,0.15-0.5,0.2-0.8,0.2
	c-0.35,0.05-0.65,0.05-1,0.05c-0.35,0.05-0.65,0.1-1,0.15c-0.2,0.05-0.35,0.1-0.5,0.1c-0.45,0-0.85-0.05-1.1-0.15
	c-0.3-0.05-0.6-0.1-0.9-0.1H8.64c-0.15,0-0.25,0-0.35,0.05c-0.15,0.05-0.25,0.05-0.4,0.05c-0.2,0-0.4,0-0.55-0.05h-0.6
	c-0.2,0-0.4,0-0.55,0.05s-0.35,0.05-0.55,0.05c-0.2,0-0.4-0.05-0.6-0.1c-0.2-0.05-0.4-0.1-0.65-0.1c-0.4,0-0.8,0-1.2,0.05
	c-0.4,0.05-0.8,0.1-1.2,0.1h-6.45c-0.1,0-0.25,0-0.45-0.05h-0.6c-0.25,0-0.45,0-0.6,0.05s-0.25,0.15-0.3,0.25
	c-0.05,0.1-0.05,0.25-0.05,0.45c0,0.25,0.05,0.55,0.15,0.8c0.05,0.3,0.1,0.6,0.1,0.85c0,0.1,0,0.2-0.05,0.25c0,0.05,0,0.15-0.05,0.2
	c-0.05,0.1-0.05,0.2-0.05,0.25c0,0.25,0.2,0.35,0.6,0.4c0.35,0.05,0.65,0.05,0.8,0.05c0.25,0,0.55,0,0.85-0.05h0.85
	c0.35,0,0.65,0,1,0.05c0.3,0.05,0.6,0.05,0.95,0.05c0.15,0,0.25,0,0.35-0.05c0.05-0.05,0.15-0.05,0.3-0.05h0.4
	c0.2,0.05,0.4,0.05,0.65,0.05h0.6c0.15,0,0.3,0,0.35-0.05h0.3c0.25,0,0.45,0,0.7,0.05c0.2,0.05,0.4,0.05,0.65,0.05
	c0.2,0,0.4,0,0.6-0.05c0.15,0,0.35,0,0.55-0.05c0.7-0.1,1.45-0.15,2.2-0.1c0.75,0.05,1.45,0.05,2.15,0.05h3.3
	c1.05,0.05,2.15,0.05,3.25,0.05c0.15,0,0.3,0,0.45-0.05c0.15-0.05,0.3-0.05,0.45-0.05c0.4,0,0.65,0.05,0.75,0.15
	c0.1,0.1,0.15,0.35,0.15,0.7c0,0.45,0,0.9-0.05,1.35c-0.05,0.45-0.1,0.95-0.1,1.4v0.35c0.05,0.05,0.05,0.1,0.05,0.15
	c0,0.05,0,0.1,0.05,0.15v0.15c0,0.15-0.05,0.25-0.2,0.3c-0.15,0.05-0.25,0.05-0.4,0.05c-0.25,0-0.45,0-0.65-0.05
	c-0.2-0.05-0.4-0.05-0.65-0.05h-0.6c-0.2,0-0.4,0.05-0.55,0.1c-0.25,0.1-0.5,0.2-0.75,0.25c-0.25,0.1-0.45,0.25-0.7,0.4
	c-0.65,0.45-1.3,0.95-1.95,1.55c-0.65,0.65-1.15,1.3-1.45,2c-0.15,0.4-0.3,0.85-0.4,1.4c-0.1,0.55-0.15,1-0.15,1.45v0.95
	c0,0.35,0.05,0.65,0.1,0.9c0.15,0.95,0.55,1.85,1.1,2.7s1.25,1.5,2.15,1.85c0.2,0.05,0.4,0.15,0.6,0.25c0.2,0.15,0.4,0.2,0.65,0.2
	s0.45-0.1,0.7-0.25c0.2-0.15,0.35-0.4,0.5-0.65c0.15-0.25,0.25-0.5,0.35-0.8c0.05-0.25,0.1-0.5,0.1-0.7c0-0.35-0.1-0.6-0.35-0.8
	c-0.25-0.15-0.55-0.35-0.85-0.6c-0.3-0.25-0.55-0.5-0.8-0.85c-0.25-0.3-0.4-0.75-0.4-1.3c0-0.45,0.05-0.9,0.15-1.45
	c0.1-0.55,0.25-1.05,0.5-1.5c0.25-0.45,0.55-0.8,0.9-1.15c0.35-0.3,0.85-0.45,1.4-0.45c0.45,0,0.85,0.1,1.25,0.3
	c0.35,0.25,0.7,0.5,1,0.85c0.25,0.35,0.5,0.7,0.65,1.1c0.15,0.45,0.25,0.85,0.25,1.25c0,0.15,0,0.3-0.05,0.45
	c-0.05,0.15-0.05,0.3-0.05,0.45c-0.05,0.05-0.05,0.2-0.05,0.35s0.05,0.3,0.1,0.45c0.05,0.15,0.05,0.35,0.05,0.55
	c0,0.35-0.05,0.7-0.1,1.1c-0.1,0.4-0.2,0.75-0.35,1.1c-0.1,0.3-0.25,0.7-0.45,1.15c-0.25,0.5-0.45,1-0.7,1.5s-0.45,0.95-0.7,1.4
	s-0.5,0.8-0.7,1l-2.1,2.1c-0.15,0.15-0.35,0.3-0.6,0.35c-0.25,0.1-0.45,0.25-0.65,0.4c-0.45,0.35-0.95,0.65-1.4,0.9
	s-0.95,0.5-1.5,0.75c-0.15,0.05-0.3,0.15-0.4,0.2c-0.15,0.05-0.3,0.15-0.45,0.2c-0.25,0.1-0.5,0.15-0.75,0.15s-0.45,0.05-0.7,0.2
	s-0.55,0.3-0.9,0.4s-0.7,0.15-1.05,0.15c-0.4,0-0.8,0.1-1.25,0.25c-0.05,0.05-0.25,0.1-0.5,0.15c-0.25,0.1-0.4,0.2-0.4,0.3
	c0,0.05,0.05,0.15,0.2,0.3c0.15,0.15,0.25,0.3,0.3,0.45c0.1,0.25,0.25,0.65,0.4,1.15s0.35,0.85,0.5,1.05
	c0.05,0.1,0.25,0.15,0.5,0.15c0.35,0,0.7-0.05,0.95-0.15c0.25-0.15,0.5-0.25,0.85-0.35c0.25-0.05,0.55-0.1,0.8-0.15
	c0.25-0.05,0.55-0.1,0.8-0.15c0.15-0.05,0.3-0.15,0.45-0.25c0.15-0.1,0.3-0.2,0.45-0.25c0.2-0.05,0.4-0.1,0.6-0.1
	c0.2-0.05,0.4-0.1,0.6-0.15c0.04-0.01,0.08-0.02,0.12-0.03c0.02,0.11,0.03,0.23,0.06,0.36c0,0.25,0,0.45,0.05,0.65v0.45
	c0,0.6,0,1.2-0.05,1.8c-0.05,0.6-0.1,1.2-0.1,1.8c0,0.15,0.05,0.35,0.1,0.5c0.05,0.2,0.05,0.4,0.05,0.6c0,0.8,0,1.6-0.05,2.4
	c-0.05,0.85-0.05,1.65-0.05,2.45c0,0.1,0,0.2,0.05,0.3c0.05,0.1,0.05,0.2,0.05,0.3v9.8c0,0.15,0,0.3-0.05,0.4
	c-0.05,0.15-0.05,0.3-0.05,0.45v0.95c-0.05,0.3-0.1,0.6-0.15,0.9c-0.25,0-0.45,0.05-0.65,0.15c-0.25,0.1-0.45,0.15-0.7,0.15H8.52
	c-0.15-0.05-0.35-0.05-0.7,0.05c-0.35,0.1-0.65,0.15-0.8,0.15c-0.4,0.05-0.85,0.05-1.3,0.1c-0.45,0.05-0.9,0.1-1.25,0.25
	c-0.15,0.05-0.2,0.1-0.25,0.2c-0.05,0.1-0.05,0.2-0.05,0.3c0,0.2,0.05,0.5,0.2,0.85c0.1,0.35,0.25,0.7,0.45,1.05
	c0.15,0.35,0.35,0.65,0.6,0.9s0.5,0.35,0.75,0.35c0.15,0,0.3,0,0.35-0.05c0.35,0,0.7-0.05,1.05-0.15c0.3-0.1,0.65-0.2,1-0.3
	c0.05,0.05,0.2,0.1,0.4,0.1c0.15-0.05,0.3-0.05,0.35-0.1c0.45-0.05,0.85-0.15,1.25-0.25c0.35-0.15,0.75-0.25,1.15-0.3
	c0.9-0.1,1.8-0.3,2.75-0.65c0.15-0.05,0.3-0.1,0.45-0.1s0.3,0,0.45-0.05c0.2-0.05,0.65-0.15,1.4-0.3c0.7-0.15,1.45-0.35,2.25-0.5
	c0.8-0.2,1.55-0.4,2.2-0.55c0.65-0.2,1.05-0.35,1.15-0.4c0.3-0.05,0.6-0.15,0.9-0.2c0.3-0.05,0.6-0.15,0.9-0.2
	c0.3-0.05,0.6-0.15,0.9-0.25c0.3-0.1,0.6-0.2,0.85-0.25c0.15-0.05,0.2-0.1,0.25-0.25c0.05-0.05,0.05-0.1,0.05-0.15
	c0-0.05,0-0.1,0.05-0.15c0-0.15,0-0.25,0.05-0.3v-0.2c0-0.05,0-0.2-0.05-0.45c-0.05-0.25-0.05-0.45-0.1-0.7
	c-0.05-0.25-0.15-0.45-0.2-0.65c-0.05-0.15-0.15-0.25-0.25-0.25c-0.15,0-0.3,0.05-0.4,0.1c-0.15,0.05-0.3,0.1-0.45,0.1
	c-0.5,0.05-1,0.15-1.55,0.3c-0.55,0.2-1.1,0.35-1.6,0.45c-0.1,0.05-0.3,0.05-0.6,0.05c-0.3,0.05-0.5,0.05-0.55,0.1
	c-0.05,0-0.1,0.05-0.25,0.1c-0.3,0-0.6,0.05-0.85,0.15c-0.3,0.1-0.6,0.15-0.9,0.15c-0.45,0-0.85,0.05-1.25,0.2
	c-0.45,0.15-0.85,0.25-1.3,0.3c-0.35,0.05-0.7,0.15-1,0.2c-0.35,0.05-0.7,0.15-1.05,0.2c0.05-0.5,0.05-1,0-1.45
	c-0.05-0.45-0.1-0.95-0.1-1.4c0-0.1,0-0.2,0.05-0.3s0.05-0.2,0.05-0.35s0-0.3-0.05-0.4s-0.05-0.25-0.05-0.4c0-0.1,0-0.2,0.05-0.3
	s0.05-0.2,0.05-0.3c0-0.35,0-0.75-0.05-1.1s-0.05-0.75-0.05-1.1c0-0.15,0-0.3,0.05-0.45s0.05-0.3,0.05-0.45c0-0.25,0-0.45-0.05-0.7
	c-0.05-0.2-0.05-0.4-0.05-0.65c0-0.25,0.05-0.45,0.15-0.55c0.05-0.1,0.25-0.15,0.5-0.15c0.35,0,0.75,0,1.1,0.05
	c0.35,0.05,0.7,0.05,1.05,0.05c0.7,0,1.4,0,2.1-0.05c0.65-0.05,1.35-0.05,2.05-0.05c0.05,0,0.15,0,0.2,0.05
	c0.05,0.05,0.05,0.1,0.1,0.15c0.35,0.45,0.75,0.9,1.1,1.45c0.35,0.55,0.7,1.1,0.95,1.6c0.2,0.35,0.4,0.7,0.65,0.95
	c0.7,0.75,1.45,1.5,2.2,2.2c0.35,0.3,0.85,0.7,1.45,1.25c0.55,0.55,1.05,0.95,1.4,1.2c0.45,0.25,0.85,0.55,1.25,0.8
	c0.4,0.3,0.8,0.6,1.25,0.85c0.25,0.15,0.55,0.3,0.9,0.45c0.35,0.15,0.65,0.3,0.95,0.45c0.2,0.1,0.4,0.2,0.6,0.35
	c0.2,0.1,0.4,0.2,0.55,0.3c0.55,0.25,1.1,0.45,1.6,0.65s1.05,0.4,1.6,0.55c0.25,0.05,0.6,0.2,0.95,0.35c0.35,0.15,0.65,0.2,0.9,0.2
	c0.05,0.05,0.15,0.1,0.3,0.1c0.1,0,0.2,0,0.3,0.05c0.35,0.1,0.75,0.2,1.15,0.35c0.4,0.15,0.8,0.3,1.15,0.45
	c0.05-0.05,0.15-0.1,0.25-0.05h0.3c0.15,0,0.35-0.15,0.65-0.4c0.25-0.3,0.55-0.65,0.8-1c0.25-0.4,0.45-0.75,0.65-1.1
	c0.2-0.35,0.3-0.65,0.3-0.8c0-0.15-0.15-0.25-0.4-0.35c-0.25-0.05-0.55-0.15-0.9-0.2s-0.65-0.15-1-0.2c-0.35-0.05-0.6-0.1-0.75-0.15
	c-0.3-0.15-0.6-0.2-0.95-0.2c-0.35,0.05-0.7,0-0.95-0.15c-0.25-0.1-0.8-0.3-1.6-0.6c-0.85-0.25-1.7-0.55-2.55-0.9
	c-0.9-0.35-1.7-0.65-2.35-1c-0.7-0.35-1.05-0.6-1.05-0.85c0-0.1,0.05-0.15,0.15-0.2c0.05-0.05,0.15-0.1,0.2-0.15
	c0.35-0.25,0.8-0.55,1.35-0.8c0.5-0.25,0.9-0.5,1.15-0.8c0.35-0.3,0.7-0.6,1.15-0.9l1.2-0.75c0.55-0.3,1.1-0.7,1.7-1.25
	c0.6-0.55,1.15-1,1.6-1.4c0.1-0.05,0.2-0.15,0.35-0.25c0.15-0.05,0.2-0.2,0.2-0.35c0-0.15-0.1-0.35-0.35-0.6
	c-0.25-0.25-0.55-0.55-0.9-0.8c-0.35-0.25-0.65-0.5-0.95-0.7c-0.35-0.15-0.55-0.25-0.7-0.25c-0.15,0.05-0.3,0.2-0.5,0.35l-0.6,0.6
	c-0.2,0.2-0.4,0.35-0.55,0.5c-0.15,0.15-0.3,0.25-0.35,0.25c-0.1-0.1-0.15-0.3-0.15-0.55v-0.6c0-0.35,0-0.7,0.05-1.05
	c0.05-0.3,0.05-0.65,0.05-1s0-0.65-0.05-1c-0.05-0.3-0.05-0.6-0.05-0.95v-1.05c-0.05-0.45,0-0.75,0.05-0.9
	c0.05-0.05,0.05-0.15,0.1-0.2v-0.15c0-0.45,0-0.95-0.05-1.45c-0.05-0.5-0.1-1-0.1-1.45c0-0.15,0.05-0.3,0.1-0.45
	c0.05-0.1,0.05-0.2,0.05-0.35c0-0.45,0-0.95-0.05-1.4c-0.05-0.45-0.1-0.95-0.1-1.4c0-0.15,0.05-0.35,0.1-0.55
	c0.2,0.1,0.7,0.35,1.45,0.8c0.75,0.45,1.55,0.9,2.4,1.35c0.85,0.45,1.65,0.9,2.4,1.25s1.2,0.55,1.4,0.55c0.35,0,0.65-0.15,0.85-0.45
	c0.05-0.15,0.2-0.3,0.35-0.5c0.15-0.15,0.3-0.35,0.45-0.6c0.15-0.2,0.25-0.4,0.35-0.6s0.15-0.4,0.15-0.55
	C46.67,50.36,46.67,50.26,46.62,50.11z M16.89,47.08c0.25-0.25,0.5-0.55,0.7-0.8c0.2-0.25,0.4-0.5,0.65-0.8
	c0.2-0.3,0.5-0.7,0.85-1.15c0.15-0.15,0.3-0.35,0.45-0.5c0.15-0.15,0.25-0.3,0.35-0.45c0.2-0.35,0.45-0.85,0.7-1.45
	s0.45-1.25,0.65-1.95c0.2-0.65,0.4-1.3,0.55-1.95c0.02-0.07,0.02-0.12,0.04-0.19c0.67-0.02,1.31,0.07,1.93,0.31
	c0.08,0.06,0.16,0.12,0.26,0.2c0.25,0.3,0.55,0.6,0.9,0.95c0.3,0.35,0.6,0.7,0.9,1.05c0.3,0.35,0.5,0.55,0.65,0.65
	c0.75,0.75,1.55,1.45,2.3,2.2c0.75,0.75,1.55,1.4,2.4,2.05c0.2,0.15,0.4,0.25,0.6,0.4c0.2,0.15,0.4,0.3,0.6,0.45
	c0.15,0.15,0.35,0.25,0.5,0.4c0.15,0.15,0.35,0.3,0.5,0.45c0.15,0.1,0.4,0.2,0.7,0.35c0.25,0.15,0.45,0.25,0.5,0.4
	c-0.05,0.05-0.15,0.05-0.2,0h-0.25c-0.5,0-1,0-1.5-0.05c-0.5-0.05-1-0.05-1.5-0.05c-0.15,0-0.35,0-0.5,0.05
	c-0.15,0.05-0.35,0.1-0.5,0.1c-0.2,0-0.4,0-0.6-0.05c-0.2-0.05-0.4-0.05-0.6-0.05c-0.15,0-0.25,0-0.35,0.05s-0.2,0.05-0.35,0.05
	c-0.35,0-0.75-0.05-1.1-0.1c-0.35-0.05-0.75-0.05-1.1-0.05c-0.1,0-0.2,0-0.25,0.05c-0.15,0-0.25-0.05-0.3-0.1
	c-0.05-0.05-0.1-0.15-0.1-0.35v-1.35c0-0.9-0.1-1.65-0.3-2.2c-0.2-0.55-0.85-0.8-1.9-0.8c-0.15,0-0.4,0-0.8,0.05
	c-0.45,0.05-0.65,0.15-0.65,0.4c0,0.4,0,0.8,0.05,1.2v1.25c0,0.25,0,0.5-0.05,0.7c-0.05,0.25-0.1,0.5-0.1,0.75
	c0,0.05,0,0.15,0.05,0.2c0.05,0.1,0.05,0.2,0.05,0.25h-5c-0.15,0-0.25,0-0.35,0.05c-0.13,0.04-0.22,0.05-0.34,0.05
	C16.37,47.51,16.67,47.27,16.89,47.08z M13.92,51.91v-0.35c-0.05-0.1-0.05-0.2-0.05-0.35c0-0.05,0-0.05,0.05-0.1
	c0-0.05,0.05-0.1,0.2-0.15c0.15-0.05,0.3-0.05,0.45-0.1h0.5c0.15,0,0.2,0,0.2,0h2.15c0.15,0,0.35,0,0.5-0.05
	c0.15-0.05,0.3-0.05,0.45-0.05c0.2,0,0.4,0,0.6,0.05c0.2,0.05,0.4,0.05,0.65,0.05h4.6c0.15,0,0.3,0,0.4-0.05
	c0.1-0.05,0.25-0.05,0.4-0.05c0.35,0,0.75,0,1.1,0.05c0.35,0.05,0.75,0.05,1.1,0.05s0.75,0,1.1-0.05c0.35-0.05,0.75-0.05,1.1-0.05
	h0.75c0.4,0,0.8,0,1.25,0.05c0.4,0.05,0.75,0.1,1.1,0.15c0.35,0.1,0.5,0.25,0.5,0.45v0.35c-0.05,0.15-0.05,0.3-0.05,0.45
	c0,0.25,0.05,0.5,0.1,0.75c0.05,0.25,0.05,0.5,0.05,0.75s0,0.45-0.05,0.6c-0.05,0-0.05,0-0.05,0c-0.05,0.05-0.05,0.05-0.1,0.05
	c-0.55,0-1.15,0-1.75,0.05c-0.6,0.05-1.2,0.05-1.75,0.05c-0.85,0-1.75,0-2.6-0.05c-0.85-0.05-1.75-0.05-2.6-0.05
	c-0.35,0-0.75,0-1.1,0.05c-0.35,0.05-0.75,0.1-1.1,0.1c-0.15,0-0.3,0-0.4-0.05c-0.15-0.05-0.3-0.05-0.45-0.05s-0.25,0-0.35,0.05
	s-0.2,0.05-0.3,0.05c-0.65,0-1.25-0.05-1.9-0.1c-0.65-0.05-1.25-0.05-1.9-0.05c-0.35,0-0.75,0-1.1,0.05c-0.35,0.05-0.75,0.1-1.1,0.1
	s-0.55-0.05-0.55-0.2c-0.05-0.15-0.05-0.35-0.05-0.7v-0.3c-0.05-0.05-0.05-0.15-0.05-0.25c0-0.15,0-0.25,0.05-0.4
	c0.05-0.1,0.05-0.2,0.05-0.35C13.97,52.11,13.97,51.96,13.92,51.91z M24.22,61.26c-0.25-0.05-0.5-0.05-0.75-0.05
	c-0.25,0-0.5,0-0.7,0.05c-0.25,0.05-0.5,0.1-0.75,0.1c-0.15,0-0.3-0.05-0.4-0.1c-0.15-0.05-0.25-0.05-0.4-0.05h-2.95
	c-0.1,0-0.2,0-0.3,0.05c-0.1,0.05-0.2,0.1-0.35,0.1h-2.3c-0.15,0-0.35,0-0.5-0.05c-0.15-0.05-0.35-0.05-0.5-0.05h-0.15
	c-0.05,0.05-0.1-0.05-0.15-0.2c-0.05-0.15-0.1-0.2-0.1-0.25v-0.8c-0.05-0.25-0.05-0.55-0.05-0.8c0-0.9,0.2-1.4,0.55-1.55
	s0.9-0.2,1.65-0.2c0.15,0,0.25-0.05,0.35-0.1c0.1-0.05,0.2-0.05,0.35-0.05h2.95c0.65,0.05,1.2,0.05,1.75,0.05
	c0.5,0.05,0.8,0.05,0.85,0.1h0.35c0.1,0,0.2,0,0.35-0.05h0.3c0.75,0,1.55,0,2.3,0.05c0.75,0.05,1.55,0.05,2.3,0.05
	c0.25,0,0.5-0.05,0.75-0.1c0.2-0.05,0.45-0.05,0.7-0.05s0.55,0,0.8,0.05c0.25,0.05,0.55,0.1,0.8,0.1c0.05,0,0.1,0,0.15-0.05
	c0.05,0,0.05,0,0.1,0c0.05-0.05,0.15-0.05,0.3-0.05c0.75,0,1.2,0.15,1.35,0.4c0.15,0.3,0.2,0.8,0.2,1.45c0,0.55-0.1,1-0.35,1.25
	c-0.25,0.3-0.55,0.5-0.9,0.6c-0.4,0.15-0.8,0.2-1.25,0.2c-0.45,0.05-0.9,0.05-1.3,0.05h-0.65c-0.25,0.05-0.45,0.05-0.7,0.05
	c-0.2,0-0.4-0.05-0.6-0.1c-0.2-0.05-0.4-0.05-0.6-0.05c-0.3,0-0.6,0-0.85,0.05c-0.3,0.05-0.6,0.05-0.9,0.05
	C24.72,61.36,24.47,61.31,24.22,61.26z M35.62,64.91c-0.25,0.25-0.45,0.35-0.5,0.35c-0.15,0.15-0.35,0.35-0.5,0.55
	c-0.15,0.2-0.35,0.35-0.5,0.45c-0.35,0.2-0.7,0.45-1.05,0.75c-0.4,0.3-0.8,0.6-1.2,0.9c-0.4,0.3-0.8,0.6-1.15,0.85
	c-0.4,0.25-0.75,0.45-1.05,0.6c-0.15-0.05-0.4-0.25-0.75-0.55c-0.35-0.3-0.75-0.65-1.1-1.05c-0.4-0.35-0.75-0.75-1.05-1.1
	c-0.35-0.35-0.55-0.6-0.7-0.75c-0.15-0.15-0.3-0.35-0.4-0.5c-0.1-0.15-0.2-0.35-0.35-0.5c-0.2-0.2-0.3-0.35-0.35-0.45
	c0.15-0.05,0.35-0.05,0.6-0.05c0.15,0,0.25,0,0.35,0.05c0.05,0.05,0.15,0.05,0.3,0.05h4.45c0.7,0,1.4,0,2.1-0.05
	c0.65-0.05,1.35-0.05,2.05-0.05c0.15,0,0.35,0,0.55,0.05c0.15,0.05,0.35,0.05,0.5,0.05h0.25C36.07,64.56,35.87,64.71,35.62,64.91z"
	/>
<g>
	<path class="st1" d="M103.34,19.56c0.19-0.04,0.41-0.07,0.63-0.07c0.26,0,0.49,0.04,0.71,0.07c0.19,0.04,0.41,0.07,0.67,0.07
		c0.11,0,0.26,0,0.41-0.04c0.11-0.04,0.26-0.04,0.37-0.04c0.22,0,0.45,0.04,0.67,0.11c0.19,0.07,0.41,0.15,0.63,0.19
		c0.26,0.04,0.56,0.07,0.86,0.11c0.26,0.04,0.56,0.11,0.82,0.15c0.19,0.04,0.34,0.11,0.52,0.15c0.15,0.07,0.3,0.15,0.48,0.19
		c0.11,0.04,0.26,0.07,0.49,0.11c0.22,0.04,0.45,0.11,0.63,0.15c0.19,0.07,0.37,0.15,0.56,0.26c0.15,0.11,0.22,0.26,0.22,0.41
		c0,0.11-0.04,0.26-0.15,0.49c-0.11,0.26-0.22,0.49-0.37,0.71c-0.15,0.26-0.3,0.45-0.45,0.63c-0.19,0.19-0.34,0.26-0.45,0.26
		c-0.11,0-0.22-0.04-0.34-0.15c-0.11-0.07-0.22-0.11-0.37-0.11c-0.11,0-0.22,0.15-0.34,0.41c-0.15,0.3-0.22,0.49-0.22,0.6
		c-0.11,0.19-0.19,0.37-0.26,0.56s-0.19,0.41-0.3,0.6c-0.34,0.49-0.63,1.01-0.93,1.49s-0.63,1.01-0.97,1.49
		c-0.11,0.11-0.19,0.26-0.3,0.41c-0.11,0.19-0.19,0.34-0.19,0.49c0,0.11,0.07,0.26,0.22,0.41c0.11,0.15,0.3,0.3,0.49,0.41
		c0.19,0.11,0.34,0.22,0.52,0.3c0.19,0.11,0.3,0.15,0.41,0.15c0.11,0.11,0.26,0.22,0.45,0.3c0.15,0.07,0.3,0.15,0.41,0.26
		c0.26,0.19,0.49,0.37,0.71,0.56c0.22,0.19,0.45,0.37,0.71,0.56c0.19,0.15,0.37,0.3,0.56,0.41c0.19,0.11,0.34,0.26,0.52,0.45
		c0.26,0.11,0.52,0.26,0.75,0.49c0.22,0.22,0.45,0.45,0.63,0.63c0.22,0.26,0.48,0.49,0.78,0.67c0.26,0.22,0.49,0.49,0.67,0.75
		c0.04,0.07,0.11,0.22,0.22,0.45c0.11,0.22,0.26,0.45,0.37,0.67c0.11,0.26,0.22,0.49,0.34,0.67c0.11,0.22,0.15,0.37,0.15,0.41
		c0.04,0.11,0.04,0.26,0.04,0.37c0,0.11,0,0.26,0,0.37v0.75c0,0.07,0,0.15-0.04,0.19c-0.04,0.04-0.04,0.11-0.04,0.15
		c0,0.15,0.04,0.3,0.08,0.45s0.04,0.3,0.04,0.45c0,0.19-0.04,0.3-0.15,0.34c-0.11,0.04-0.3,0.07-0.49,0.07c-0.11,0-0.26,0-0.37-0.04
		c-0.15,0-0.3,0-0.41,0c-0.26,0-0.52,0.04-0.75,0.15c-0.26,0.11-0.45,0.19-0.56,0.19c-0.19,0-0.26-0.15-0.3-0.45
		c-0.04-0.26-0.08-0.49-0.08-0.6c0-0.11,0-0.15,0.04-0.19c0-0.07,0-0.15,0.04-0.22c0.04-0.04,0.04-0.11,0.04-0.19
		s-0.04-0.26-0.11-0.52c-0.07-0.26-0.15-0.52-0.26-0.82c-0.11-0.3-0.19-0.56-0.3-0.82s-0.19-0.41-0.22-0.49
		c-0.19-0.26-0.37-0.49-0.63-0.67c-0.26-0.19-0.49-0.41-0.75-0.6c-0.3-0.22-0.67-0.56-1.16-0.97c-0.49-0.41-1.01-0.86-1.53-1.27
		c-0.56-0.41-1.08-0.75-1.61-1.08c-0.52-0.3-0.97-0.45-1.34-0.45c-0.19,0-0.37,0.07-0.49,0.19c-0.11,0.11-0.26,0.26-0.37,0.45
		c-0.11,0.15-0.26,0.34-0.52,0.6c-0.26,0.26-0.52,0.52-0.82,0.78c-0.34,0.26-0.63,0.52-0.9,0.78c-0.3,0.26-0.52,0.45-0.71,0.56
		c-0.19,0.11-0.37,0.26-0.56,0.41s-0.37,0.3-0.52,0.45c-0.04,0.07-0.11,0.15-0.15,0.22c-0.08,0.07-0.15,0.15-0.26,0.19
		c-0.19,0.11-0.37,0.19-0.56,0.22c-0.19,0.07-0.34,0.19-0.52,0.3c-0.26,0.19-0.49,0.37-0.67,0.56c-0.19,0.19-0.41,0.37-0.67,0.52
		c-0.11,0.07-0.22,0.15-0.34,0.19c-0.11,0.04-0.26,0.11-0.37,0.15c-0.19,0.11-0.37,0.22-0.56,0.34c-0.19,0.11-0.41,0.19-0.6,0.3
		c-0.11,0.04-0.22,0.07-0.34,0.11c-0.11,0.04-0.22,0.11-0.34,0.15c-0.04,0-0.15,0.04-0.26,0.07c-0.11,0.07-0.26,0.15-0.37,0.22
		c-0.11,0.11-0.26,0.19-0.37,0.26c-0.11,0.11-0.22,0.15-0.3,0.19c-0.63,0.37-1.27,0.67-1.94,0.86c-0.67,0.19-1.34,0.41-2.05,0.6
		c-0.26,0.07-0.52,0.19-0.78,0.34c-0.3,0.19-0.56,0.26-0.82,0.26s-0.45-0.15-0.56-0.41c-0.11-0.19-0.26-0.49-0.45-0.86
		c-0.19-0.34-0.3-0.63-0.3-0.86c0-0.15,0.07-0.26,0.22-0.37c0.15-0.11,0.34-0.19,0.52-0.26s0.37-0.15,0.56-0.19
		c0.19-0.04,0.37-0.11,0.49-0.15c0.11-0.04,0.22-0.07,0.34-0.07c0.11,0.04,0.22,0,0.34-0.04c0.04-0.04,0.15-0.07,0.3-0.15
		c0.11-0.07,0.26-0.15,0.41-0.22c0.11-0.07,0.26-0.15,0.37-0.22c0.11-0.07,0.15-0.11,0.19-0.15c0.19-0.11,0.37-0.19,0.56-0.22
		c0.19-0.04,0.41-0.07,0.6-0.11c0.11-0.04,0.26-0.11,0.37-0.15c0.11-0.04,0.22-0.11,0.34-0.15c0.41-0.19,0.82-0.41,1.2-0.67
		c0.37-0.22,0.78-0.45,1.2-0.63c0.19-0.11,0.41-0.26,0.6-0.37c0.19-0.11,0.41-0.26,0.6-0.37c0.11-0.04,0.22-0.11,0.3-0.19
		c0.04-0.07,0.11-0.15,0.22-0.22c0.19-0.15,0.41-0.26,0.63-0.37c0.19-0.11,0.41-0.19,0.63-0.3c0.11-0.04,0.19-0.11,0.26-0.19
		s0.15-0.15,0.22-0.19c0.07-0.07,0.15-0.15,0.26-0.19c0.08-0.04,0.15-0.07,0.26-0.11c0.11-0.04,0.19-0.11,0.26-0.19
		c0.04-0.07,0.11-0.15,0.22-0.19c0.19-0.11,0.3-0.26,0.41-0.41c0.07-0.15,0.19-0.3,0.3-0.41c0.26-0.3,0.56-0.56,0.9-0.78
		c0.3-0.22,0.6-0.49,0.86-0.78c0.11-0.11,0.22-0.26,0.34-0.45c0.11-0.15,0.22-0.3,0.34-0.41c0.19-0.19,0.37-0.37,0.56-0.52
		c0.19-0.11,0.37-0.3,0.52-0.49c0.11-0.19,0.22-0.34,0.34-0.49c0.11-0.15,0.19-0.3,0.3-0.49c0.07-0.11,0.19-0.22,0.3-0.3
		c0.11-0.07,0.19-0.19,0.26-0.3c0.19-0.26,0.34-0.52,0.48-0.82c0.11-0.26,0.3-0.52,0.49-0.78c0.11-0.19,0.3-0.41,0.52-0.75
		c0.19-0.3,0.41-0.63,0.6-1.01c0.19-0.34,0.37-0.67,0.52-1.01c0.11-0.34,0.19-0.6,0.19-0.82c0-0.11-0.04-0.15-0.15-0.15
		c-0.04,0.04-0.15,0.04-0.3,0.04c-0.15,0-0.3,0-0.41-0.04c-0.15-0.04-0.3-0.04-0.45-0.04c-0.04-0.04-0.15-0.04-0.3-0.04
		c-0.19,0-0.41,0-0.6,0.04c-0.19,0.04-0.41,0.04-0.6,0.04c-0.37,0-0.75,0-1.12,0c-0.41,0.04-0.78,0.04-1.16,0.04
		c-1.01,0-2.02,0-3.03-0.04c-1.01,0-2.02,0-3.02,0c-0.11,0-0.26,0-0.37,0.04c-0.11,0.04-0.26,0.07-0.37,0.07
		c-0.22,0-0.45-0.04-0.63-0.07c-0.22-0.04-0.45-0.04-0.67-0.04c-0.11,0-0.26,0-0.37,0.04c-0.11,0.04-0.26,0.04-0.37,0.04
		c-0.04,0-0.15,0-0.26,0c-0.15,0.04-0.26,0-0.3-0.04c-0.34,0-0.52-0.15-0.52-0.41c0-0.11,0-0.22,0.04-0.34
		c0.04-0.11,0.04-0.22,0.04-0.34v-0.9c0-0.26,0.11-0.45,0.3-0.56c0.19-0.07,0.37-0.11,0.63-0.11h1.72c0.15,0,0.3,0.04,0.41,0.07
		c0.11,0.04,0.26,0.07,0.41,0.07c0.19,0,0.41,0,0.6-0.04c0.19-0.04,0.37-0.04,0.56-0.04c0.34,0,0.71,0,1.08,0
		c0.37,0,0.75-0.04,1.08-0.07c0.34-0.07,0.67-0.11,1.01-0.11c0.26,0,0.49,0.04,0.75,0.07c0.22,0.04,0.45,0.07,0.71,0.07h1.68
		C102.93,19.67,103.15,19.63,103.34,19.56z"/>
	<path class="st1" d="M147.06,19.71c0.04,0.04,0.11,0.07,0.22,0.07c0.26,0,0.49,0,0.71-0.04c0.22-0.04,0.45-0.04,0.71-0.04
		c0.3,0,0.6,0.04,0.93,0.07c0.3,0.04,0.6,0.07,0.9,0.07c0.22,0,0.49,0,0.75,0c0.26,0.04,0.52,0.07,0.75,0.11
		c0.19,0.04,0.49,0.11,0.82,0.22c0.34,0.11,0.63,0.22,0.97,0.37s0.6,0.34,0.86,0.52c0.22,0.19,0.34,0.41,0.34,0.63
		c0,0.11-0.04,0.22-0.11,0.41c-0.08,0.19-0.15,0.34-0.26,0.52c-0.11,0.19-0.26,0.34-0.37,0.45c-0.15,0.11-0.26,0.19-0.37,0.19
		c-0.11,0-0.19-0.04-0.22-0.11s-0.15-0.11-0.26-0.11c-0.04,0-0.07,0-0.07,0c-0.04,0.04-0.04,0.04-0.08,0.04
		c-0.04,0.04-0.11,0.15-0.22,0.34s-0.22,0.41-0.34,0.63c-0.11,0.26-0.22,0.49-0.34,0.67c-0.11,0.22-0.15,0.34-0.15,0.37
		c0,0.04,0,0.07,0,0.11c-0.04,0.04-0.04,0.11-0.04,0.15c-0.04,0.04-0.04,0.11-0.04,0.22c-0.04,0.22-0.07,0.45-0.19,0.67
		c-0.11,0.26-0.22,0.49-0.34,0.67c-0.07,0.11-0.15,0.22-0.19,0.34c-0.08,0.11-0.15,0.22-0.22,0.34c-0.11,0.11-0.19,0.22-0.3,0.26
		c-0.11,0.04-0.22,0.15-0.26,0.26c-0.15,0.34-0.26,0.67-0.37,1.01c-0.11,0.34-0.26,0.67-0.49,0.97c-0.34,0.49-0.71,0.97-1.08,1.46
		c-0.41,0.49-0.82,0.93-1.23,1.34c-0.19,0.19-0.37,0.45-0.56,0.71c-0.19,0.26-0.37,0.52-0.6,0.71c-0.26,0.26-0.52,0.49-0.78,0.67
		c-0.26,0.22-0.56,0.45-0.82,0.67c-0.34,0.26-0.6,0.56-0.86,0.86c-0.26,0.3-0.6,0.56-0.93,0.78c-0.15,0.11-0.3,0.22-0.49,0.3
		c-0.19,0.07-0.34,0.19-0.49,0.3c-0.19,0.11-0.37,0.26-0.52,0.45c-0.19,0.19-0.37,0.34-0.56,0.45c-0.15,0.11-0.3,0.19-0.49,0.26
		c-0.19,0.07-0.34,0.15-0.49,0.26c-0.26,0.15-0.49,0.3-0.67,0.45c-0.22,0.19-0.45,0.34-0.71,0.45c-0.11,0.04-0.19,0.11-0.22,0.19
		c-0.07,0.07-0.15,0.15-0.26,0.19c-0.26,0.19-0.52,0.3-0.82,0.34c-0.34,0.04-0.6,0.15-0.86,0.34c-0.11,0.07-0.22,0.15-0.3,0.22
		c-0.11,0.11-0.22,0.19-0.34,0.26c-0.6,0.34-1.23,0.63-1.87,0.82c-0.19,0.04-0.34,0.11-0.49,0.22c-0.15,0.11-0.3,0.19-0.45,0.26
		s-0.3,0.11-0.45,0.15c-0.19,0.04-0.34,0.07-0.49,0.15c-0.34,0.19-0.75,0.37-1.2,0.56c-0.49,0.19-0.9,0.26-1.31,0.26
		c-0.26,0-0.49-0.04-0.63-0.15c-0.19-0.11-0.3-0.22-0.41-0.41c-0.11-0.19-0.22-0.37-0.3-0.56c-0.07-0.19-0.15-0.41-0.26-0.6
		c-0.04-0.11-0.08-0.19-0.11-0.26s-0.04-0.15-0.04-0.26c0-0.26,0.15-0.41,0.49-0.52c0.34-0.11,0.56-0.19,0.71-0.26
		c0.56,0,1.12-0.15,1.68-0.49c0.56-0.34,1.08-0.6,1.57-0.82c0.34-0.15,0.75-0.3,1.23-0.45c0.45-0.15,0.82-0.3,1.08-0.45
		c0.41-0.22,0.82-0.45,1.23-0.63c0.41-0.19,0.86-0.34,1.27-0.52c0.19-0.07,0.37-0.19,0.49-0.3c0.11-0.11,0.26-0.19,0.45-0.3
		c0.26-0.15,0.52-0.3,0.78-0.45c0.26-0.11,0.49-0.3,0.75-0.49c0.22-0.19,0.45-0.37,0.63-0.56c0.19-0.19,0.45-0.34,0.71-0.45
		c0.11,0,0.3-0.15,0.52-0.41c0.19-0.26,0.37-0.41,0.52-0.45c0.07-0.07,0.19-0.15,0.3-0.19c0.11-0.04,0.19-0.11,0.3-0.19
		c0.19-0.15,0.34-0.3,0.49-0.49c0.11-0.19,0.26-0.34,0.41-0.49c0.19-0.19,0.45-0.41,0.78-0.75c0.34-0.34,0.67-0.67,1.01-1.05
		c0.34-0.34,0.63-0.71,0.93-1.05c0.26-0.34,0.45-0.6,0.52-0.78c0.08-0.19,0.22-0.41,0.49-0.67c0.26-0.22,0.45-0.45,0.56-0.63
		c0.22-0.37,0.41-0.78,0.52-1.19c0.11-0.41,0.3-0.82,0.49-1.23c0.15-0.34,0.3-0.6,0.45-0.82c0.11-0.19,0.22-0.41,0.34-0.6
		c0.08-0.19,0.15-0.45,0.19-0.71c0.04-0.26,0.08-0.56,0.08-0.97c0-0.19-0.04-0.3-0.11-0.34c-0.11-0.04-0.22-0.04-0.34-0.04
		c-0.26,0-0.49,0-0.71,0.04c-0.26,0.04-0.49,0.07-0.75,0.07c-0.56,0-1.12-0.04-1.68-0.07c-0.56-0.04-1.08-0.07-1.64-0.07
		c-0.11,0-0.22,0-0.41,0c-0.19,0-0.34,0-0.52,0c-0.19,0.04-0.37,0.04-0.52,0.04c-0.15,0.04-0.26,0.04-0.34,0.07
		c-0.11,0.04-0.19,0.11-0.22,0.19c-0.07,0.07-0.15,0.15-0.22,0.22c-0.19,0.19-0.3,0.37-0.37,0.56c-0.11,0.19-0.22,0.34-0.34,0.49
		c-0.11,0.15-0.26,0.3-0.41,0.41c-0.19,0.11-0.34,0.26-0.49,0.41c-0.3,0.34-0.6,0.63-0.86,0.93c-0.3,0.34-0.6,0.63-0.9,0.93
		c-0.19,0.19-0.41,0.34-0.67,0.45c-0.26,0.11-0.49,0.26-0.67,0.45c-0.26,0.26-0.6,0.6-1.01,0.93s-0.82,0.63-1.19,0.82
		c-0.11,0.04-0.19,0.11-0.26,0.15c-0.11,0.04-0.19,0.11-0.3,0.19c-0.15,0.11-0.26,0.15-0.34,0.19c-0.37,0.11-0.75,0.3-1.12,0.49
		c-0.41,0.22-0.78,0.45-1.12,0.67c-0.11,0.07-0.26,0.11-0.37,0.15c-0.11,0.04-0.26,0.11-0.37,0.19c-0.19,0.11-0.41,0.26-0.6,0.41
		c-0.22,0.19-0.45,0.26-0.63,0.26c-0.19,0-0.37-0.07-0.52-0.22c-0.19-0.11-0.34-0.3-0.45-0.49c-0.11-0.19-0.22-0.41-0.3-0.63
		c-0.08-0.22-0.11-0.41-0.11-0.56c0-0.19,0.08-0.34,0.19-0.45c0.11-0.11,0.22-0.19,0.41-0.3c0.11-0.07,0.26-0.15,0.41-0.22
		c0.11-0.04,0.26-0.11,0.37-0.15c0.15-0.04,0.3-0.15,0.41-0.26c0.11-0.11,0.22-0.19,0.37-0.22c0.26-0.11,0.49-0.19,0.67-0.3
		c0.19-0.07,0.41-0.19,0.64-0.3c0.19-0.11,0.37-0.26,0.52-0.41c0.15-0.11,0.34-0.26,0.52-0.37c0.34-0.22,0.78-0.49,1.27-0.75
		c0.49-0.26,0.86-0.56,1.12-0.82c0.45-0.45,0.93-0.9,1.42-1.31c0.26-0.26,0.52-0.52,0.75-0.78c0.19-0.26,0.41-0.56,0.67-0.82
		c0.45-0.52,0.82-0.97,1.08-1.34c0.26-0.34,0.52-0.71,0.75-1.08c0.19-0.34,0.37-0.75,0.56-1.19c0.15-0.41,0.34-0.97,0.56-1.61
		c0.04-0.19,0.11-0.41,0.19-0.6c0.07-0.19,0.11-0.37,0.11-0.56c0-0.11,0-0.26,0-0.37c-0.04-0.11-0.04-0.26-0.04-0.37
		c0-0.19,0.04-0.41,0.08-0.6c0.04-0.19,0.19-0.26,0.45-0.26c0.08-0.04,0.19-0.07,0.34-0.07c0.11,0.04,0.22,0.04,0.3,0.04
		c0.19,0,0.45,0.04,0.86,0.07c0.37,0.04,0.63,0.15,0.75,0.26c0.08,0.07,0.11,0.19,0.15,0.3c0,0.15,0,0.26,0,0.37
		c0,0.56-0.07,1.16-0.19,1.72c-0.15,0.56-0.22,1.16-0.22,1.72c0,0.34,0.07,0.56,0.26,0.63c0.19,0.11,0.41,0.15,0.71,0.15h1.53
		c0.11,0,0.15,0,0.19,0.04L147.06,19.71z M153.56,17.92c-0.04,0.11-0.11,0.19-0.22,0.22c-0.11,0.04-0.22,0.07-0.37,0.04
		c-0.15-0.04-0.34-0.04-0.56-0.04h-0.41c-0.07,0-0.11,0-0.15,0.04c-0.04,0-0.11,0-0.15,0.04c-0.04,0.04-0.11,0.04-0.15,0.04
		c-0.11,0-0.15-0.04-0.15-0.11c0-0.26,0-0.56-0.04-0.82c-0.04-0.26-0.07-0.52-0.07-0.78c0-0.19,0-0.41,0-0.6
		c-0.04-0.19,0-0.41,0.04-0.6c0.04-0.15,0.08-0.26,0.08-0.37c0.04-0.04,0.04-0.15,0.04-0.26v-1.19c0-0.15,0-0.3-0.04-0.49
		c-0.04-0.15-0.04-0.3-0.04-0.49c0-0.07,0-0.19,0.04-0.34c0.04-0.11,0.07-0.19,0.19-0.19c0.15,0,0.3,0.04,0.41,0.11h0.52
		c0.11,0,0.22,0,0.34-0.04c0.11-0.04,0.22-0.04,0.34-0.04c0.19,0,0.3,0.07,0.3,0.26v0.11c-0.08,0.11-0.11,0.26-0.11,0.37
		c0,0.15,0,0.3,0,0.41c0,0.15,0.04,0.34,0.07,0.52c0.04,0.22,0.08,0.45,0.08,0.67c0,0.34,0,0.63-0.04,0.93
		c-0.04,0.3-0.04,0.6-0.04,0.93c0,0.19,0.04,0.37,0.08,0.52s0.07,0.34,0.07,0.52C153.6,17.58,153.6,17.81,153.56,17.92z
		 M157.78,18.07c-0.3,0.11-0.67,0.19-1.12,0.19c-0.22,0-0.41-0.04-0.52-0.11c-0.11-0.04-0.19-0.22-0.19-0.49c0-0.15,0-0.3,0.04-0.49
		c0-0.15,0-0.3,0-0.45c0-0.19-0.04-0.37-0.07-0.56c-0.04-0.19-0.08-0.37-0.08-0.56c0-0.41,0.04-0.86,0.11-1.27
		c0.04-0.3,0.08-0.6,0.11-0.9c0-0.3,0-0.6,0-0.9c0-0.19,0-0.3,0.04-0.37c0.04-0.04,0.08-0.07,0.15-0.11
		c0.04-0.04,0.11-0.04,0.15-0.04h0.45c0.19,0,0.41,0,0.63,0c0.19,0.04,0.41,0.04,0.6,0.04c0,0.11,0,0.19-0.04,0.26
		c-0.04,0.07-0.07,0.19-0.07,0.3c0,0.19,0.04,0.37,0.07,0.56c0.04,0.19,0.08,0.37,0.08,0.56c0,0.15,0,0.3,0,0.45
		c-0.04,0.15-0.04,0.3-0.04,0.45c0,0.19,0,0.41,0.04,0.63c0.04,0.22,0.04,0.45,0.04,0.63c0,0.11,0,0.26-0.04,0.37
		c-0.04,0.11-0.04,0.26-0.04,0.37c0,0.11,0.04,0.19,0.07,0.26s0.04,0.15,0.04,0.26C158.19,17.66,158.04,17.95,157.78,18.07z"/>
	<path class="st1" d="M171.86,42.22c0-0.22,0-0.45,0-0.71c0-0.11,0-0.22,0.04-0.34c0.04-0.07,0.04-0.19,0.04-0.3v-7.32
		c0-0.07,0-0.15-0.04-0.22s-0.04-0.15-0.04-0.22c0-0.6,0-1.19,0.04-1.83c0.04-0.6,0.04-1.19,0.04-1.79c0-0.15,0-0.3-0.04-0.45
		c-0.04-0.11-0.07-0.26-0.07-0.37c0-0.45,0.04-0.9,0.07-1.34s0.04-0.9,0.04-1.34c0-0.04,0-0.15,0-0.34
		c-0.04-0.15-0.04-0.3-0.04-0.49c-0.04-0.15-0.04-0.3-0.07-0.41c-0.04-0.11-0.11-0.19-0.15-0.19c-0.08,0-0.15,0.04-0.19,0.07
		c-0.26,0.19-0.56,0.34-0.82,0.52c-0.3,0.19-0.6,0.37-0.86,0.56c-0.41,0.26-0.86,0.52-1.31,0.75s-0.9,0.45-1.34,0.67
		c-0.07,0.04-0.15,0.11-0.22,0.19c-0.11,0.07-0.19,0.11-0.3,0.11s-0.22-0.11-0.41-0.3c-0.19-0.19-0.34-0.37-0.49-0.63
		c-0.19-0.26-0.34-0.49-0.45-0.75c-0.11-0.26-0.19-0.41-0.19-0.52c0-0.15,0.08-0.26,0.22-0.34c0.07-0.04,0.19-0.07,0.34-0.19
		c0.15-0.07,0.3-0.15,0.49-0.26c0.19-0.07,0.34-0.15,0.49-0.22c0.15-0.04,0.26-0.07,0.34-0.07c0.11-0.04,0.22-0.11,0.34-0.22
		c0.11-0.11,0.26-0.19,0.45-0.22c0.11-0.04,0.22-0.11,0.34-0.22c0.11-0.07,0.22-0.15,0.34-0.19c0.19-0.07,0.37-0.15,0.52-0.26
		c0.11-0.11,0.26-0.22,0.45-0.34c0.08-0.04,0.15-0.11,0.26-0.15c0.08-0.04,0.15-0.11,0.22-0.15c0.41-0.26,0.86-0.52,1.27-0.82
		c0.41-0.3,0.86-0.6,1.27-0.86c0.49-0.34,1.01-0.75,1.53-1.23c0.49-0.49,0.97-0.93,1.38-1.34c0.07-0.11,0.22-0.26,0.45-0.45
		c0.22-0.19,0.37-0.34,0.41-0.37c0.11-0.07,0.26-0.19,0.41-0.37c0.11-0.15,0.22-0.3,0.3-0.41c0.04-0.04,0.04-0.07,0.07-0.11
		c0.04,0,0.07-0.04,0.11-0.07c0.15-0.11,0.3-0.3,0.41-0.52c0.11-0.19,0.26-0.37,0.37-0.52c0.11-0.19,0.26-0.34,0.45-0.49
		c0.15-0.11,0.3-0.3,0.41-0.49c0.11-0.15,0.26-0.37,0.45-0.71s0.34-0.56,0.37-0.67c0.22-0.22,0.37-0.37,0.45-0.49
		c0.04-0.11,0.26-0.15,0.6-0.15c0.11,0,0.19,0,0.26-0.04c0.19,0,0.41,0,0.63-0.04c0.22,0,0.45,0,0.67,0c0.19,0,0.41,0,0.67,0.04
		c0.26,0.04,0.45,0.15,0.56,0.26c0.11,0.11,0.22,0.26,0.34,0.41c0.11,0.19,0.22,0.34,0.34,0.45c0.15,0.15,0.3,0.3,0.41,0.45
		s0.26,0.3,0.41,0.45c0.63,0.71,1.34,1.46,2.09,2.17c0.75,0.71,1.53,1.34,2.31,1.9c0.11,0.07,0.26,0.19,0.41,0.3
		c0.11,0.15,0.22,0.26,0.34,0.3c0.04,0.07,0.15,0.15,0.3,0.22c0.15,0.11,0.26,0.19,0.37,0.22c0.41,0.3,0.86,0.6,1.27,0.93
		c0.41,0.34,0.86,0.56,1.34,0.75c0.19,0.07,0.41,0.19,0.6,0.34c0.19,0.19,0.37,0.3,0.6,0.41c0.3,0.15,0.6,0.3,0.93,0.41
		c0.34,0.11,0.63,0.3,0.9,0.49c0.41,0.26,0.86,0.49,1.31,0.6c0.45,0.15,0.86,0.37,1.27,0.63c0.07,0.04,0.11,0.11,0.15,0.22
		c0.04,0.11,0.04,0.19,0.04,0.26c0,0.11-0.04,0.26-0.11,0.41c-0.07,0.15-0.15,0.3-0.26,0.45c-0.11,0.19-0.22,0.34-0.34,0.45
		c-0.11,0.15-0.22,0.26-0.26,0.37c-0.15,0.22-0.37,0.34-0.63,0.34c-0.15,0-0.49-0.15-1.05-0.41c-0.56-0.26-1.16-0.6-1.79-0.93
		s-1.23-0.67-1.79-1.01c-0.56-0.34-0.93-0.52-1.08-0.6c-0.04,0.15-0.07,0.3-0.07,0.41c0,0.34,0.04,0.71,0.07,1.05
		c0.04,0.34,0.04,0.71,0.04,1.05c0,0.11,0,0.19-0.04,0.26c-0.04,0.11-0.07,0.22-0.07,0.34c0,0.34,0.04,0.71,0.07,1.08
		c0.04,0.37,0.04,0.75,0.04,1.08c0,0.04,0,0.07,0,0.11c-0.04,0.04-0.04,0.11-0.07,0.15c-0.04,0.11-0.08,0.34-0.04,0.67
		c0,0.34,0,0.6,0,0.78c0,0.26,0,0.49,0.04,0.71c0.04,0.26,0.04,0.49,0.04,0.75c0,0.26,0,0.52-0.04,0.75
		c-0.04,0.26-0.04,0.52-0.04,0.78c0,0.11,0,0.26,0,0.45s0.04,0.34,0.11,0.41c0.04,0,0.15-0.07,0.26-0.19
		c0.11-0.11,0.26-0.22,0.41-0.37c0.15-0.15,0.3-0.3,0.45-0.45c0.15-0.11,0.26-0.22,0.37-0.26c0.11,0,0.26,0.07,0.52,0.19
		c0.22,0.15,0.45,0.34,0.71,0.52c0.26,0.19,0.49,0.41,0.67,0.6c0.19,0.19,0.26,0.34,0.26,0.45c0,0.11-0.04,0.22-0.15,0.26
		c-0.11,0.07-0.19,0.15-0.26,0.19c-0.34,0.3-0.75,0.63-1.2,1.05s-0.86,0.71-1.27,0.93c-0.3,0.19-0.6,0.37-0.9,0.56
		c-0.34,0.22-0.6,0.45-0.86,0.67c-0.19,0.22-0.49,0.41-0.86,0.6c-0.41,0.19-0.75,0.41-1.01,0.6c-0.04,0.04-0.11,0.07-0.15,0.11
		c-0.08,0.04-0.11,0.07-0.11,0.15c0,0.19,0.26,0.37,0.78,0.63c0.49,0.26,1.08,0.49,1.75,0.75c0.63,0.26,1.27,0.49,1.9,0.67
		c0.6,0.22,1.01,0.37,1.19,0.45c0.19,0.11,0.45,0.15,0.71,0.11c0.26,0,0.49,0.04,0.71,0.15c0.11,0.04,0.3,0.07,0.56,0.11
		c0.26,0.04,0.49,0.11,0.75,0.15c0.26,0.04,0.49,0.11,0.67,0.15c0.19,0.07,0.3,0.15,0.3,0.26c0,0.11-0.07,0.34-0.22,0.6
		s-0.3,0.52-0.49,0.82c-0.19,0.26-0.41,0.52-0.6,0.75c-0.22,0.19-0.37,0.3-0.49,0.3c-0.07,0-0.15,0-0.22,0
		c-0.08-0.04-0.15,0-0.19,0.04c-0.26-0.11-0.56-0.22-0.86-0.34c-0.3-0.11-0.6-0.19-0.86-0.26c-0.08-0.04-0.15-0.04-0.22-0.04
		c-0.11,0-0.19-0.04-0.22-0.07c-0.19,0-0.41-0.04-0.67-0.15c-0.26-0.11-0.52-0.22-0.71-0.26c-0.41-0.11-0.82-0.26-1.19-0.41
		c-0.37-0.15-0.78-0.3-1.2-0.49c-0.11-0.07-0.26-0.15-0.41-0.22c-0.15-0.11-0.3-0.19-0.45-0.26c-0.22-0.11-0.45-0.22-0.71-0.34
		c-0.26-0.11-0.49-0.22-0.67-0.34c-0.34-0.19-0.63-0.41-0.93-0.63c-0.3-0.19-0.6-0.41-0.93-0.6c-0.26-0.19-0.63-0.49-1.05-0.9
		c-0.45-0.41-0.82-0.71-1.08-0.93c-0.56-0.52-1.12-1.08-1.64-1.64c-0.19-0.19-0.34-0.45-0.49-0.71c-0.19-0.37-0.45-0.78-0.71-1.19
		c-0.26-0.41-0.56-0.75-0.82-1.08c-0.04-0.04-0.04-0.07-0.07-0.11c-0.04-0.04-0.11-0.04-0.15-0.04c-0.52,0-1.05,0-1.53,0.04
		c-0.52,0.04-1.04,0.04-1.57,0.04c-0.26,0-0.52,0-0.78-0.04c-0.26-0.04-0.56-0.04-0.82-0.04c-0.19,0-0.34,0.04-0.37,0.11
		c-0.08,0.07-0.11,0.22-0.11,0.41s0,0.34,0.04,0.49c0.04,0.19,0.04,0.34,0.04,0.52c0,0.11,0,0.22-0.04,0.34
		c-0.04,0.11-0.04,0.22-0.04,0.34c0,0.26,0,0.56,0.04,0.82c0.04,0.26,0.04,0.56,0.04,0.82c0,0.07,0,0.15-0.04,0.22
		c-0.04,0.07-0.04,0.15-0.04,0.22c0,0.11,0,0.22,0.04,0.3c0.04,0.07,0.04,0.19,0.04,0.3s0,0.19-0.04,0.26
		c-0.04,0.07-0.04,0.15-0.04,0.22c0,0.34,0.04,0.71,0.08,1.05c0.04,0.34,0.04,0.71,0,1.08c0.26-0.04,0.52-0.11,0.78-0.15
		c0.22-0.04,0.49-0.11,0.75-0.15c0.34-0.04,0.63-0.11,0.97-0.22c0.3-0.11,0.6-0.15,0.93-0.15c0.22,0,0.45-0.04,0.67-0.11
		c0.19-0.07,0.41-0.11,0.63-0.11c0.11-0.04,0.15-0.07,0.19-0.07c0.04-0.04,0.19-0.04,0.41-0.07c0.22,0,0.37,0,0.45-0.04
		c0.37-0.07,0.78-0.19,1.2-0.34c0.41-0.11,0.78-0.19,1.16-0.22c0.11,0,0.22-0.04,0.34-0.07c0.07-0.04,0.19-0.07,0.3-0.07
		c0.07,0,0.15,0.07,0.19,0.19c0.04,0.15,0.11,0.3,0.15,0.49c0.04,0.19,0.04,0.34,0.07,0.52c0.04,0.19,0.04,0.3,0.04,0.34v0.15
		c-0.04,0.04-0.04,0.11-0.04,0.22c-0.04,0.04-0.04,0.07-0.04,0.11c0,0.04,0,0.07-0.04,0.11c-0.04,0.11-0.08,0.15-0.19,0.19
		c-0.19,0.04-0.41,0.11-0.63,0.19c-0.22,0.07-0.45,0.15-0.67,0.19c-0.22,0.04-0.45,0.11-0.67,0.15c-0.22,0.04-0.45,0.11-0.67,0.15
		c-0.07,0.04-0.37,0.15-0.86,0.3c-0.49,0.11-1.05,0.26-1.64,0.41c-0.6,0.11-1.16,0.26-1.68,0.37c-0.56,0.11-0.9,0.19-1.05,0.22
		c-0.11,0.04-0.22,0.04-0.34,0.04s-0.22,0.04-0.34,0.07c-0.71,0.26-1.38,0.41-2.05,0.49c-0.3,0.04-0.6,0.11-0.86,0.22
		c-0.3,0.07-0.6,0.15-0.93,0.19c-0.04,0.04-0.15,0.04-0.26,0.07c-0.15,0-0.26-0.04-0.3-0.07c-0.26,0.07-0.52,0.15-0.75,0.22
		c-0.26,0.07-0.52,0.11-0.78,0.11c-0.04,0.04-0.15,0.04-0.26,0.04c-0.19,0-0.37-0.07-0.56-0.26c-0.19-0.19-0.34-0.41-0.45-0.67
		c-0.15-0.26-0.26-0.52-0.34-0.78c-0.11-0.26-0.15-0.49-0.15-0.63c0-0.07,0-0.15,0.04-0.22s0.07-0.11,0.19-0.15
		c0.26-0.11,0.6-0.15,0.93-0.19s0.67-0.04,0.97-0.07c0.11,0,0.34-0.04,0.6-0.11s0.41-0.07,0.52-0.04h0.11
		c0.19,0,0.34-0.04,0.52-0.11c0.15-0.07,0.3-0.11,0.49-0.11C171.79,42.67,171.82,42.45,171.86,42.22z M188.55,24.83
		c-0.26-0.04-0.52-0.07-0.82-0.11c-0.34-0.04-0.63-0.04-0.93-0.04s-0.49,0-0.56,0c-0.26,0-0.56,0-0.82,0.04
		c-0.26,0.04-0.56,0.04-0.82,0.04c-0.26,0-0.56,0-0.82-0.04c-0.26-0.04-0.56-0.04-0.82-0.04c-0.11,0-0.22,0-0.3,0.04
		c-0.08,0.04-0.19,0.04-0.3,0.04h-3.44c-0.19,0-0.34,0-0.49-0.04c-0.15-0.04-0.3-0.04-0.45-0.04c-0.11,0-0.22,0-0.34,0.04
		c-0.11,0.04-0.26,0.04-0.37,0.04h-1.61c0,0-0.04,0-0.15,0s-0.26,0-0.37,0c-0.11,0.04-0.22,0.04-0.34,0.07
		c-0.11,0.04-0.15,0.07-0.15,0.11c-0.04,0.04-0.04,0.04-0.04,0.07c0,0.11,0,0.19,0.04,0.26c0,0.07,0,0.15,0,0.26
		c0.04,0.04,0.04,0.15,0.04,0.3c0,0.11,0,0.19-0.04,0.26c-0.04,0.11-0.04,0.19-0.04,0.3c0,0.07,0,0.15,0.04,0.19
		c0,0.07,0,0.15,0,0.22c0,0.26,0,0.41,0.04,0.52c0,0.11,0.15,0.15,0.41,0.15c0.26,0,0.56-0.04,0.82-0.07
		c0.26-0.04,0.56-0.04,0.82-0.04c0.49,0,0.93,0,1.42,0.04c0.49,0.04,0.93,0.07,1.42,0.07c0.08,0,0.15,0,0.22-0.04
		c0.07-0.04,0.15-0.04,0.26-0.04c0.11,0,0.22,0,0.34,0.04c0.07,0.04,0.19,0.04,0.3,0.04c0.26,0,0.56-0.04,0.82-0.07
		c0.26-0.04,0.56-0.04,0.82-0.04c0.63,0,1.31,0,1.94,0.04c0.63,0.04,1.31,0.04,1.94,0.04c0.41,0,0.86,0,1.31-0.04
		c0.45-0.04,0.9-0.04,1.31-0.04c0.04,0,0.04,0,0.07-0.04c0,0,0,0,0.04,0c0.04-0.11,0.04-0.26,0.04-0.45c0-0.19,0-0.37-0.04-0.56
		c-0.04-0.19-0.07-0.37-0.07-0.56c0-0.11,0-0.22,0.04-0.34c0-0.07,0-0.15,0-0.26C188.92,25.01,188.81,24.9,188.55,24.83z
		 M187.58,29.68c-0.04,0-0.04,0-0.08,0c-0.04,0.04-0.07,0.04-0.11,0.04c-0.19,0-0.41-0.04-0.6-0.07c-0.19-0.04-0.41-0.04-0.6-0.04
		s-0.37,0-0.52,0.04c-0.19,0.04-0.37,0.07-0.56,0.07c-0.56,0-1.16,0-1.72-0.04c-0.56-0.04-1.16-0.04-1.72-0.04
		c-0.08,0-0.15,0-0.22,0c-0.11,0.04-0.19,0.04-0.26,0.04h-0.26c-0.04-0.04-0.26-0.04-0.63-0.07c-0.41,0-0.82,0-1.31-0.04
		c-0.49,0-0.97,0-1.38,0c-0.45,0-0.71,0-0.82,0s-0.19,0-0.26,0.04c-0.07,0.04-0.15,0.07-0.26,0.07c-0.56,0-0.97,0.04-1.23,0.15
		c-0.26,0.11-0.41,0.49-0.41,1.16c0,0.19,0,0.41,0.04,0.6c0,0.19,0,0.41,0,0.6c0,0.04,0.04,0.07,0.08,0.19
		c0.04,0.11,0.07,0.19,0.11,0.15h0.11c0.11,0,0.26,0,0.37,0.04c0.11,0.04,0.26,0.04,0.37,0.04h1.72c0.11,0,0.19-0.04,0.26-0.07
		c0.08-0.04,0.15-0.04,0.22-0.04h2.2c0.11,0,0.19,0,0.3,0.04c0.07,0.04,0.19,0.07,0.3,0.07c0.19,0,0.37-0.04,0.56-0.07
		c0.15-0.04,0.34-0.04,0.52-0.04s0.37,0,0.56,0.04c0.19,0.04,0.37,0.07,0.56,0.07c0.22,0,0.45,0,0.67-0.04
		c0.19-0.04,0.41-0.04,0.63-0.04c0.15,0,0.3,0,0.45,0.04c0.15,0.04,0.3,0.07,0.45,0.07c0.19,0,0.34,0,0.52-0.04c0.15,0,0.3,0,0.49,0
		c0.3,0,0.63,0,0.97-0.04c0.34,0,0.63-0.04,0.93-0.15c0.26-0.07,0.49-0.22,0.67-0.45c0.19-0.19,0.26-0.52,0.26-0.93
		c0-0.49-0.04-0.86-0.15-1.08c-0.11-0.19-0.45-0.3-1.01-0.3C187.69,29.64,187.62,29.64,187.58,29.68z M180.45,22.17
		c-0.04-0.04-0.04-0.11-0.04-0.15c0-0.19,0.04-0.37,0.07-0.56c0.04-0.15,0.04-0.34,0.04-0.52c0-0.3,0-0.6,0-0.93
		c-0.04-0.3-0.04-0.6-0.04-0.9c0-0.19,0.15-0.26,0.49-0.3c0.3-0.04,0.49-0.04,0.6-0.04c0.78,0,1.27,0.19,1.42,0.6
		s0.22,0.97,0.22,1.64v1.01c0,0.15,0.04,0.22,0.08,0.26c0.04,0.04,0.11,0.07,0.22,0.07c0.04-0.04,0.11-0.04,0.19-0.04
		c0.26,0,0.56,0,0.82,0.04c0.26,0.04,0.56,0.07,0.82,0.07c0.11,0,0.19,0,0.26-0.04c0.08-0.04,0.15-0.04,0.26-0.04
		c0.15,0,0.3,0,0.45,0.04c0.15,0.04,0.3,0.04,0.45,0.04c0.11,0,0.26-0.04,0.37-0.07c0.11-0.04,0.26-0.04,0.37-0.04
		c0.37,0,0.75,0,1.12,0.04c0.37,0.04,0.75,0.04,1.12,0.04c0.04,0,0.11,0,0.19,0c0.04,0.04,0.11,0.04,0.15,0
		c-0.04-0.11-0.19-0.19-0.37-0.3c-0.22-0.11-0.41-0.19-0.52-0.26c-0.11-0.11-0.26-0.22-0.37-0.34c-0.11-0.11-0.26-0.19-0.37-0.3
		c-0.15-0.11-0.3-0.22-0.45-0.34c-0.15-0.11-0.3-0.19-0.45-0.3c-0.63-0.49-1.23-0.97-1.79-1.53c-0.56-0.56-1.16-1.08-1.72-1.64
		c-0.11-0.07-0.26-0.22-0.49-0.49c-0.22-0.26-0.45-0.52-0.67-0.78c-0.26-0.26-0.49-0.49-0.67-0.71c-0.22-0.19-0.37-0.3-0.45-0.3
		s-0.15,0.07-0.26,0.19c-0.11,0.15-0.26,0.3-0.37,0.49s-0.26,0.34-0.37,0.49c-0.11,0.19-0.22,0.3-0.3,0.37
		c-0.26,0.19-0.49,0.49-0.75,0.82c-0.26,0.37-0.52,0.71-0.71,0.97c-0.41,0.45-0.82,0.86-1.23,1.23c-0.41,0.41-0.86,0.82-1.27,1.23
		c-0.04,0.04-0.11,0.11-0.15,0.19c-0.07,0.07-0.15,0.15-0.19,0.19c-0.04,0.04-0.15,0.11-0.26,0.19c-0.11,0.07-0.26,0.15-0.37,0.22
		c-0.11,0.11-0.22,0.19-0.34,0.3c-0.11,0.11-0.15,0.22-0.15,0.3c0.11,0.07,0.3,0.11,0.56,0.11c0.26,0.04,0.45,0.04,0.6,0.04
		c0.11,0,0.19,0,0.3-0.04c0.07-0.04,0.15-0.04,0.26-0.04h3.73C180.49,22.32,180.49,22.25,180.45,22.17z M191.05,34.94
		c-0.11,0-0.26,0-0.37-0.04c-0.15-0.04-0.3-0.04-0.41-0.04c-0.52,0-1.04,0-1.53,0.04c-0.52,0.04-1.05,0.04-1.57,0.04h-3.32
		c-0.11,0-0.19,0-0.22-0.04c-0.08-0.04-0.15-0.04-0.26-0.04c-0.19,0-0.34,0-0.45,0.04c0.04,0.07,0.11,0.19,0.26,0.34
		c0.11,0.11,0.19,0.26,0.26,0.37c0.07,0.11,0.19,0.26,0.3,0.37c0.11,0.11,0.26,0.3,0.52,0.56c0.22,0.26,0.49,0.56,0.78,0.82
		c0.26,0.3,0.56,0.56,0.82,0.78c0.26,0.22,0.45,0.37,0.56,0.41c0.22-0.11,0.49-0.26,0.78-0.45c0.26-0.19,0.56-0.41,0.86-0.63
		c0.3-0.22,0.6-0.45,0.9-0.67c0.26-0.22,0.52-0.41,0.78-0.56c0.11-0.07,0.26-0.19,0.37-0.34c0.11-0.15,0.26-0.3,0.37-0.41
		c0.04,0,0.19-0.07,0.37-0.26c0.19-0.15,0.34-0.26,0.37-0.3H191.05z"/>
	<path class="st1" d="M217.34,23.56c-0.15,0-0.37,0.07-0.63,0.19c-0.26,0.15-0.56,0.3-0.86,0.49s-0.56,0.41-0.82,0.6
		c-0.26,0.19-0.41,0.34-0.49,0.45c-0.11,0.11-0.22,0.26-0.3,0.37c-0.08,0.11-0.19,0.26-0.3,0.37c-0.19,0.19-0.41,0.37-0.63,0.49
		c-0.22,0.11-0.41,0.26-0.6,0.45c-0.11,0.11-0.22,0.22-0.34,0.34c-0.11,0.11-0.26,0.22-0.37,0.34c-0.41,0.26-0.82,0.52-1.16,0.75
		c-0.37,0.22-0.78,0.41-1.23,0.6c-0.11,0.04-0.3,0.11-0.56,0.22c-0.26,0.11-0.45,0.15-0.56,0.15c-0.26,0-0.6,0-0.97-0.04
		c-0.37,0-0.75-0.04-1.08-0.15c-0.34-0.07-0.63-0.22-0.9-0.41c-0.26-0.19-0.37-0.49-0.37-0.82c0-0.37,0.11-0.75,0.34-1.12
		c0.22-0.37,0.56-0.56,0.97-0.56c0.26,0,0.52,0.04,0.78,0.11c0.22,0.07,0.49,0.11,0.75,0.11c0.26,0,0.56-0.04,0.93-0.15
		c0.37-0.11,0.67-0.22,0.86-0.34s0.37-0.3,0.52-0.49c0.11-0.19,0.26-0.34,0.45-0.49c0.34-0.3,0.71-0.6,1.05-0.93
		c0.34-0.3,0.63-0.6,0.97-0.93c0.11-0.11,0.26-0.22,0.37-0.26c0.11-0.04,0.22-0.11,0.26-0.19c0.11-0.11,0.22-0.22,0.34-0.34
		c0.07-0.11,0.19-0.22,0.3-0.34c0.19-0.19,0.41-0.34,0.75-0.49c0.3-0.11,0.63-0.22,0.97-0.34c0.34-0.11,0.67-0.19,1.01-0.22
		c0.34-0.04,0.6-0.07,0.82-0.07c1.23,0,2.28,0.22,3.14,0.67c0.82,0.45,1.61,1.16,2.39,2.09c0.19,0.26,0.37,0.49,0.52,0.75
		c0.11,0.26,0.3,0.49,0.49,0.75c0.15,0.22,0.34,0.45,0.52,0.67s0.37,0.41,0.56,0.6c0.19,0.15,0.37,0.34,0.52,0.52
		c0.19,0.26,0.41,0.56,0.6,0.82c0.19,0.3,0.37,0.56,0.6,0.82c0.34,0.34,0.67,0.67,1.05,0.93c0.37,0.3,0.75,0.6,1.08,0.9
		c0.41,0.37,0.86,0.71,1.27,1.05c0.41,0.34,0.86,0.63,1.34,0.93c0.19,0.11,0.37,0.19,0.56,0.19c0.19,0.04,0.41,0.07,0.6,0.19
		c0.45,0.22,0.97,0.41,1.57,0.52c0.56,0.11,1.12,0.22,1.61,0.26c0.26,0.04,0.56,0.07,0.82,0.11c0.26,0.04,0.56,0.07,0.82,0.07
		c0.11,0,0.22,0,0.34-0.04c0.07,0,0.19,0,0.3,0c0.07,0,0.15,0,0.26,0c0.08,0,0.15,0.04,0.19,0.11c0.11,0.07,0.19,0.26,0.19,0.56
		c-0.04,0.3-0.04,0.52,0,0.63c0.04,0.04,0.04,0.11,0.07,0.15c0.04,0.07,0.04,0.15,0.04,0.19c0,0.11-0.04,0.22-0.07,0.34
		c-0.04,0.11-0.11,0.26-0.15,0.37c-0.19,0.45-0.45,0.67-0.75,0.71c-0.3,0.04-0.67,0.07-1.08,0.07c-0.34,0-0.67-0.07-1.01-0.22
		c-0.34-0.11-0.63-0.19-0.86-0.19c-0.04,0.04-0.11,0.07-0.22,0.04c-0.11,0-0.19,0-0.22,0c-0.07,0-0.22-0.04-0.49-0.11
		c-0.26-0.04-0.56-0.11-0.86-0.19c-0.3-0.07-0.56-0.15-0.82-0.22c-0.26-0.07-0.45-0.11-0.52-0.15c-0.11-0.04-0.26-0.11-0.37-0.22
		c-0.11-0.11-0.26-0.19-0.41-0.22c-0.19-0.04-0.41-0.11-0.71-0.22c-0.34-0.07-0.52-0.19-0.63-0.34c-0.26-0.15-0.49-0.3-0.75-0.41
		c-0.26-0.11-0.49-0.26-0.71-0.45c-0.49-0.34-0.93-0.71-1.34-1.08c-0.45-0.37-0.9-0.78-1.31-1.19c-0.11-0.11-0.19-0.22-0.26-0.34
		c-0.07-0.11-0.15-0.19-0.26-0.3c-0.63-0.63-1.23-1.38-1.83-2.24c-0.07-0.11-0.11-0.22-0.15-0.34c-0.04-0.11-0.07-0.22-0.19-0.34
		c-0.19-0.26-0.49-0.63-0.82-1.12c-0.34-0.45-0.71-0.9-1.08-1.38c-0.41-0.45-0.78-0.86-1.19-1.23c-0.41-0.34-0.75-0.56-1.05-0.67
		c-0.37-0.11-0.75-0.15-1.12-0.15H217.34z M231.76,23.44c-0.11,0.07-0.22,0.11-0.34,0.11c-0.11,0.04-0.26,0.04-0.41,0
		c-0.15,0-0.26,0-0.37,0c-0.11,0-0.22,0-0.34,0.04c-0.11,0.04-0.22,0.04-0.34,0.04c-0.07,0-0.11-0.07-0.15-0.22
		c-0.04-0.11-0.08-0.26-0.08-0.45c-0.04-0.15-0.04-0.3-0.04-0.45c-0.04-0.15-0.04-0.26-0.04-0.3c-0.04-0.04-0.04-0.15-0.04-0.26
		c0-0.34,0.04-0.71,0.08-1.08c0.04-0.34,0.07-0.71,0.07-1.05V18.7c0-0.07,0-0.15-0.04-0.19c0-0.07,0-0.15,0-0.22
		c-0.04-0.04-0.04-0.11-0.04-0.19c0-0.15,0.04-0.3,0.07-0.49c0.04-0.19,0.15-0.26,0.34-0.26c0.04,0,0.15,0,0.34,0
		c0.15,0.04,0.26,0.04,0.3,0.07c0.08,0,0.19,0,0.37,0c0.19,0.04,0.3,0,0.37-0.04c0.04,0,0.11,0,0.22,0
		c0.08,0.04,0.11,0.07,0.11,0.19c0,0.04,0,0.11-0.04,0.19s-0.04,0.15-0.04,0.19c-0.04,0.04-0.04,0.07-0.04,0.19
		c0,0.26,0.04,0.52,0.11,0.78c0.04,0.26,0.08,0.52,0.08,0.78c0,0.34-0.04,0.67-0.08,0.97c-0.04,0.34-0.07,0.67-0.07,1.01
		c0,0.22,0.04,0.45,0.07,0.63s0.08,0.45,0.08,0.78C231.91,23.26,231.87,23.37,231.76,23.44z M234.41,23.63c-0.04,0-0.07,0-0.11-0.04
		c-0.04,0-0.08-0.04-0.08-0.11c0-0.04,0-0.11,0-0.15v-0.07c0-0.11,0-0.26,0.04-0.41c0.04-0.15,0.04-0.3,0.04-0.41
		c0-0.3-0.04-0.6-0.08-0.9s-0.07-0.6-0.07-0.9c0-0.19,0.04-0.41,0.07-0.6c0.04-0.19,0.08-0.37,0.08-0.56v-1.49
		c0-0.26,0.07-0.41,0.22-0.49c0.15-0.04,0.34-0.07,0.52-0.07h1.05c0.19,0,0.3,0.04,0.26,0.11c-0.04,0.11-0.04,0.22-0.04,0.34
		c0,0.26,0.04,0.49,0.08,0.71s0.04,0.45,0.04,0.71c0,0.11,0,0.26,0,0.37c-0.04,0.15-0.04,0.3-0.04,0.41s0.04,0.22,0.07,0.3
		c0.04,0.11,0.04,0.22,0.04,0.34c0,0.15,0,0.3-0.04,0.41c-0.04,0.15-0.04,0.3-0.04,0.45c0,0.19,0,0.41,0.04,0.63
		c0,0.22,0,0.45,0,0.63v0.34c0,0.07-0.04,0.15-0.15,0.19c-0.11,0.04-0.26,0.07-0.37,0.11c-0.15,0.04-0.3,0.07-0.41,0.11
		c-0.15,0.04-0.26,0.04-0.3,0.04h-0.71C234.48,23.63,234.44,23.63,234.41,23.63z"/>
</g>
<g>
	<g>
		<path class="st2" d="M41.33,55.14c-0.26-0.36-0.78-1.54-1.25-1.58c-1.1-0.09-1.2-1.66-0.3-1.87c-0.01-0.03-0.03-0.05-0.03-0.08
			c0-0.08,0.04-0.11,0.11-0.15c0.04-0.04,0.11-0.08,0.15-0.11c0.26-0.19,0.6-0.41,1.02-0.6c0.38-0.19,0.68-0.38,0.87-0.6
			c0.26-0.23,0.53-0.45,0.87-0.68l0.9-0.57c0.42-0.23,0.83-0.53,1.28-0.94c0.45-0.42,0.87-0.75,1.21-1.06
			c0.08-0.04,0.15-0.11,0.26-0.19c0.11-0.04,0.15-0.15,0.15-0.26c0-0.11-0.08-0.26-0.26-0.45c-0.19-0.19-0.42-0.41-0.68-0.6
			c-0.26-0.19-0.49-0.38-0.72-0.53c-0.26-0.11-0.42-0.19-0.53-0.19c-0.11,0.04-0.23,0.15-0.38,0.26l-0.45,0.45
			c-0.15,0.15-0.3,0.26-0.41,0.38c-0.11,0.11-0.23,0.19-0.26,0.19c-0.08-0.08-0.11-0.23-0.11-0.41v-0.45c0-0.26,0-0.53,0.04-0.79
			c0.04-0.23,0.04-0.49,0.04-0.75c0-0.26,0-0.49-0.04-0.75c-0.04-0.23-0.04-0.45-0.04-0.72v-0.79c-0.04-0.34,0-0.57,0.04-0.68
			c0.04-0.04,0.04-0.11,0.08-0.15v-0.11c0-0.34,0-0.72-0.04-1.09c-0.04-0.38-0.08-0.75-0.08-1.09c0-0.11,0.04-0.23,0.08-0.34
			c0.04-0.08,0.04-0.15,0.04-0.26c0-0.34,0-0.72-0.04-1.06c-0.04-0.34-0.08-0.72-0.08-1.06c0-0.11,0.04-0.26,0.08-0.42
			c0.04,0.02,0.09,0.05,0.16,0.08c-0.58-0.92-0.4-1.97-0.24-3.35c0.01,0,0.01,0,0.02,0c0-0.04,0.01-0.08,0.01-0.12
			c-0.35-0.27-0.71-0.52-1.05-0.76c-0.11-0.04-0.23-0.11-0.38-0.23c-0.15-0.08-0.26-0.15-0.3-0.23c-0.11-0.04-0.23-0.15-0.34-0.3
			c-0.15-0.11-0.3-0.23-0.42-0.3c-0.79-0.57-1.58-1.21-2.34-1.92c-0.75-0.72-1.47-1.47-2.11-2.19c-0.15-0.15-0.3-0.3-0.41-0.45
			s-0.26-0.3-0.42-0.45c-0.11-0.11-0.23-0.26-0.34-0.45c-0.11-0.15-0.23-0.3-0.34-0.41s-0.3-0.23-0.57-0.26
			c-0.26-0.04-0.49-0.04-0.68-0.04h-0.68c-0.05,0.01-0.1,0.01-0.14,0.01c-0.23-0.06-0.45-0.1-0.69-0.13c0-0.09-0.01-0.19-0.02-0.32
			c-0.08-0.34-0.15-0.68-0.23-1.09c-0.11-0.41-0.19-0.79-0.3-1.17c-0.11-0.34-0.23-0.6-0.26-0.72c-0.04-0.08-0.11-0.19-0.23-0.34
			c-0.11-0.11-0.15-0.23-0.15-0.3c0-0.34,0-0.72,0.04-1.06c0.04-0.34,0.04-0.72,0.04-1.06c0-0.26,0.04-0.49,0.08-0.72
			c0.04-0.23,0.08-0.45,0.08-0.72c0-0.11-0.04-0.3-0.15-0.57c0.04-0.11,0.04-0.3,0.08-0.53c0.04-0.23,0.11-0.38,0.23-0.42
			c0.04,0,0.23,0,0.6-0.04c0.34,0,0.75,0,1.21-0.04h1.96c0.19,0,0.38,0,0.57,0.04c0.15,0.04,0.34,0.08,0.53,0.08
			c0.38,0,0.75,0,1.09-0.04c0.34-0.04,0.72-0.04,1.09-0.04h0.98c0.3,0.04,0.6,0.04,0.94,0.04c0.19,0,0.38,0,0.57-0.04
			c0.19-0.04,0.38-0.04,0.57-0.04s0.42,0,0.6,0.04c0.19,0.04,0.38,0.04,0.57,0.04c0.26,0,0.57,0,0.87-0.04
			c0.26-0.04,0.41-0.23,0.41-0.6v-0.34c-0.04-0.11-0.04-0.23-0.04-0.34c0-0.11,0-0.26,0.04-0.41v-0.45
			c-0.04-0.11-0.08-0.23-0.11-0.34c-0.08-0.08-0.19-0.11-0.34-0.11h-0.42c-0.15,0.04-0.3,0.04-0.45,0.04
			c-0.26,0-0.49-0.04-0.68-0.08c-0.23-0.04-0.45-0.04-0.68-0.04c-0.04-0.04-0.15-0.04-0.26-0.04s-0.26,0.04-0.38,0.08
			c-0.11,0.04-0.26,0.08-0.38,0.08c-0.11,0-0.23,0-0.34-0.04c-0.11-0.04-0.23-0.04-0.34-0.04h-1.02c-0.19,0-0.34,0-0.49,0.04
			c-0.15,0.04-0.3,0.04-0.45,0.04c-0.23,0-0.45-0.04-0.64-0.11c-0.19-0.04-0.41-0.08-0.64-0.08c-0.19,0-0.41,0.04-0.64,0.08
			c-0.23,0.04-0.45,0.08-0.64,0.08h-2.26c-0.72,0-1.17-0.11-1.43-0.3c-0.26-0.19-0.38-0.64-0.38-1.36V9.7
			c0-0.19,0.04-0.38,0.11-0.57c0.04-0.15,0.08-0.34,0.08-0.53c0-0.34,0-0.68-0.04-1.02c-0.04-0.3-0.04-0.64-0.04-0.98
			c0-0.19,0-0.41,0.04-0.6c0.04-0.19,0.04-0.38,0.04-0.57c0-0.19-0.04-0.34-0.11-0.42c-0.08-0.04-0.23-0.08-0.42-0.08h-0.57
			c-0.19,0.04-0.38,0.04-0.57,0.04c-0.49,0-0.79,0.04-0.94,0.08c-0.15,0.04-0.23,0.34-0.23,0.83c0,0.15,0,0.3,0.04,0.45V6.8
			c0,0.26,0,0.49-0.04,0.72c-0.04,0.23-0.08,0.45-0.08,0.72c0,0.34,0.04,0.64,0.11,0.94c0.08,0.3,0.11,0.6,0.11,0.94
			c0,0.11-0.04,0.23-0.08,0.34c-0.08,0.15-0.11,0.38-0.11,0.64c0,0.23-0.04,0.41-0.15,0.53c-0.19,0.11-0.38,0.15-0.6,0.15
			c-0.26,0.04-0.49,0.04-0.75,0.04c-0.26,0.04-0.49,0.08-0.75,0.11C25.29,11.96,25.17,12,25.06,12c-0.34,0-0.64-0.04-0.83-0.11
			c-0.23-0.04-0.45-0.08-0.68-0.08h-2c-0.11,0-0.19,0-0.26,0.04c-0.11,0.04-0.19,0.04-0.3,0.04c-0.15,0-0.3,0-0.42-0.04h-0.45
			c-0.15,0-0.3,0-0.41,0.04c-0.11,0.04-0.26,0.04-0.42,0.04c-0.15,0-0.3-0.04-0.45-0.08c-0.15-0.04-0.3-0.08-0.49-0.08
			c-0.3,0-0.6,0-0.91,0.04c-0.3,0.04-0.6,0.08-0.9,0.08h-4.87c-0.08,0-0.19,0-0.34-0.04h-0.45c-0.19,0-0.34,0-0.45,0.04
			c-0.11,0.04-0.19,0.11-0.23,0.19c-0.04,0.08-0.04,0.19-0.04,0.34c0,0.19,0.04,0.41,0.11,0.6c0.04,0.23,0.08,0.45,0.08,0.64
			c0,0.08,0,0.15-0.04,0.19c0,0.04,0,0.11-0.04,0.15c-0.04,0.08-0.04,0.15-0.04,0.19c0,0.19,0.15,0.26,0.45,0.3
			c0.26,0.04,0.49,0.04,0.6,0.04c0.19,0,0.42,0,0.64-0.04h0.64c0.26,0,0.49,0,0.75,0.04c0.23,0.04,0.45,0.04,0.72,0.04
			c0.11,0,0.19,0,0.26-0.04c0.04-0.04,0.11-0.04,0.23-0.04h0.3c0.15,0.04,0.3,0.04,0.49,0.04h0.45c0.11,0,0.23,0,0.26-0.04h0.23
			c0.19,0,0.34,0,0.53,0.04c0.15,0.04,0.3,0.04,0.49,0.04c0.15,0,0.3,0,0.45-0.04c0.11,0,0.26,0,0.41-0.04
			c0.53-0.08,1.09-0.11,1.66-0.08c0.57,0.04,1.09,0.04,1.62,0.04h2.49c0.79,0.04,1.62,0.04,2.45,0.04c0.11,0,0.23,0,0.34-0.04
			c0.11-0.04,0.23-0.04,0.34-0.04c0.3,0,0.49,0.04,0.57,0.11c0.08,0.08,0.11,0.26,0.11,0.53c0,0.34,0,0.68-0.04,1.02
			c-0.04,0.34-0.08,0.72-0.08,1.06v0.26c0.04,0.04,0.04,0.08,0.04,0.11c0,0.04,0,0.08,0.04,0.11v0.11c0,0.11-0.04,0.19-0.15,0.23
			C27.44,18,27.36,18,27.25,18c-0.19,0-0.34,0-0.49-0.04c-0.15-0.04-0.3-0.04-0.49-0.04h-0.45c-0.15,0-0.3,0.04-0.42,0.08
			c-0.19,0.08-0.38,0.15-0.57,0.19c-0.19,0.08-0.34,0.19-0.53,0.3c-0.49,0.34-0.98,0.72-1.47,1.17c-0.49,0.49-0.87,0.98-1.09,1.51
			c-0.11,0.3-0.23,0.64-0.3,1.06c-0.08,0.42-0.11,0.75-0.11,1.09v0.72c0,0.26,0.04,0.49,0.08,0.68c0.11,0.72,0.42,1.4,0.83,2.04
			c0.41,0.64,0.94,1.13,1.62,1.4c0.15,0.04,0.3,0.11,0.45,0.19c0.15,0.11,0.3,0.15,0.49,0.15c0.19,0,0.34-0.08,0.53-0.19
			c0.15-0.11,0.26-0.3,0.38-0.49c0.11-0.19,0.19-0.38,0.26-0.6c0.04-0.19,0.08-0.38,0.08-0.53c0-0.26-0.08-0.45-0.26-0.6
			c-0.19-0.11-0.41-0.26-0.64-0.45c-0.23-0.19-0.41-0.38-0.6-0.64c-0.19-0.23-0.3-0.57-0.3-0.98c0-0.34,0.04-0.68,0.11-1.09
			c0.08-0.42,0.19-0.79,0.38-1.13c0.19-0.34,0.41-0.6,0.68-0.87c0.26-0.23,0.64-0.34,1.06-0.34c0.34,0,0.64,0.08,0.94,0.23
			c0.26,0.19,0.53,0.38,0.75,0.64c0.19,0.26,0.38,0.53,0.49,0.83c0.11,0.34,0.19,0.64,0.19,0.94c0,0.11,0,0.23-0.04,0.34
			c-0.04,0.11-0.04,0.23-0.04,0.34c-0.04,0.04-0.04,0.15-0.04,0.26s0.04,0.23,0.08,0.34c0.04,0.11,0.04,0.26,0.04,0.41
			c0,0.26-0.04,0.53-0.08,0.83c-0.08,0.3-0.15,0.57-0.26,0.83c-0.08,0.23-0.19,0.53-0.34,0.87c-0.19,0.38-0.34,0.75-0.53,1.13
			c-0.19,0.38-0.34,0.72-0.53,1.06s-0.38,0.6-0.53,0.75l-1.58,1.58c-0.11,0.11-0.26,0.23-0.45,0.26c-0.19,0.08-0.34,0.19-0.49,0.3
			c-0.34,0.26-0.72,0.49-1.06,0.68c-0.34,0.19-0.72,0.38-1.13,0.57c-0.11,0.04-0.23,0.11-0.3,0.15c-0.11,0.04-0.23,0.11-0.34,0.15
			c-0.19,0.08-0.38,0.11-0.57,0.11s-0.34,0.04-0.53,0.15c-0.19,0.11-0.41,0.23-0.68,0.3c-0.26,0.08-0.53,0.11-0.79,0.11
			c-0.3,0-0.6,0.08-0.94,0.19c-0.04,0.04-0.19,0.08-0.38,0.11c-0.19,0.08-0.3,0.15-0.3,0.23c0,0.04,0.04,0.11,0.15,0.23
			c0.11,0.11,0.19,0.23,0.23,0.34c0.08,0.19,0.19,0.49,0.3,0.87c0.11,0.38,0.26,0.64,0.38,0.79c0.04,0.08,0.19,0.11,0.38,0.11
			c0.26,0,0.53-0.04,0.72-0.11c0.19-0.11,0.38-0.19,0.64-0.26c0.19-0.04,0.41-0.08,0.6-0.11c0.19-0.04,0.42-0.08,0.6-0.11
			c0.11-0.04,0.23-0.11,0.34-0.19c0.11-0.08,0.23-0.15,0.34-0.19c0.15-0.04,0.3-0.08,0.45-0.08c0.15-0.04,0.3-0.08,0.45-0.11
			c0.03-0.01,0.06-0.02,0.09-0.03c0.01,0.09,0.02,0.18,0.05,0.27c0,0.19,0,0.34,0.04,0.49v0.34c0,0.45,0,0.91-0.04,1.36
			c-0.04,0.45-0.08,0.9-0.08,1.36c0,0.11,0.04,0.26,0.08,0.38c0.04,0.15,0.04,0.3,0.04,0.45c0,0.6,0,1.21-0.04,1.81
			c-0.04,0.64-0.04,1.24-0.04,1.85c0,0.08,0,0.15,0.04,0.23c0.04,0.08,0.04,0.15,0.04,0.23v7.39c0,0.11,0,0.23-0.04,0.3
			c-0.04,0.11-0.04,0.23-0.04,0.34v0.72c-0.04,0.23-0.08,0.45-0.11,0.68c-0.19,0-0.34,0.04-0.49,0.11
			c-0.19,0.08-0.34,0.11-0.53,0.11h-0.11c-0.11-0.04-0.26-0.04-0.53,0.04c-0.03,0.01-0.05,0.01-0.07,0.02
			c0.05,0.11,0.09,0.23,0.1,0.35c0.12,0.07,0.24,0.16,0.33,0.3c0.35,0.54,0.84,0.86,1.41,1.03c0.74-0.01,1.47-0.04,2.21-0.09
			c0.1-0.07,0.19-0.13,0.29-0.2c0-0.07,0.01-0.13,0.02-0.2c0.13-0.63,0.25-1.26,0.38-1.89c0.01-0.05,0.04-0.09,0.06-0.13
			c-0.02,0-0.05,0.01-0.07,0.01c0.04-0.38,0.04-0.75,0-1.09c-0.04-0.34-0.08-0.72-0.08-1.06c0-0.08,0-0.15,0.04-0.23
			c0.04-0.08,0.04-0.15,0.04-0.26s0-0.23-0.04-0.3s-0.04-0.19-0.04-0.3c0-0.08,0-0.15,0.04-0.23c0.04-0.08,0.04-0.15,0.04-0.23
			c0-0.26,0-0.57-0.04-0.83c-0.04-0.26-0.04-0.57-0.04-0.83c0-0.11,0-0.23,0.04-0.34s0.04-0.23,0.04-0.34c0-0.19,0-0.34-0.04-0.53
			c-0.04-0.15-0.04-0.3-0.04-0.49c0-0.19,0.04-0.34,0.11-0.41c0.04-0.08,0.19-0.11,0.38-0.11c0.26,0,0.57,0,0.83,0.04
			c0.26,0.04,0.53,0.04,0.79,0.04c0.53,0,1.06,0,1.58-0.04c0.49-0.04,1.02-0.04,1.55-0.04c0.04,0,0.11,0,0.15,0.04
			c0.04,0.04,0.04,0.08,0.08,0.11c0.26,0.34,0.57,0.68,0.83,1.09c0.26,0.42,0.53,0.83,0.72,1.21c0.15,0.26,0.3,0.53,0.49,0.72
			c0.53,0.57,1.09,1.13,1.66,1.66c0.26,0.23,0.64,0.53,1.09,0.94c0.41,0.41,0.79,0.72,1.06,0.91c0.34,0.19,0.64,0.41,0.94,0.6
			c0.3,0.23,0.6,0.45,0.94,0.64c0.19,0.11,0.41,0.23,0.68,0.34c0.26,0.11,0.49,0.23,0.72,0.34c0.15,0.08,0.3,0.15,0.45,0.26
			c0.15,0.08,0.3,0.15,0.41,0.23c0.41,0.19,0.82,0.34,1.2,0.49C41.85,55.79,41.58,55.48,41.33,55.14z M27.78,33.42
			c0.19-0.19,0.38-0.41,0.53-0.6c0.15-0.19,0.3-0.38,0.49-0.6c0.15-0.23,0.38-0.53,0.64-0.87c0.11-0.11,0.23-0.26,0.34-0.38
			c0.11-0.11,0.19-0.23,0.26-0.34c0.15-0.26,0.34-0.64,0.53-1.09c0.19-0.45,0.34-0.94,0.49-1.47c0.15-0.49,0.3-0.98,0.42-1.47
			c0.01-0.05,0.02-0.09,0.03-0.14c0.5-0.01,0.99,0.05,1.46,0.23c0.06,0.05,0.12,0.09,0.2,0.15c0.19,0.23,0.41,0.45,0.68,0.72
			c0.23,0.26,0.45,0.53,0.68,0.79c0.23,0.26,0.38,0.42,0.49,0.49c0.57,0.57,1.17,1.09,1.73,1.66c0.57,0.57,1.17,1.06,1.81,1.55
			c0.15,0.11,0.3,0.19,0.45,0.3c0.15,0.11,0.3,0.23,0.45,0.34c0.11,0.11,0.26,0.19,0.38,0.3c0.11,0.11,0.26,0.23,0.38,0.34
			c0.11,0.08,0.3,0.15,0.53,0.26c0.19,0.11,0.34,0.19,0.38,0.3c-0.04,0.04-0.11,0.04-0.15,0h-0.19c-0.38,0-0.75,0-1.13-0.04
			c-0.38-0.04-0.75-0.04-1.13-0.04c-0.11,0-0.26,0-0.38,0.04c-0.11,0.04-0.26,0.08-0.38,0.08c-0.15,0-0.3,0-0.45-0.04
			c-0.15-0.04-0.3-0.04-0.45-0.04c-0.11,0-0.19,0-0.26,0.04s-0.15,0.04-0.26,0.04c-0.26,0-0.57-0.04-0.83-0.08
			c-0.26-0.04-0.57-0.04-0.83-0.04c-0.08,0-0.15,0-0.19,0.04c-0.11,0-0.19-0.04-0.23-0.08c-0.04-0.04-0.08-0.11-0.08-0.26V32.5
			c0-0.68-0.08-1.24-0.23-1.66c-0.15-0.41-0.64-0.6-1.43-0.6c-0.11,0-0.3,0-0.6,0.04c-0.34,0.04-0.49,0.11-0.49,0.3
			c0,0.3,0,0.6,0.04,0.91v0.94c0,0.19,0,0.38-0.04,0.53c-0.04,0.19-0.08,0.38-0.08,0.57c0,0.04,0,0.11,0.04,0.15
			c0.04,0.08,0.04,0.15,0.04,0.19h-3.77c-0.11,0-0.19,0-0.26,0.04c-0.1,0.03-0.17,0.04-0.26,0.04
			C27.39,33.74,27.61,33.56,27.78,33.42z M25.54,37.06V36.8c-0.04-0.08-0.04-0.15-0.04-0.26c0-0.04,0-0.04,0.04-0.08
			c0-0.04,0.04-0.08,0.15-0.11c0.11-0.04,0.23-0.04,0.34-0.08h0.38c0.11,0,0.15,0,0.15,0h1.62c0.11,0,0.26,0,0.38-0.04
			c0.11-0.04,0.23-0.04,0.34-0.04c0.15,0,0.3,0,0.45,0.04c0.15,0.04,0.3,0.04,0.49,0.04h3.47c0.11,0,0.23,0,0.3-0.04
			c0.08-0.04,0.19-0.04,0.3-0.04c0.26,0,0.57,0,0.83,0.04c0.26,0.04,0.57,0.04,0.83,0.04s0.57,0,0.83-0.04
			c0.26-0.04,0.57-0.04,0.83-0.04h0.57c0.3,0,0.6,0,0.94,0.04c0.3,0.04,0.57,0.08,0.83,0.11c0.26,0.08,0.38,0.19,0.38,0.34v0.26
			c-0.04,0.11-0.04,0.23-0.04,0.34c0,0.19,0.04,0.38,0.08,0.57c0.04,0.19,0.04,0.38,0.04,0.57s0,0.34-0.04,0.45
			c-0.04,0-0.04,0-0.04,0c-0.04,0.04-0.04,0.04-0.08,0.04c-0.41,0-0.87,0-1.32,0.04c-0.45,0.04-0.91,0.04-1.32,0.04
			c-0.64,0-1.32,0-1.96-0.04c-0.64-0.04-1.32-0.04-1.96-0.04c-0.26,0-0.57,0-0.83,0.04c-0.26,0.04-0.57,0.08-0.83,0.08
			c-0.11,0-0.23,0-0.3-0.04c-0.11-0.04-0.23-0.04-0.34-0.04s-0.19,0-0.26,0.04s-0.15,0.04-0.23,0.04c-0.49,0-0.94-0.04-1.43-0.08
			c-0.49-0.04-0.94-0.04-1.43-0.04c-0.26,0-0.57,0-0.83,0.04c-0.26,0.04-0.57,0.08-0.83,0.08s-0.42-0.04-0.42-0.15
			c-0.04-0.11-0.04-0.26-0.04-0.53v-0.23C25.5,38.08,25.5,38,25.5,37.93c0-0.11,0-0.19,0.04-0.3c0.04-0.08,0.04-0.15,0.04-0.26
			C25.57,37.21,25.57,37.1,25.54,37.06z M33.3,44.11c-0.19-0.04-0.38-0.04-0.57-0.04c-0.19,0-0.38,0-0.53,0.04
			c-0.19,0.04-0.38,0.08-0.57,0.08c-0.11,0-0.23-0.04-0.3-0.08c-0.11-0.04-0.19-0.04-0.3-0.04h-2.23c-0.08,0-0.15,0-0.23,0.04
			c-0.08,0.04-0.15,0.08-0.26,0.08h-1.73c-0.11,0-0.26,0-0.38-0.04c-0.11-0.04-0.26-0.04-0.38-0.04h-0.11
			c-0.04,0.04-0.08-0.04-0.11-0.15c-0.04-0.11-0.08-0.15-0.08-0.19v-0.6c-0.04-0.19-0.04-0.41-0.04-0.6c0-0.68,0.15-1.06,0.41-1.17
			c0.26-0.11,0.68-0.15,1.24-0.15c0.11,0,0.19-0.04,0.26-0.08c0.08-0.04,0.15-0.04,0.26-0.04h2.23c0.49,0.04,0.91,0.04,1.32,0.04
			c0.38,0.04,0.6,0.04,0.64,0.08h0.26c0.08,0,0.15,0,0.26-0.04h0.23c0.57,0,1.17,0,1.73,0.04c0.57,0.04,1.17,0.04,1.73,0.04
			c0.19,0,0.38-0.04,0.57-0.08c0.15-0.04,0.34-0.04,0.53-0.04c0.19,0,0.42,0,0.6,0.04c0.19,0.04,0.41,0.08,0.6,0.08
			c0.04,0,0.08,0,0.11-0.04c0.04,0,0.04,0,0.08,0c0.04-0.04,0.11-0.04,0.23-0.04c0.57,0,0.91,0.11,1.02,0.3
			c0.11,0.23,0.15,0.6,0.15,1.09c0,0.41-0.08,0.75-0.26,0.94c-0.19,0.23-0.42,0.38-0.68,0.45c-0.3,0.11-0.6,0.15-0.94,0.15
			c-0.34,0.04-0.68,0.04-0.98,0.04h-0.49c-0.19,0.04-0.34,0.04-0.53,0.04c-0.15,0-0.3-0.04-0.45-0.08c-0.15-0.04-0.3-0.04-0.45-0.04
			c-0.23,0-0.45,0-0.64,0.04c-0.23,0.04-0.45,0.04-0.68,0.04C33.68,44.19,33.49,44.15,33.3,44.11z M38.21,49.77
			c-0.3,0.19-0.57,0.34-0.79,0.45c-0.11-0.04-0.3-0.19-0.57-0.41c-0.26-0.23-0.57-0.49-0.83-0.79c-0.3-0.26-0.57-0.57-0.79-0.83
			c-0.26-0.26-0.41-0.45-0.53-0.57c-0.11-0.11-0.23-0.26-0.3-0.38c-0.08-0.11-0.15-0.26-0.26-0.38c-0.15-0.15-0.23-0.26-0.26-0.34
			c0.11-0.04,0.26-0.04,0.45-0.04c0.11,0,0.19,0,0.26,0.04c0.04,0.04,0.11,0.04,0.23,0.04h3.36c0.53,0,1.06,0,1.58-0.04
			c0.49-0.04,1.02-0.04,1.55-0.04c0.11,0,0.26,0,0.41,0.04c0.11,0.04,0.26,0.04,0.38,0.04h0.19c-0.04,0.04-0.19,0.15-0.38,0.3
			c-0.19,0.19-0.34,0.26-0.38,0.26c-0.11,0.11-0.26,0.26-0.38,0.41c-0.11,0.15-0.26,0.26-0.38,0.34c-0.26,0.15-0.53,0.34-0.79,0.57
			c-0.3,0.23-0.6,0.45-0.91,0.68C38.77,49.35,38.47,49.58,38.21,49.77z"/>
		<path class="st2" d="M32.71,50.94c-0.15,0-0.38,0.08-0.64,0.19c-0.26,0.15-0.57,0.3-0.87,0.49c-0.3,0.19-0.57,0.41-0.83,0.6
			c-0.26,0.19-0.41,0.34-0.49,0.45c-0.11,0.11-0.23,0.26-0.3,0.38c-0.08,0.11-0.19,0.26-0.3,0.38c-0.19,0.19-0.42,0.38-0.64,0.49
			c-0.23,0.11-0.42,0.26-0.6,0.45c-0.11,0.11-0.23,0.23-0.34,0.34c-0.11,0.11-0.26,0.23-0.38,0.34c-0.41,0.26-0.83,0.53-1.17,0.75
			c-0.38,0.23-0.79,0.42-1.24,0.6c-0.11,0.04-0.3,0.11-0.57,0.23c-0.26,0.11-0.45,0.15-0.57,0.15c-0.26,0-0.6,0-0.98-0.04
			c-0.38,0-0.75-0.04-1.09-0.15c-0.34-0.08-0.64-0.23-0.91-0.42c-0.26-0.19-0.38-0.49-0.38-0.83c0-0.38,0.11-0.75,0.34-1.13
			c0.23-0.38,0.57-0.57,0.98-0.57c0.26,0,0.53,0.04,0.79,0.11c0.23,0.08,0.49,0.11,0.75,0.11c0.26,0,0.57-0.04,0.94-0.15
			s0.68-0.23,0.87-0.34c0.19-0.11,0.38-0.3,0.53-0.49c0.11-0.19,0.26-0.34,0.45-0.49c0.34-0.3,0.72-0.6,1.06-0.94
			c0.34-0.3,0.64-0.6,0.98-0.94c0.11-0.11,0.26-0.23,0.38-0.26c0.11-0.04,0.23-0.11,0.26-0.19c0.11-0.11,0.23-0.23,0.34-0.34
			c0.08-0.11,0.19-0.23,0.3-0.34c0.19-0.19,0.41-0.34,0.75-0.49c0.3-0.11,0.64-0.23,0.98-0.34c0.34-0.11,0.68-0.19,1.02-0.23
			c0.34-0.04,0.6-0.08,0.83-0.08c1.24,0,2.3,0.23,3.17,0.68c0.83,0.45,1.62,1.17,2.41,2.11c0.19,0.26,0.38,0.49,0.53,0.75
			c0.11,0.26,0.3,0.49,0.49,0.75c0.15,0.23,0.34,0.45,0.53,0.68c0.19,0.23,0.38,0.42,0.57,0.6c0.19,0.15,0.38,0.34,0.53,0.53
			c0.19,0.26,0.41,0.57,0.6,0.83c0.19,0.3,0.38,0.57,0.6,0.83c0.34,0.34,0.68,0.68,1.06,0.94c0.38,0.3,0.75,0.6,1.09,0.9
			c0.42,0.38,0.87,0.72,1.28,1.06c0.41,0.34,0.87,0.64,1.36,0.94c0.19,0.11,0.38,0.19,0.57,0.19c0.19,0.04,0.41,0.08,0.6,0.19
			c0.45,0.23,0.98,0.42,1.58,0.53c0.57,0.11,1.13,0.23,1.62,0.26c0.26,0.04,0.57,0.08,0.83,0.11c0.26,0.04,0.57,0.08,0.83,0.08
			c0.11,0,0.23,0,0.34-0.04c0.08,0,0.19,0,0.3,0c0.08,0,0.15,0,0.26,0c0.08,0,0.15,0.04,0.19,0.11c0.11,0.08,0.19,0.26,0.19,0.57
			c-0.04,0.3-0.04,0.53,0,0.64c0.04,0.04,0.04,0.11,0.08,0.15c0.04,0.08,0.04,0.15,0.04,0.19c0,0.11-0.04,0.23-0.08,0.34
			c-0.04,0.11-0.11,0.26-0.15,0.38c-0.19,0.45-0.45,0.68-0.75,0.72c-0.3,0.04-0.68,0.08-1.09,0.08c-0.34,0-0.68-0.08-1.02-0.23
			c-0.34-0.11-0.64-0.19-0.87-0.19c-0.04,0.04-0.11,0.08-0.23,0.04c-0.11,0-0.19,0-0.23,0c-0.08,0-0.23-0.04-0.49-0.11
			c-0.26-0.04-0.57-0.11-0.87-0.19c-0.3-0.08-0.57-0.15-0.83-0.23c-0.26-0.08-0.45-0.11-0.53-0.15c-0.11-0.04-0.26-0.11-0.38-0.23
			c-0.11-0.11-0.26-0.19-0.42-0.23c-0.19-0.04-0.41-0.11-0.72-0.23c-0.34-0.08-0.53-0.19-0.64-0.34c-0.26-0.15-0.49-0.3-0.75-0.42
			c-0.26-0.11-0.49-0.26-0.72-0.45c-0.49-0.34-0.94-0.72-1.36-1.09c-0.45-0.38-0.91-0.79-1.32-1.21c-0.11-0.11-0.19-0.23-0.26-0.34
			c-0.08-0.11-0.15-0.19-0.26-0.3c-0.64-0.64-1.24-1.4-1.85-2.26c-0.08-0.11-0.11-0.23-0.15-0.34c-0.04-0.11-0.08-0.23-0.19-0.34
			c-0.19-0.26-0.49-0.64-0.83-1.13c-0.34-0.45-0.72-0.91-1.09-1.4c-0.42-0.45-0.79-0.87-1.21-1.24c-0.42-0.34-0.75-0.57-1.06-0.68
			c-0.38-0.11-0.75-0.15-1.13-0.15H32.71z M47.26,57.24c-0.11,0.08-0.23,0.11-0.34,0.11c-0.11,0.04-0.26,0.04-0.42,0
			c-0.15,0-0.26,0-0.38,0s-0.23,0-0.34,0.04c-0.11,0.04-0.23,0.04-0.34,0.04c-0.08,0-0.11-0.08-0.15-0.23
			c-0.04-0.11-0.08-0.26-0.08-0.45c-0.04-0.15-0.04-0.3-0.04-0.45c-0.04-0.15-0.04-0.26-0.04-0.3c-0.04-0.04-0.04-0.15-0.04-0.26
			c0-0.34,0.04-0.72,0.08-1.09c0.04-0.34,0.08-0.72,0.08-1.06v-1.13c0-0.08,0-0.15-0.04-0.19c0-0.08,0-0.15,0-0.23
			c-0.04-0.04-0.04-0.11-0.04-0.19c0-0.15,0.04-0.3,0.08-0.49c0.04-0.19,0.15-0.26,0.34-0.26c0.04,0,0.15,0,0.34,0
			c0.15,0.04,0.26,0.04,0.3,0.08c0.08,0,0.19,0,0.38,0c0.19,0.04,0.3,0,0.38-0.04c0.04,0,0.11,0,0.23,0
			c0.08,0.04,0.11,0.08,0.11,0.19c0,0.04,0,0.11-0.04,0.19c-0.04,0.08-0.04,0.15-0.04,0.19c-0.04,0.04-0.04,0.08-0.04,0.19
			c0,0.26,0.04,0.53,0.11,0.79c0.04,0.26,0.08,0.53,0.08,0.79c0,0.34-0.04,0.68-0.08,0.98c-0.04,0.34-0.08,0.68-0.08,1.02
			c0,0.23,0.04,0.45,0.08,0.64c0.04,0.19,0.08,0.45,0.08,0.79C47.42,57.05,47.38,57.16,47.26,57.24z M49.94,57.43
			c-0.04,0-0.08,0-0.11-0.04c-0.04,0-0.08-0.04-0.08-0.11c0-0.04,0-0.11,0-0.15v-0.08c0-0.11,0-0.26,0.04-0.41
			c0.04-0.15,0.04-0.3,0.04-0.42c0-0.3-0.04-0.6-0.08-0.9c-0.04-0.3-0.08-0.6-0.08-0.91c0-0.19,0.04-0.41,0.08-0.6
			c0.04-0.19,0.08-0.38,0.08-0.57v-1.51c0-0.26,0.08-0.41,0.23-0.49c0.15-0.04,0.34-0.08,0.53-0.08h1.06c0.19,0,0.3,0.04,0.26,0.11
			c-0.04,0.11-0.04,0.23-0.04,0.34c0,0.26,0.04,0.49,0.08,0.72c0.04,0.23,0.04,0.45,0.04,0.72c0,0.11,0,0.26,0,0.38
			c-0.04,0.15-0.04,0.3-0.04,0.42s0.04,0.23,0.08,0.3c0.04,0.11,0.04,0.23,0.04,0.34c0,0.15,0,0.3-0.04,0.41
			c-0.04,0.15-0.04,0.3-0.04,0.45c0,0.19,0,0.42,0.04,0.64c0,0.23,0,0.45,0,0.64v0.34c0,0.08-0.04,0.15-0.15,0.19
			c-0.11,0.04-0.26,0.08-0.38,0.11c-0.15,0.04-0.3,0.08-0.42,0.11c-0.15,0.04-0.26,0.04-0.3,0.04h-0.72
			C50.02,57.43,49.98,57.43,49.94,57.43z"/>
		<path class="st2" d="M57.52,47.92c-0.04,0.04-0.15,0.04-0.3,0.04c-0.26,0-0.53,0-0.79-0.04c-0.26-0.04-0.53-0.04-0.79-0.04
			c-0.23,0-0.45,0-0.64,0.04c-0.23,0.04-0.45,0.04-0.68,0.04c-0.08,0-0.11,0-0.15-0.04c0-0.68-0.11-1.36-0.34-2
			c-0.26-0.64-0.57-1.28-0.91-1.85c-0.19-0.34-0.41-0.64-0.68-0.91c-0.26-0.26-0.57-0.57-0.83-0.83c-0.26-0.26-0.57-0.57-0.83-0.83
			c-0.3-0.26-0.6-0.53-0.94-0.79h-0.19c-0.3-0.3-0.64-0.57-1.02-0.83c-0.38-0.23-0.75-0.45-1.09-0.68c-0.26-0.15-0.49-0.3-0.68-0.49
			s-0.42-0.34-0.68-0.49c-0.38-0.23-0.75-0.49-1.13-0.79c-0.41-0.3-0.79-0.64-1.13-0.98c-0.38-0.34-0.68-0.72-0.94-1.13
			c-0.26-0.42-0.45-0.83-0.57-1.28c-0.04-0.11-0.08-0.26-0.11-0.45c-0.04-0.19-0.08-0.34-0.08-0.45c0-0.34,0.04-0.68,0.11-1.02
			c0.08-0.3,0.11-0.6,0.15-0.94v-0.49c0-0.08,0.04-0.19,0.11-0.34s0.15-0.3,0.26-0.49c0.11-0.15,0.19-0.3,0.3-0.42
			c0.11-0.11,0.15-0.23,0.19-0.26c0.04-0.08,0.11-0.15,0.19-0.23c0.08-0.04,0.15-0.11,0.19-0.19c0.57-0.87,1.24-1.73,2-2.64
			c0.75-0.87,1.62-1.55,2.56-2.04c0.11,0,0.3-0.11,0.53-0.34c0.23-0.23,0.38-0.38,0.45-0.45c0.11-0.11,0.26-0.26,0.41-0.41
			c0.11-0.11,0.26-0.26,0.42-0.38c0.11-0.08,0.26-0.19,0.53-0.38c0.26-0.15,0.49-0.34,0.75-0.53c0.26-0.19,0.49-0.34,0.68-0.53
			s0.3-0.3,0.3-0.41c0-0.11-0.04-0.23-0.15-0.34c-0.11-0.11-0.19-0.19-0.3-0.26c-0.15-0.11-0.3-0.26-0.41-0.38
			c-0.15-0.11-0.3-0.23-0.42-0.38c-0.11-0.15-0.26-0.38-0.41-0.64c-0.19-0.26-0.34-0.53-0.49-0.83c-0.19-0.3-0.3-0.6-0.41-0.9
			c-0.11-0.26-0.19-0.49-0.19-0.68c0-0.11,0.08-0.23,0.19-0.3c0.04-0.04,0.15-0.08,0.34-0.15c0.19-0.04,0.38-0.11,0.6-0.19
			c0.19-0.08,0.42-0.15,0.6-0.19c0.19-0.04,0.3-0.08,0.34-0.08c0.11,0,0.23,0.08,0.26,0.23c0.04,0.19,0.08,0.3,0.11,0.41
			c0.23,0.57,0.49,1.09,0.79,1.55s0.75,0.79,1.36,1.02c0.19,0.08,0.42,0.15,0.6,0.19c0.19,0.08,0.41,0.11,0.6,0.11
			c0.19,0,0.38-0.04,0.57-0.15c0.19-0.08,0.38-0.11,0.57-0.11c0.15,0,0.3,0.08,0.45,0.19c0.15,0.11,0.3,0.26,0.45,0.42
			c0.11,0.19,0.23,0.34,0.3,0.53c0.08,0.19,0.11,0.38,0.11,0.49c0,0.23-0.08,0.45-0.26,0.64c-0.19,0.23-0.41,0.41-0.68,0.6
			c-0.26,0.19-0.49,0.34-0.75,0.49c-0.26,0.19-0.49,0.3-0.68,0.41s-0.3,0.23-0.38,0.34c-0.11,0.11-0.26,0.19-0.45,0.3
			c-0.41,0.19-0.79,0.41-1.21,0.6c-0.41,0.23-0.83,0.49-1.17,0.75c-0.11,0.08-0.23,0.19-0.34,0.3c-0.15,0.11-0.3,0.26-0.41,0.38
			c-0.15,0.15-0.3,0.26-0.42,0.38s-0.23,0.19-0.3,0.23c-0.11,0.08-0.23,0.15-0.34,0.19c-0.11,0.04-0.26,0.15-0.38,0.26
			s-0.19,0.19-0.26,0.3c-0.08,0.11-0.15,0.23-0.26,0.34c-0.19,0.19-0.38,0.3-0.6,0.38c-0.23,0.11-0.41,0.23-0.6,0.42
			c-0.26,0.26-0.6,0.64-0.98,1.09c-0.38,0.45-0.72,0.94-1.06,1.47c-0.34,0.53-0.64,1.06-0.87,1.58c-0.23,0.53-0.34,0.98-0.34,1.4
			l0.04,0.15c0.19,0.41,0.45,0.83,0.79,1.21c0.34,0.38,0.68,0.72,1.06,1.02c0.19,0.15,0.38,0.3,0.57,0.49s0.38,0.38,0.6,0.49
			c0.19,0.11,0.42,0.23,0.68,0.34c0.23,0.11,0.45,0.23,0.64,0.34s0.41,0.26,0.6,0.41c0.19,0.15,0.38,0.26,0.6,0.34
			c0.11,0.04,0.19,0.08,0.26,0.11c0.08,0.04,0.15,0.08,0.26,0.11c0.34,0.19,0.68,0.45,0.94,0.79c0.26,0.34,0.57,0.64,0.9,0.83
			c0.34,0.19,0.64,0.41,0.98,0.6c0.3,0.19,0.57,0.45,0.83,0.75c0.11,0.15,0.23,0.3,0.34,0.49c0.08,0.19,0.19,0.34,0.3,0.53
			c0.23,0.34,0.41,0.64,0.6,0.91c0.15,0.3,0.34,0.64,0.53,0.98c0.11,0.19,0.23,0.45,0.38,0.75c0.11,0.34,0.26,0.68,0.38,1.02
			c0.11,0.34,0.19,0.68,0.3,1.02c0.08,0.34,0.11,0.6,0.11,0.79C57.6,47.73,57.56,47.88,57.52,47.92z M58.28,29.89
			c-0.11,0-0.19,0-0.23-0.04c-0.26,0-0.45-0.04-0.49-0.15c-0.08-0.11-0.11-0.3-0.11-0.57c0.04-0.04,0.04-0.08,0.04-0.15
			c0.04-0.11,0.08-0.19,0.08-0.26c0.04-0.04,0.04-0.11,0.08-0.15c0-0.04,0-0.08,0.04-0.11c0-0.08,0-0.15,0.04-0.19
			c-0.04-0.34-0.11-0.64-0.15-0.98c-0.04-0.3-0.08-0.6-0.08-0.94c0-0.23,0-0.45,0.04-0.68c0.04-0.19,0.04-0.42,0.04-0.64
			c0-0.15,0-0.3,0-0.45c-0.04-0.11-0.04-0.26-0.04-0.38c0-0.26,0.08-0.42,0.26-0.45c0.19-0.04,0.38-0.04,0.57-0.04h0.3
			c0.49,0,0.79,0.11,0.91,0.38c0.08,0.26,0.11,0.64,0.11,1.06v1.51l-0.11,0.15c0.04,0.19,0.08,0.41,0.08,0.6c0,0.23,0,0.45,0,0.64
			v1.21c0,0.04,0,0.15-0.04,0.26c-0.04,0.15-0.11,0.23-0.15,0.26c-0.04,0.04-0.08,0.08-0.15,0.08c-0.08,0.04-0.15,0.04-0.19,0.04
			H58.28z M63.33,29.97c-0.11,0-0.23,0-0.34,0.04c-0.11,0.04-0.23,0.04-0.34,0.04c-0.23,0-0.34-0.08-0.38-0.19
			c-0.04-0.11-0.04-0.26-0.04-0.45c0-0.34,0-0.64,0.04-0.98c0-0.3,0-0.6,0-0.94c0-0.19,0-0.41,0.04-0.6
			c0.04-0.19,0.04-0.42,0.04-0.6c0-0.23,0-0.45-0.04-0.64c-0.04-0.19-0.08-0.41-0.08-0.64c0-0.08,0-0.19,0.04-0.3
			c0-0.11,0-0.26,0.04-0.38c0.04-0.11,0.08-0.23,0.11-0.34c0.04-0.11,0.11-0.15,0.23-0.15c0.04,0,0.11,0,0.19,0
			c0.04,0.04,0.11,0.04,0.15,0.04c0.04,0.04,0.11,0.04,0.19,0.04h0.38c0.04,0,0.11,0,0.19-0.04c0.04,0,0.11,0,0.15,0
			c0.15,0,0.26,0.11,0.38,0.34c0.08,0.23,0.15,0.49,0.19,0.79c0.04,0.3,0.04,0.6,0.04,0.87c0,0.3,0,0.53,0,0.64v1.21
			c0,0.15-0.04,0.26-0.08,0.38c-0.08,0.11-0.11,0.26-0.11,0.41c0,0.19,0.04,0.34,0.08,0.49c0.04,0.15,0.08,0.3,0.08,0.49
			c0,0.19,0,0.3,0,0.38c0,0.08-0.11,0.11-0.3,0.11H63.33z"/>
	</g>
</g>
<g>
	<path class="st1" d="M107.04,57.13c0,0.33-0.06,0.62-0.19,0.87c-0.12,0.25-0.29,0.46-0.5,0.63c-0.21,0.17-0.46,0.29-0.74,0.38
		s-0.59,0.13-0.91,0.13c-0.22,0-0.42-0.02-0.61-0.05c-0.19-0.04-0.35-0.08-0.5-0.13c-0.14-0.05-0.26-0.1-0.36-0.16
		c-0.1-0.06-0.17-0.1-0.21-0.15c-0.04-0.04-0.07-0.1-0.09-0.18c-0.02-0.08-0.03-0.19-0.03-0.34c0-0.1,0-0.19,0.01-0.25
		c0.01-0.07,0.02-0.12,0.03-0.17s0.03-0.07,0.06-0.09s0.05-0.03,0.09-0.03c0.04,0,0.11,0.03,0.19,0.08s0.19,0.11,0.32,0.18
		c0.13,0.06,0.29,0.12,0.47,0.18s0.39,0.08,0.63,0.08c0.16,0,0.3-0.02,0.42-0.06c0.12-0.04,0.23-0.09,0.31-0.16
		c0.09-0.07,0.15-0.15,0.2-0.25c0.04-0.1,0.07-0.21,0.07-0.34c0-0.14-0.04-0.27-0.12-0.37s-0.18-0.19-0.31-0.27
		c-0.12-0.08-0.27-0.15-0.43-0.22c-0.16-0.07-0.32-0.14-0.49-0.22c-0.17-0.08-0.33-0.17-0.49-0.27c-0.16-0.1-0.3-0.22-0.43-0.36
		c-0.12-0.14-0.23-0.3-0.3-0.49s-0.12-0.42-0.12-0.68c0-0.3,0.06-0.57,0.17-0.8s0.26-0.42,0.45-0.57s0.42-0.26,0.67-0.34
		s0.53-0.11,0.82-0.11c0.15,0,0.3,0.01,0.45,0.03c0.15,0.02,0.29,0.05,0.42,0.09c0.13,0.04,0.25,0.08,0.35,0.13
		c0.1,0.05,0.17,0.09,0.2,0.12c0.03,0.03,0.05,0.06,0.07,0.08c0.01,0.02,0.02,0.05,0.03,0.09c0.01,0.04,0.01,0.08,0.02,0.14
		c0,0.06,0,0.13,0,0.21c0,0.09,0,0.17-0.01,0.24s-0.01,0.12-0.02,0.16c-0.01,0.04-0.03,0.07-0.05,0.09
		c-0.02,0.02-0.05,0.03-0.08,0.03c-0.04,0-0.09-0.02-0.17-0.07s-0.17-0.1-0.29-0.15c-0.11-0.05-0.25-0.1-0.4-0.15
		c-0.15-0.04-0.31-0.07-0.49-0.07c-0.14,0-0.26,0.02-0.37,0.05c-0.1,0.03-0.19,0.08-0.26,0.14c-0.07,0.06-0.12,0.13-0.16,0.22
		s-0.05,0.17-0.05,0.27c0,0.14,0.04,0.26,0.11,0.36c0.08,0.1,0.18,0.19,0.31,0.27c0.13,0.08,0.27,0.15,0.44,0.22
		c0.16,0.07,0.33,0.14,0.5,0.22c0.17,0.08,0.33,0.17,0.5,0.27c0.16,0.1,0.31,0.22,0.43,0.36s0.23,0.3,0.31,0.49
		S107.04,56.88,107.04,57.13z"/>
	<path class="st1" d="M120.31,56.67c0,0.39-0.06,0.73-0.17,1.04c-0.11,0.31-0.28,0.56-0.5,0.78c-0.22,0.21-0.5,0.37-0.82,0.48
		c-0.33,0.11-0.7,0.17-1.12,0.17c-0.4,0-0.75-0.05-1.07-0.15c-0.32-0.1-0.58-0.25-0.8-0.45c-0.22-0.2-0.38-0.45-0.5-0.75
		c-0.12-0.3-0.17-0.65-0.17-1.06v-3.84c0-0.03,0.01-0.06,0.03-0.09s0.05-0.05,0.1-0.06c0.05-0.02,0.12-0.03,0.2-0.04
		c0.08-0.01,0.19-0.01,0.31-0.01c0.12,0,0.23,0,0.31,0.01c0.08,0.01,0.15,0.02,0.2,0.04s0.08,0.04,0.1,0.06
		c0.02,0.03,0.03,0.06,0.03,0.09v3.73c0,0.25,0.03,0.47,0.09,0.65c0.06,0.18,0.15,0.34,0.27,0.46c0.12,0.12,0.25,0.21,0.42,0.27
		s0.34,0.09,0.54,0.09c0.2,0,0.38-0.03,0.54-0.09c0.16-0.06,0.29-0.15,0.41-0.27c0.11-0.12,0.2-0.27,0.26-0.44
		c0.06-0.17,0.09-0.37,0.09-0.59v-3.8c0-0.03,0.01-0.06,0.03-0.09s0.05-0.05,0.1-0.06s0.11-0.03,0.2-0.04s0.19-0.01,0.31-0.01
		c0.12,0,0.23,0,0.3,0.01c0.08,0.01,0.14,0.02,0.19,0.04s0.08,0.04,0.1,0.06s0.03,0.06,0.03,0.09V56.67z"/>
	<path class="st1" d="M133.89,53.69c0,0.09,0,0.18-0.01,0.24c-0.01,0.07-0.02,0.12-0.03,0.16s-0.03,0.07-0.05,0.09
		c-0.02,0.02-0.05,0.02-0.08,0.02c-0.04,0-0.11-0.03-0.21-0.09c-0.09-0.06-0.22-0.12-0.38-0.19s-0.34-0.13-0.56-0.19
		c-0.22-0.06-0.47-0.09-0.75-0.09c-0.31,0-0.58,0.05-0.83,0.16c-0.25,0.11-0.46,0.26-0.63,0.45s-0.31,0.43-0.41,0.7
		c-0.09,0.27-0.14,0.57-0.14,0.9c0,0.36,0.05,0.68,0.14,0.95c0.1,0.27,0.23,0.51,0.4,0.69c0.17,0.19,0.38,0.33,0.62,0.42
		c0.24,0.09,0.51,0.14,0.8,0.14c0.14,0,0.29-0.02,0.42-0.05c0.14-0.03,0.27-0.08,0.39-0.15V56.4h-1.2c-0.06,0-0.1-0.04-0.14-0.11
		c-0.03-0.07-0.05-0.2-0.05-0.37c0-0.09,0-0.17,0.01-0.23c0.01-0.06,0.02-0.11,0.04-0.15c0.02-0.04,0.04-0.06,0.06-0.08
		c0.02-0.02,0.05-0.03,0.08-0.03h2.13c0.05,0,0.1,0.01,0.14,0.03c0.04,0.02,0.08,0.04,0.11,0.08c0.03,0.04,0.05,0.08,0.07,0.13
		c0.02,0.05,0.02,0.11,0.02,0.17v2.51c0,0.1-0.02,0.18-0.05,0.26s-0.1,0.13-0.21,0.17c-0.11,0.04-0.24,0.09-0.39,0.13
		s-0.32,0.08-0.49,0.12c-0.17,0.03-0.34,0.06-0.51,0.07s-0.34,0.02-0.52,0.02c-0.5,0-0.96-0.07-1.35-0.22
		c-0.4-0.15-0.74-0.35-1.01-0.63c-0.28-0.27-0.49-0.61-0.63-1.01s-0.22-0.84-0.22-1.35c0-0.52,0.08-0.98,0.23-1.39
		s0.38-0.76,0.66-1.05c0.29-0.29,0.63-0.51,1.04-0.66s0.86-0.23,1.35-0.23c0.27,0,0.52,0.02,0.75,0.06s0.42,0.08,0.59,0.14
		c0.17,0.05,0.31,0.11,0.42,0.17c0.11,0.06,0.19,0.12,0.23,0.16s0.08,0.11,0.09,0.19S133.89,53.53,133.89,53.69z"/>
	<path class="st1" d="M147.49,56.67c0,0.39-0.06,0.73-0.17,1.04c-0.11,0.31-0.28,0.56-0.5,0.78c-0.22,0.21-0.49,0.37-0.82,0.48
		c-0.33,0.11-0.7,0.17-1.12,0.17c-0.4,0-0.75-0.05-1.07-0.15c-0.32-0.1-0.58-0.25-0.8-0.45c-0.22-0.2-0.38-0.45-0.5-0.75
		c-0.12-0.3-0.17-0.65-0.17-1.06v-3.84c0-0.03,0.01-0.06,0.03-0.09s0.05-0.05,0.11-0.06c0.05-0.02,0.12-0.03,0.2-0.04
		c0.08-0.01,0.19-0.01,0.31-0.01c0.12,0,0.23,0,0.31,0.01c0.08,0.01,0.15,0.02,0.2,0.04s0.08,0.04,0.11,0.06
		c0.02,0.03,0.03,0.06,0.03,0.09v3.73c0,0.25,0.03,0.47,0.09,0.65c0.06,0.18,0.15,0.34,0.27,0.46c0.12,0.12,0.25,0.21,0.42,0.27
		s0.34,0.09,0.54,0.09c0.2,0,0.38-0.03,0.54-0.09c0.16-0.06,0.29-0.15,0.41-0.27c0.11-0.12,0.2-0.27,0.26-0.44
		c0.06-0.17,0.09-0.37,0.09-0.59v-3.8c0-0.03,0.01-0.06,0.03-0.09s0.05-0.05,0.1-0.06s0.12-0.03,0.2-0.04s0.19-0.01,0.31-0.01
		c0.12,0,0.23,0,0.31,0.01c0.08,0.01,0.14,0.02,0.19,0.04s0.08,0.04,0.1,0.06s0.03,0.06,0.03,0.09V56.67z"/>
	<path class="st1" d="M169.52,53.23c0,0.09,0,0.17-0.01,0.24s-0.02,0.12-0.04,0.16c-0.02,0.04-0.04,0.07-0.06,0.09
		c-0.03,0.02-0.05,0.03-0.08,0.03h-1.58v5.09c0,0.03-0.01,0.06-0.03,0.09c-0.02,0.03-0.06,0.05-0.11,0.06s-0.11,0.03-0.2,0.04
		s-0.19,0.01-0.31,0.01c-0.12,0-0.23,0-0.31-0.01s-0.15-0.02-0.2-0.04s-0.08-0.04-0.1-0.06c-0.02-0.03-0.03-0.06-0.03-0.09v-5.09
		h-1.58c-0.03,0-0.06-0.01-0.08-0.03c-0.02-0.02-0.04-0.05-0.06-0.09c-0.02-0.04-0.03-0.09-0.04-0.16
		c-0.01-0.07-0.01-0.15-0.01-0.24c0-0.1,0-0.18,0.01-0.25c0.01-0.07,0.02-0.12,0.04-0.16c0.02-0.04,0.04-0.07,0.06-0.09
		c0.02-0.02,0.05-0.03,0.08-0.03h4.45c0.03,0,0.05,0.01,0.08,0.03c0.02,0.02,0.04,0.05,0.06,0.09c0.02,0.04,0.03,0.1,0.04,0.16
		S169.52,53.14,169.52,53.23z"/>
	<path class="st1" d="M182.06,58.55c0.04,0.12,0.06,0.21,0.07,0.28s0,0.12-0.04,0.15s-0.1,0.06-0.19,0.06s-0.22,0.01-0.38,0.01
		c-0.17,0-0.29,0-0.39-0.01c-0.09,0-0.16-0.01-0.21-0.03s-0.08-0.04-0.1-0.06s-0.04-0.06-0.05-0.1l-0.42-1.27h-2.37l-0.4,1.24
		c-0.01,0.05-0.03,0.08-0.05,0.11c-0.02,0.03-0.05,0.06-0.1,0.07c-0.05,0.02-0.11,0.03-0.2,0.04c-0.09,0.01-0.2,0.01-0.34,0.01
		c-0.15,0-0.27,0-0.35-0.01s-0.14-0.03-0.18-0.07s-0.04-0.09-0.03-0.16s0.03-0.16,0.07-0.27l1.95-5.61c0.02-0.06,0.04-0.1,0.07-0.13
		s0.07-0.06,0.12-0.08c0.06-0.02,0.14-0.03,0.24-0.03s0.23-0.01,0.4-0.01c0.19,0,0.34,0,0.46,0.01s0.2,0.02,0.27,0.03
		c0.06,0.02,0.11,0.04,0.14,0.08c0.03,0.04,0.05,0.08,0.07,0.15L182.06,58.55z M179.16,53.91L179.16,53.91l-0.9,2.69h1.79
		L179.16,53.91z"/>
	<path class="st1" d="M194.69,57.13c0,0.22-0.03,0.43-0.09,0.61s-0.15,0.34-0.26,0.48c-0.11,0.14-0.24,0.26-0.39,0.36
		c-0.15,0.1-0.32,0.18-0.5,0.25s-0.38,0.11-0.58,0.14c-0.21,0.03-0.44,0.05-0.69,0.05h-1.68c-0.11,0-0.2-0.03-0.27-0.1
		c-0.07-0.06-0.11-0.17-0.11-0.31v-5.51c0-0.14,0.04-0.25,0.11-0.31c0.07-0.06,0.16-0.1,0.27-0.1h1.59c0.39,0,0.71,0.03,0.98,0.1
		c0.27,0.06,0.49,0.16,0.68,0.3c0.18,0.13,0.33,0.3,0.42,0.5s0.15,0.44,0.15,0.71c0,0.15-0.02,0.3-0.06,0.43s-0.1,0.26-0.17,0.37
		s-0.17,0.21-0.28,0.29c-0.11,0.08-0.23,0.15-0.37,0.21c0.18,0.03,0.34,0.09,0.5,0.17c0.15,0.08,0.28,0.19,0.4,0.31
		c0.11,0.13,0.2,0.28,0.27,0.45S194.69,56.92,194.69,57.13z M193.03,54.47c0-0.13-0.02-0.24-0.06-0.34s-0.1-0.18-0.18-0.25
		s-0.18-0.12-0.29-0.15c-0.12-0.04-0.28-0.05-0.48-0.05h-0.65v1.64h0.72c0.19,0,0.33-0.02,0.44-0.07s0.2-0.1,0.28-0.18
		c0.07-0.08,0.13-0.17,0.16-0.27S193.03,54.58,193.03,54.47z M193.35,57.18c0-0.15-0.02-0.28-0.07-0.39s-0.12-0.21-0.21-0.29
		s-0.21-0.14-0.36-0.18s-0.34-0.06-0.57-0.06h-0.76v1.8h0.93c0.18,0,0.33-0.02,0.45-0.06c0.12-0.04,0.23-0.09,0.32-0.17
		c0.09-0.07,0.16-0.16,0.21-0.27C193.33,57.44,193.35,57.32,193.35,57.18z"/>
	<path class="st1" d="M206.63,58.52c0,0.09,0,0.17-0.01,0.24c-0.01,0.06-0.02,0.11-0.04,0.15s-0.04,0.07-0.06,0.09
		c-0.03,0.02-0.05,0.03-0.08,0.03h-3.17c-0.11,0-0.2-0.03-0.27-0.1c-0.07-0.06-0.11-0.17-0.11-0.31v-5.51
		c0-0.14,0.04-0.25,0.11-0.31c0.07-0.06,0.16-0.1,0.27-0.1h3.15c0.03,0,0.06,0.01,0.08,0.02s0.04,0.04,0.06,0.09
		s0.03,0.09,0.04,0.16c0.01,0.06,0.01,0.14,0.01,0.24c0,0.09,0,0.17-0.01,0.23c-0.01,0.06-0.02,0.11-0.04,0.15s-0.04,0.07-0.06,0.09
		s-0.05,0.03-0.08,0.03h-2.26v1.54h1.91c0.03,0,0.06,0.01,0.08,0.03c0.03,0.02,0.04,0.05,0.06,0.08s0.03,0.09,0.04,0.15
		c0.01,0.06,0.01,0.14,0.01,0.23c0,0.09,0,0.17-0.01,0.23c-0.01,0.06-0.02,0.11-0.04,0.15s-0.04,0.06-0.06,0.08
		c-0.02,0.02-0.05,0.02-0.08,0.02h-1.91v1.78h2.28c0.03,0,0.06,0.01,0.08,0.03c0.02,0.02,0.04,0.05,0.06,0.09s0.03,0.09,0.04,0.15
		C206.62,58.35,206.63,58.43,206.63,58.52z"/>
</g>
<path class="st2" d="M35.08,69.96c-19.28,0-34.97-15.69-34.97-34.97S15.8,0.02,35.08,0.02s34.97,15.69,34.97,34.97
	S54.36,69.96,35.08,69.96z M35.08,3.02c-17.63,0-31.97,14.34-31.97,31.97s14.34,31.97,31.97,31.97s31.97-14.34,31.97-31.97
	S52.71,3.02,35.08,3.02z"/>
</svg>
