<svg width="71" height="70" viewBox="0 0 71 70" fill="none" xmlns="http://www.w3.org/2000/svg">
<g clip-path="url(#clip0_98_465)">
<path fill-rule="evenodd" clip-rule="evenodd" d="M0.109863 34.99C0.109863 54.27 15.7999 69.96 35.0799 69.96C54.3599 69.96 70.0499 54.27 70.0499 34.99C70.0499 15.71 54.3599 0.0200195 35.0799 0.0200195C15.7999 0.0200195 0.109863 15.71 0.109863 34.99ZM12.9988 11.89C18.7421 6.39775 26.5235 3.02002 35.0799 3.02002C52.7099 3.02002 67.0499 17.36 67.0499 34.99C67.0499 45.8209 61.6377 55.41 53.3755 61.1954C53.3196 61.2 53.2637 61.2 53.2102 61.2C52.9502 61.2 52.6402 61.16 52.3802 61.12C52.1202 61.09 51.8102 61.05 51.5502 61.01C51.1265 60.9841 50.6506 60.8909 50.1611 60.795C50.0844 60.78 50.0074 60.7649 49.9302 60.75C49.3302 60.64 48.8002 60.45 48.3502 60.22C48.1745 60.1183 47.9733 60.0765 47.7938 60.0391L47.7938 60.0391L47.7502 60.03C47.5602 60.03 47.3702 59.95 47.1802 59.84C46.6902 59.54 46.2302 59.24 45.8202 58.9C45.6838 58.7869 45.5429 58.6738 45.4003 58.5592L45.399 58.5581L45.3987 58.558L45.3987 58.5579L45.3987 58.5579C45.113 58.3285 44.8199 58.0931 44.5402 57.84C44.2002 57.54 43.8302 57.24 43.4502 56.94C43.0702 56.68 42.7302 56.34 42.3902 56C42.1702 55.74 41.9802 55.47 41.7902 55.17C41.6952 55.04 41.5927 54.8975 41.4902 54.755C41.3877 54.6125 41.2852 54.47 41.1902 54.34C41.0402 54.15 40.8502 53.96 40.6602 53.81C40.4702 53.63 40.2802 53.44 40.0902 53.21L40.0066 53.1093L40.0066 53.1093C39.8452 52.9152 39.6881 52.7262 39.5602 52.53C39.5263 52.4836 39.4924 52.4383 39.459 52.3935L39.4584 52.3927L39.4584 52.3926L39.4583 52.3926L39.4581 52.3923C39.3892 52.2999 39.3222 52.2102 39.2612 52.12C39.3567 51.9121 39.5297 51.7484 39.7802 51.69C39.7764 51.6787 39.7712 51.6688 39.7662 51.6593C39.7579 51.6435 39.7502 51.6287 39.7502 51.61C39.7502 51.53 39.7902 51.5 39.8602 51.46C39.8868 51.4333 39.9268 51.4066 39.9624 51.3829L39.9752 51.3744C39.9881 51.3657 40.0001 51.3575 40.0102 51.35C40.2702 51.16 40.6102 50.94 41.0302 50.75C41.4102 50.56 41.7102 50.37 41.9002 50.15C42.1602 49.92 42.4302 49.7 42.7702 49.47L43.6702 48.9C44.0902 48.67 44.5002 48.37 44.9502 47.96C45.2078 47.7195 45.4557 47.5085 45.6843 47.3139C45.8549 47.1686 46.0149 47.0325 46.1602 46.9C46.2108 46.8747 46.2574 46.8373 46.3128 46.793C46.3448 46.7674 46.3798 46.7393 46.4202 46.71C46.5302 46.67 46.5702 46.56 46.5702 46.45C46.5702 46.34 46.4902 46.19 46.3102 46C46.1202 45.81 45.8902 45.59 45.6302 45.4C45.5357 45.3309 45.4451 45.2619 45.3571 45.1948L45.3568 45.1945C45.2028 45.077 45.0565 44.9654 44.9102 44.87C44.8867 44.8601 44.864 44.8504 44.8422 44.841C44.8192 44.8311 44.7971 44.8216 44.7758 44.8123L44.7758 44.8123L44.7757 44.8123C44.5926 44.7331 44.4698 44.68 44.3802 44.68C44.3001 44.7091 44.2148 44.7753 44.1164 44.8516L44.1164 44.8516L44.1163 44.8516C44.0796 44.8801 44.041 44.9101 44.0002 44.94L43.5502 45.39C43.4795 45.4606 43.4089 45.5223 43.3425 45.5804C43.2678 45.6458 43.1984 45.7065 43.1402 45.77C43.0302 45.88 42.9102 45.96 42.8802 45.96C42.8002 45.88 42.7702 45.73 42.7702 45.55V45.1C42.7702 44.84 42.7702 44.57 42.8102 44.31C42.8502 44.08 42.8502 43.82 42.8502 43.5601V43.56V43.5599C42.8502 43.2999 42.8502 43.07 42.8102 42.81C42.7702 42.58 42.7702 42.36 42.7702 42.09V41.3C42.7302 40.96 42.7702 40.73 42.8102 40.62C42.8302 40.6 42.8402 40.5725 42.8502 40.545C42.8602 40.5175 42.8702 40.49 42.8902 40.47V40.36C42.8902 40.02 42.8902 39.64 42.8502 39.27L42.8468 39.2384L42.8468 39.2383C42.808 38.8694 42.7702 38.5105 42.7702 38.18C42.7702 38.07 42.8102 37.95 42.8502 37.84C42.8902 37.76 42.8902 37.69 42.8902 37.58C42.8902 37.24 42.8902 36.86 42.8502 36.52C42.8102 36.18 42.7702 35.8 42.7702 35.46C42.7702 35.4202 42.7754 35.3751 42.784 35.3263C43.0431 35.7339 43.3419 36.1117 43.72 36.45C44.06 36.79 44.44 37.13 44.85 37.43C45.23 37.73 45.6 37.99 45.98 38.22C46.24 38.37 46.47 38.52 46.66 38.71C46.85 38.9 47.08 39.05 47.34 39.2C47.638 39.4016 47.959 39.5955 48.2896 39.7952L48.43 39.88C48.81 40.14 49.15 40.41 49.45 40.71H49.64C49.9181 40.9227 50.1694 41.142 50.4159 41.3571C50.4708 41.405 50.5254 41.4527 50.58 41.5L51.41 42.33L52.24 43.16C52.51 43.43 52.73 43.73 52.92 44.07C53.26 44.64 53.57 45.28 53.83 45.92C54.06 46.56 54.17 47.24 54.17 47.92C54.21 47.96 54.24 47.96 54.32 47.96C54.55 47.96 54.77 47.96 55 47.92C55.19 47.88 55.4099 47.88 55.6399 47.88H55.64H55.6402C55.9001 47.88 56.1701 47.88 56.43 47.92C56.69 47.96 56.96 47.96 57.22 47.96C57.37 47.96 57.48 47.96 57.52 47.92C57.56 47.88 57.6 47.73 57.56 47.53C57.56 47.34 57.53 47.08 57.45 46.74C57.395 46.57 57.3475 46.4 57.3 46.23L57.2999 46.2298C57.2525 46.0598 57.205 45.8899 57.15 45.72C57.0986 45.5743 57.0416 45.4286 56.9847 45.2829C56.9088 45.0886 56.8329 44.8943 56.77 44.7C56.725 44.6099 56.6826 44.5234 56.6425 44.4414C56.5488 44.2502 56.467 44.083 56.39 43.95C56.2 43.61 56.01 43.27 55.86 42.97C55.756 42.8222 55.655 42.6654 55.5471 42.4979L55.547 42.4979C55.4579 42.3595 55.3641 42.2138 55.26 42.06C55.2258 42.0008 55.1915 41.9455 55.1581 41.8917L55.1581 41.8917C55.0844 41.7727 55.0151 41.6608 54.96 41.53C54.8721 41.3781 54.7778 41.2518 54.6873 41.1307L54.6872 41.1306L54.687 41.1302C54.6643 41.0999 54.642 41.07 54.62 41.04C54.36 40.74 54.09 40.48 53.79 40.29C53.6201 40.195 53.4601 40.0926 53.3002 39.9901L53.3 39.99L53.2999 39.9899C53.1399 39.8875 52.98 39.785 52.81 39.69C52.48 39.5 52.17 39.2 51.91 38.86C51.65 38.52 51.31 38.26 50.97 38.07C50.8758 38.0443 50.811 38.0113 50.744 37.9772L50.71 37.96C50.6899 37.9514 50.6689 37.9419 50.6466 37.9318L50.6464 37.9318C50.5914 37.9069 50.5283 37.8785 50.45 37.85C50.23 37.77 50.04 37.66 49.85 37.51C49.66 37.36 49.44 37.21 49.25 37.1C49.06 36.99 48.84 36.87 48.61 36.76C48.35 36.65 48.12 36.53 47.93 36.42C47.71 36.31 47.52 36.12 47.33 35.93C47.14 35.74 46.9501 35.59 46.7601 35.4401L46.76 35.44C46.38 35.14 46.04 34.8 45.7 34.42C45.36 34.04 45.1 33.62 44.91 33.21L44.87 33.06C44.87 32.64 44.98 32.19 45.21 31.66C45.44 31.14 45.74 30.61 46.08 30.08C46.42 29.55 46.76 29.06 47.14 28.61C47.52 28.16 47.86 27.78 48.12 27.52C48.31 27.33 48.49 27.21 48.72 27.1C48.94 27.02 49.13 26.91 49.32 26.72C49.4009 26.6391 49.4602 26.5528 49.5177 26.4691C49.5384 26.4389 49.5588 26.4091 49.58 26.38C49.65 26.27 49.72 26.19 49.84 26.08C49.96 25.97 50.11 25.86 50.22 25.82C50.33 25.78 50.45 25.71 50.56 25.63C50.63 25.59 50.74 25.52 50.86 25.4C50.9167 25.3434 50.98 25.2889 51.0469 25.2315C51.1217 25.1672 51.2008 25.0992 51.28 25.02C51.39 24.9 51.54 24.75 51.69 24.64C51.8 24.53 51.92 24.42 52.03 24.34C52.37 24.08 52.79 23.82 53.2 23.59C53.4213 23.4899 53.6315 23.3815 53.8408 23.2735L53.8409 23.2735C54.0288 23.1765 54.2161 23.0799 54.41 22.99L54.475 22.9526C54.6346 22.8609 54.7629 22.7872 54.86 22.69C54.94 22.58 55.05 22.46 55.24 22.35C55.2888 22.3217 55.3403 22.2935 55.3943 22.2639C55.5502 22.1782 55.7268 22.0812 55.92 21.94C56.18 21.79 56.41 21.64 56.67 21.45C56.94 21.26 57.16 21.08 57.35 20.85C57.53 20.66 57.61 20.44 57.61 20.21C57.61 20.1 57.58 19.91 57.5 19.72C57.4524 19.5908 57.3817 19.4801 57.3067 19.3627C57.2714 19.3075 57.2352 19.2508 57.2 19.19C57.05 19.03 56.9 18.88 56.75 18.77C56.6 18.66 56.45 18.58 56.3 18.58C56.11 18.58 55.92 18.61 55.73 18.69C55.54 18.8 55.35 18.84 55.16 18.84C54.97 18.84 54.75 18.81 54.56 18.73C54.38 18.69 54.15 18.62 53.96 18.54C53.35 18.31 52.9 17.98 52.6 17.52C52.3 17.06 52.04 16.54 51.81 15.97C51.8012 15.9376 51.7915 15.9052 51.7812 15.8708L51.7812 15.8708C51.7565 15.7883 51.7282 15.694 51.7 15.56C51.67 15.41 51.55 15.33 51.44 15.33C51.42 15.33 51.3825 15.34 51.3263 15.355C51.27 15.37 51.195 15.39 51.1 15.41C50.92 15.45 50.69 15.52 50.5 15.6L50.4806 15.6071C50.2688 15.6841 50.0844 15.7512 49.9 15.79L49.8886 15.7942C49.7056 15.8616 49.5992 15.9008 49.56 15.94C49.45 16.01 49.37 16.13 49.37 16.24C49.37 16.43 49.45 16.66 49.56 16.92C49.67 17.22 49.78 17.52 49.97 17.82C50.12 18.12 50.27 18.39 50.46 18.65C50.61 18.91 50.76 19.14 50.87 19.29C50.99 19.44 51.14 19.56 51.29 19.67C51.4 19.79 51.55 19.94 51.7 20.05C51.81 20.12 51.89 20.2 52 20.31L52 20.31C52.11 20.42 52.15 20.54 52.15 20.65C52.15 20.76 52.04 20.87 51.8501 21.06L51.85 21.06L51.85 21.06C51.7004 21.2096 51.526 21.3344 51.3317 21.4735C51.2792 21.511 51.2253 21.5496 51.17 21.59C51.101 21.6404 51.0342 21.6908 50.9683 21.7405L50.9683 21.7405C50.7858 21.878 50.611 22.0098 50.42 22.12C50.1787 22.2898 50.0332 22.3957 49.9265 22.4734L49.89 22.5C49.73 22.62 49.58 22.77 49.47 22.88L49.06 23.29L48.61 23.74C48.38 23.97 48.19 24.08 48.08 24.08C47.14 24.57 46.27 25.25 45.52 26.12C44.76 27.03 44.09 27.89 43.52 28.76C43.48 28.84 43.41 28.91 43.33 28.95C43.25 29.03 43.18 29.1 43.14 29.18C43.1235 29.1924 43.1069 29.2202 43.0854 29.2563C43.055 29.3076 43.0145 29.3755 42.95 29.44C42.8814 29.5149 42.8245 29.6014 42.7647 29.6923L42.7646 29.6923L42.7646 29.6924C42.7285 29.7472 42.6914 29.8036 42.65 29.86C42.54 30.05 42.46 30.2 42.39 30.35C42.32 30.5 42.28 30.61 42.28 30.69V31.18L42.2709 31.2584C42.1411 31.1654 42.012 31.0745 41.8851 30.9851L41.885 30.985L41.7502 30.89C41.6402 30.85 41.5202 30.78 41.3702 30.66C41.2202 30.58 41.1102 30.51 41.0702 30.43C40.9602 30.39 40.8402 30.28 40.7302 30.13C40.6901 30.1006 40.6501 30.0706 40.6106 30.0409L40.6106 30.0409L40.6105 30.0409C40.5022 29.9595 40.3981 29.8813 40.3102 29.83C39.5202 29.26 38.7302 28.62 37.9702 27.91C37.2202 27.19 36.5002 26.44 35.8602 25.72L35.8601 25.7199C35.7101 25.57 35.5601 25.42 35.4502 25.27C35.3402 25.12 35.1902 24.97 35.0302 24.82C34.9202 24.71 34.8002 24.56 34.6902 24.37C34.5802 24.22 34.4602 24.07 34.3502 23.96C34.2402 23.85 34.0502 23.73 33.7802 23.7C33.5202 23.66 33.2902 23.66 33.1002 23.66H32.4202C32.3702 23.67 32.3202 23.67 32.2802 23.67C32.0502 23.61 31.8302 23.57 31.5902 23.54C31.5902 23.4688 31.5839 23.3913 31.5763 23.2976L31.5702 23.22C31.4902 22.88 31.4202 22.54 31.3402 22.13C31.2928 21.9535 31.251 21.7826 31.21 21.6149C31.1557 21.3929 31.1028 21.1765 31.0402 20.96C30.9813 20.7781 30.9196 20.6191 30.8703 20.4922L30.8703 20.4921L30.8703 20.4921C30.8275 20.3818 30.7941 20.2958 30.7802 20.24C30.7402 20.16 30.6702 20.05 30.5502 19.9C30.4402 19.79 30.4002 19.67 30.4002 19.6C30.4002 19.26 30.4002 18.88 30.4402 18.54C30.4802 18.2 30.4802 17.82 30.4802 17.48V17.48C30.4802 17.22 30.5202 16.99 30.5602 16.76L30.5643 16.7362C30.6029 16.5148 30.6402 16.3007 30.6402 16.04C30.6402 15.93 30.6002 15.74 30.4902 15.47C30.5132 15.4065 30.523 15.3164 30.5348 15.2073V15.2073C30.5435 15.1274 30.5532 15.0373 30.5702 14.94C30.6102 14.71 30.6802 14.56 30.8002 14.52C30.8402 14.52 31.0302 14.52 31.4002 14.48H31.4002C31.7402 14.48 32.1502 14.48 32.6102 14.44H34.5702C34.7602 14.44 34.9502 14.44 35.1402 14.48C35.2902 14.52 35.4802 14.56 35.6702 14.56C36.0502 14.56 36.4202 14.56 36.7602 14.52C37.1002 14.48 37.4802 14.48 37.8502 14.48H38.8302C39.1302 14.52 39.4302 14.52 39.7702 14.52C39.9602 14.52 40.1502 14.52 40.3402 14.48C40.5302 14.44 40.7202 14.44 40.9102 14.44C41.1002 14.44 41.3302 14.44 41.5102 14.48C41.7002 14.52 41.8902 14.52 42.0802 14.52C42.3402 14.52 42.6502 14.52 42.9502 14.48C43.2102 14.44 43.3602 14.25 43.3602 13.88V13.54C43.3202 13.43 43.3202 13.31 43.3202 13.2C43.3202 13.09 43.3202 12.94 43.3602 12.79V12.34C43.3202 12.23 43.2802 12.11 43.2502 12C43.1702 11.92 43.0602 11.89 42.9102 11.89H42.4902C42.3402 11.93 42.1902 11.93 42.0402 11.93C41.7802 11.93 41.5502 11.89 41.3602 11.85C41.1302 11.81 40.9102 11.81 40.6802 11.81C40.6402 11.77 40.5302 11.77 40.4202 11.77C40.3102 11.77 40.1602 11.81 40.0402 11.85C39.9302 11.89 39.7802 11.93 39.6602 11.93C39.5502 11.93 39.4302 11.93 39.3202 11.89C39.2102 11.85 39.0902 11.85 38.9802 11.85H37.9602C37.7702 11.85 37.6202 11.85 37.4702 11.89C37.3202 11.93 37.1702 11.93 37.0202 11.93C36.7902 11.93 36.5702 11.89 36.3802 11.82C36.1902 11.78 35.9702 11.74 35.7402 11.74C35.5592 11.74 35.3511 11.7763 35.133 11.8143L35.1002 11.82L35.0673 11.8257C34.8492 11.8637 34.6411 11.9 34.4602 11.9H32.2002C31.4802 11.9 31.0302 11.79 30.7702 11.6C30.5102 11.41 30.3902 10.96 30.3902 10.24V9.69999C30.3902 9.50999 30.4302 9.31999 30.5002 9.12999C30.5402 8.97999 30.5802 8.78999 30.5802 8.59999V8.59995C30.5802 8.25996 30.5802 7.91998 30.5402 7.57999C30.5002 7.27999 30.5002 6.93999 30.5002 6.59999C30.5002 6.40999 30.5002 6.18999 30.5402 5.99999C30.5802 5.81 30.5802 5.62001 30.5802 5.43002V5.42999C30.5802 5.23999 30.5402 5.08999 30.4702 5.00999C30.3902 4.96999 30.2402 4.92999 30.0502 4.92999H29.4802C29.2902 4.96999 29.1002 4.96999 28.9102 4.96999C28.4202 4.96999 28.1202 5.00999 27.9702 5.04999C27.8202 5.08999 27.7402 5.38999 27.7402 5.87999C27.7402 6.02999 27.7402 6.17999 27.7802 6.32999V6.79999C27.7802 7.05999 27.7802 7.28999 27.7402 7.51999L27.736 7.54376C27.6974 7.76523 27.6602 7.9793 27.6602 8.23999C27.6602 8.57999 27.7002 8.87999 27.7702 9.17999C27.8502 9.47999 27.8802 9.77999 27.8802 10.12C27.8802 10.23 27.8402 10.35 27.8002 10.46C27.7202 10.61 27.6902 10.84 27.6902 11.1C27.6902 11.33 27.6502 11.51 27.5402 11.63C27.3502 11.74 27.1602 11.78 26.9402 11.78C26.6802 11.82 26.4502 11.82 26.1902 11.82C26.1272 11.8297 26.066 11.8394 26.0057 11.8489L26.0046 11.8491L26.0046 11.8491L26.0046 11.8491C25.8163 11.8789 25.6368 11.9073 25.4402 11.93C25.3934 11.9393 25.3496 11.9497 25.3081 11.9594L25.3079 11.9595C25.2163 11.9811 25.1358 12 25.0602 12C24.7202 12 24.4202 11.96 24.2302 11.89L24.2026 11.8852C23.9825 11.8469 23.7709 11.81 23.5502 11.81H21.5502C21.4402 11.81 21.3602 11.81 21.2902 11.85C21.1802 11.89 21.1002 11.89 20.9902 11.89C20.8402 11.89 20.6902 11.89 20.5702 11.85H20.1202C19.9702 11.85 19.8202 11.85 19.7102 11.89C19.6002 11.93 19.4502 11.93 19.2902 11.93C19.1402 11.93 18.9902 11.89 18.8402 11.85L18.8401 11.85C18.6901 11.81 18.5401 11.77 18.3502 11.77C18.0502 11.77 17.7502 11.77 17.4402 11.81L17.4401 11.81C17.1401 11.85 16.8401 11.89 16.5402 11.89H12.9988ZM10.5779 14.474C5.91847 20.0298 3.10986 27.1877 3.10986 34.99C3.10986 52.62 17.4499 66.96 35.0799 66.96C40.1012 66.96 44.8556 65.7968 49.0878 63.7255C49.0021 63.7048 48.9157 63.6828 48.8302 63.66L48.7072 63.6273C48.4556 63.5604 48.2242 63.4989 48.0002 63.43C47.8793 63.3928 47.7735 63.3664 47.6869 63.3448L47.6869 63.3448C47.5872 63.3199 47.513 63.3014 47.4702 63.28C47.3602 63.24 47.2102 63.17 47.0902 63.05C46.9802 62.94 46.8302 62.86 46.6702 62.82C46.4802 62.78 46.2602 62.71 45.9502 62.59C45.6102 62.51 45.4202 62.4 45.3102 62.25C45.2395 62.2092 45.1711 62.1685 45.1037 62.1284L45.1036 62.1283C44.9229 62.0207 44.7495 61.9174 44.5602 61.83C44.3002 61.72 44.0702 61.57 43.8402 61.38C43.3502 61.04 42.9002 60.66 42.4802 60.29C42.0302 59.91 41.5702 59.5 41.1602 59.08C41.0502 58.97 40.9702 58.85 40.9002 58.74C40.8202 58.63 40.7502 58.55 40.6402 58.44C40.0002 57.8 39.4002 57.04 38.7902 56.18C38.7262 56.092 38.6942 55.9977 38.6635 55.9072C38.6558 55.8845 38.6482 55.862 38.6402 55.84L38.6345 55.8244C38.5962 55.7188 38.555 55.6048 38.4502 55.5C38.3908 55.4188 38.3208 55.326 38.2422 55.2217L38.2422 55.2217L38.2418 55.2212C38.0686 54.9916 37.8538 54.7068 37.6202 54.37C37.4543 54.1505 37.279 53.9286 37.0999 53.7021C36.9118 53.4641 36.7197 53.221 36.5302 52.97L36.4435 52.8769C36.2451 52.7124 36.0224 52.5123 35.7902 52.28C35.5093 52.0241 35.2556 51.811 35.0414 51.6311L35.0414 51.631C34.9125 51.5227 34.7978 51.4264 34.7002 51.34C34.6364 51.2807 34.5728 51.221 34.5093 51.161C34.424 51.1159 34.3414 51.0788 34.2602 51.05C33.8802 50.94 33.5102 50.9 33.1302 50.9H32.7102V50.94C32.5602 50.94 32.3302 51.02 32.0702 51.13C31.9735 51.1858 31.8699 51.2415 31.7625 51.2993L31.7623 51.2994L31.762 51.2996C31.5807 51.3972 31.3885 51.5007 31.2002 51.62C30.9898 51.7532 30.7941 51.9012 30.6064 52.0433L30.6063 52.0433C30.5263 52.1038 30.4478 52.1632 30.3702 52.22C30.1102 52.41 29.9602 52.56 29.8802 52.67C29.7702 52.78 29.6502 52.93 29.5802 53.05C29.5002 53.16 29.3902 53.31 29.2802 53.43C29.0902 53.62 28.8602 53.81 28.6402 53.92C28.4102 54.03 28.2202 54.18 28.0402 54.37L27.7002 54.71C27.6335 54.7767 27.5521 54.847 27.4716 54.9166L27.4715 54.9167L27.4714 54.9168C27.4192 54.9619 27.3674 55.0067 27.3202 55.05C26.9102 55.31 26.4902 55.58 26.1502 55.8C25.8594 55.976 25.5511 56.1285 25.2207 56.2711C25.2206 56.2744 25.2205 56.2777 25.2204 56.281C25.2202 56.2872 25.2202 56.2936 25.2202 56.3C25.1702 56.335 25.1227 56.3675 25.0752 56.4L25.0745 56.4005L25.0744 56.4005C25.0272 56.4328 24.9799 56.4652 24.9302 56.5C24.8181 56.5076 24.7063 56.5147 24.5947 56.5213C24.5197 56.552 24.4348 56.5879 24.3402 56.63C24.0802 56.74 23.8902 56.78 23.7702 56.78H23.7701C23.5101 56.78 23.1701 56.78 22.7902 56.74C22.4102 56.74 22.0402 56.7 21.7002 56.59C21.3602 56.51 21.0602 56.36 20.7902 56.17C20.5302 55.98 20.4102 55.68 20.4102 55.34C20.4102 54.96 20.5202 54.59 20.7502 54.21C20.9802 53.83 21.3202 53.64 21.7302 53.64C21.9902 53.64 22.2602 53.68 22.5202 53.75C22.5847 53.7724 22.6516 53.7909 22.7202 53.806V53.23C22.7202 53.12 22.7202 53 22.7602 52.89C22.8002 52.82 22.8002 52.7 22.8002 52.59V45.2C22.8002 45.12 22.8002 45.05 22.7602 44.97C22.7202 44.89 22.7202 44.82 22.7202 44.74C22.7202 44.13 22.7202 43.53 22.7602 42.89C22.8002 42.29 22.8002 41.68 22.8002 41.08V41.08C22.8002 40.93 22.8002 40.78 22.7602 40.63C22.7202 40.51 22.6802 40.36 22.6802 40.25C22.6802 39.79 22.7202 39.34 22.7602 38.8901L22.7602 38.89C22.8002 38.44 22.8002 37.98 22.8002 37.53V37.53V37.19C22.7602 37.04 22.7602 36.89 22.7602 36.7C22.7302 36.61 22.7202 36.52 22.7102 36.43L22.6202 36.46C22.4702 36.49 22.3202 36.53 22.1702 36.57C22.0202 36.57 21.8702 36.61 21.7202 36.65C21.6102 36.69 21.4902 36.76 21.3802 36.84C21.2702 36.92 21.1502 36.99 21.0402 37.03C20.8602 37.06 20.6302 37.1 20.4402 37.14C20.2502 37.17 20.0302 37.21 19.8402 37.25C19.5802 37.32 19.3902 37.4 19.2002 37.51C19.0102 37.58 18.7402 37.62 18.4802 37.62C18.2902 37.62 18.1402 37.59 18.1002 37.51C17.9802 37.36 17.8302 37.1 17.7202 36.72C17.6102 36.34 17.5002 36.04 17.4202 35.85C17.3802 35.74 17.3002 35.62 17.1902 35.51C17.0802 35.39 17.0402 35.32 17.0402 35.28C17.0402 35.2 17.1502 35.13 17.3402 35.05C17.5302 35.02 17.6802 34.98 17.7202 34.94C18.0602 34.83 18.3602 34.75 18.6602 34.75C18.9202 34.75 19.1902 34.72 19.4502 34.64C19.7202 34.57 19.9402 34.45 20.1302 34.34C20.3202 34.23 20.4702 34.19 20.6602 34.19C20.8502 34.19 21.0402 34.16 21.2302 34.08C21.2852 34.06 21.3427 34.0325 21.4002 34.005C21.4577 33.9775 21.5152 33.95 21.5702 33.93L21.5818 33.9233L21.5819 33.9233C21.6531 33.8825 21.7661 33.8178 21.8702 33.78C22.2802 33.59 22.6602 33.4 23.0002 33.21C23.3402 33.02 23.7202 32.79 24.0602 32.53C24.2102 32.42 24.3602 32.31 24.5502 32.23C24.7402 32.2 24.8902 32.08 25.0002 31.97L26.5802 30.39C26.7302 30.24 26.9202 29.98 27.1102 29.64C27.2353 29.4161 27.343 29.1922 27.4563 28.9569C27.515 28.8349 27.5753 28.7098 27.6402 28.58C27.7352 28.39 27.8202 28.2025 27.9052 28.015C27.9902 27.8275 28.0752 27.64 28.1702 27.45C28.3202 27.11 28.4302 26.81 28.5102 26.58C28.6152 26.3317 28.6838 26.0743 28.7594 25.7903L28.7702 25.75L28.7815 25.6657C28.8174 25.399 28.8502 25.1554 28.8502 24.92C28.8502 24.77 28.8502 24.62 28.8102 24.51C28.7702 24.4 28.7302 24.28 28.7302 24.17C28.7302 24.06 28.7302 23.95 28.7702 23.91V23.91C28.7702 23.8 28.7702 23.68 28.8102 23.57C28.8502 23.46 28.8502 23.34 28.8502 23.23C28.8502 22.93 28.7702 22.63 28.6602 22.29C28.5502 21.99 28.3602 21.72 28.1702 21.46C27.9643 21.2167 27.7146 21.0346 27.4703 20.8566L27.4202 20.82C27.1202 20.67 26.8202 20.59 26.4802 20.59C26.0602 20.59 25.6802 20.7 25.4202 20.93C25.1502 21.2 24.9302 21.46 24.7402 21.8C24.5502 22.14 24.4402 22.51 24.3602 22.93C24.2902 23.34 24.2502 23.68 24.2502 24.02C24.2502 24.43 24.3602 24.77 24.5502 25C24.7402 25.26 24.9202 25.45 25.1502 25.64C25.3802 25.83 25.6002 25.98 25.7902 26.09C25.9702 26.24 26.0502 26.43 26.0502 26.69C26.0502 26.84 26.0102 27.03 25.9702 27.22L25.9702 27.22C25.9002 27.44 25.8202 27.63 25.7102 27.82L25.6744 27.8768C25.5678 28.0472 25.4652 28.211 25.3302 28.31C25.1402 28.42 24.9902 28.5 24.8002 28.5C24.6102 28.5 24.4602 28.46 24.3102 28.35C24.1602 28.27 24.0102 28.2 23.8602 28.16C23.1802 27.89 22.6502 27.4 22.2402 26.76C21.8302 26.12 21.5202 25.44 21.4102 24.72C21.3702 24.53 21.3302 24.3 21.3302 24.04V23.32C21.3302 22.98 21.3602 22.65 21.4402 22.23C21.5102 21.81 21.6302 21.47 21.7402 21.17C21.9602 20.64 22.3402 20.15 22.8302 19.66C23.3202 19.21 23.8102 18.83 24.3002 18.49C24.3593 18.4557 24.4146 18.4215 24.4685 18.3881L24.4685 18.3881C24.5875 18.3144 24.6993 18.2451 24.8302 18.19C25.0202 18.15 25.2102 18.08 25.4002 18C25.5202 17.96 25.6702 17.92 25.8202 17.92H26.2702H26.2702C26.4602 17.92 26.6102 17.92 26.7602 17.96C26.9102 18 27.0602 18 27.2502 18C27.3602 18 27.4402 18 27.5202 17.95C27.6302 17.91 27.6702 17.83 27.6702 17.72V17.61C27.6302 17.58 27.6302 17.54 27.6302 17.5C27.6302 17.47 27.6302 17.43 27.5902 17.39V17.13C27.5902 16.79 27.6302 16.41 27.6702 16.07C27.7102 15.73 27.7102 15.39 27.7102 15.05V15.05C27.7102 14.78 27.6802 14.6 27.6002 14.52C27.5202 14.45 27.3302 14.41 27.0302 14.41C26.9202 14.41 26.8002 14.41 26.6902 14.45C26.5802 14.49 26.4602 14.49 26.3502 14.49H26.3501C25.5201 14.49 24.6901 14.49 23.9002 14.45H21.4102C20.8802 14.45 20.3602 14.45 19.7902 14.41C19.2202 14.38 18.6602 14.41 18.1302 14.49C17.9802 14.53 17.8302 14.53 17.7202 14.53C17.5702 14.57 17.4202 14.57 17.2702 14.57H17.2701C17.0802 14.57 16.9302 14.57 16.7802 14.53C16.5902 14.49 16.4402 14.49 16.2502 14.49H16.0202C15.9902 14.53 15.8702 14.53 15.7602 14.53H15.3102C15.1202 14.53 14.9702 14.53 14.8202 14.49H14.5202C14.4002 14.49 14.3302 14.49 14.2902 14.53C14.2202 14.57 14.1402 14.57 14.0302 14.57H14.0302H14.0301C13.7601 14.57 13.5402 14.57 13.3102 14.53C13.0502 14.49 12.8202 14.49 12.5602 14.49H11.9202C11.7002 14.53 11.4702 14.53 11.2802 14.53C11.1702 14.53 10.9402 14.53 10.6802 14.49C10.6439 14.4852 10.6098 14.4799 10.5779 14.474ZM37.6707 50.0887C37.1665 49.5991 36.6564 49.2053 36.1302 48.92C35.9948 48.85 35.8548 48.7853 35.7102 48.7259C35.5331 48.5443 35.3713 48.3568 35.2302 48.19C35.0753 48.0352 34.9595 47.9052 34.8658 47.8C34.8022 47.7285 34.7487 47.6685 34.7002 47.62C34.5902 47.51 34.4702 47.36 34.4002 47.24C34.3705 47.1992 34.3421 47.1528 34.3126 47.1045C34.2627 47.0228 34.2093 46.9354 34.1402 46.86C33.9902 46.71 33.9102 46.6 33.8802 46.52C33.9902 46.48 34.1402 46.48 34.3302 46.48C34.4402 46.48 34.5202 46.48 34.5902 46.52C34.6302 46.56 34.7002 46.56 34.8202 46.56H38.1802C38.7102 46.56 39.2402 46.56 39.7602 46.52C40.2502 46.48 40.7802 46.48 41.3102 46.48C41.4202 46.48 41.5702 46.48 41.7202 46.52C41.8302 46.56 41.9802 46.56 42.1002 46.56H42.2902C42.2654 46.5847 42.1987 46.6362 42.1065 46.7073C42.0495 46.7512 41.9827 46.8027 41.9102 46.86C41.7202 47.05 41.5702 47.12 41.5302 47.12C41.4202 47.23 41.2702 47.38 41.1502 47.53C41.0402 47.68 40.8902 47.79 40.7702 47.87C40.5102 48.02 40.2402 48.21 39.9802 48.44C39.7421 48.6225 39.504 48.7987 39.261 48.9786L39.2607 48.9788L39.0702 49.12L39.0699 49.1202L39.0696 49.1204C38.7698 49.3503 38.47 49.5801 38.2102 49.77C38.016 49.893 37.8343 49.9992 37.6707 50.0887ZM32.1819 48.3138L32.1302 48.32C31.7902 48.36 31.4502 48.44 31.1102 48.55C30.7702 48.66 30.4302 48.78 30.1302 48.89C29.7902 49.04 29.5702 49.19 29.3802 49.38C29.2702 49.49 29.1602 49.61 29.0802 49.72L28.7402 50.06C28.7102 50.14 28.5902 50.21 28.4802 50.25C28.3602 50.28 28.2102 50.4 28.1002 50.51L28.1001 50.5101C27.7601 50.85 27.4601 51.15 27.1202 51.45C26.8873 51.6829 26.6356 51.897 26.3909 52.1052L26.3908 52.1052L26.3908 52.1053C26.2783 52.201 26.1672 52.2955 26.0602 52.39C25.8702 52.54 25.7202 52.69 25.6102 52.88L25.598 52.8953C25.5624 52.5832 25.5302 52.2455 25.5302 51.94C25.5302 51.86 25.5302 51.79 25.5702 51.71C25.6102 51.63 25.6102 51.56 25.6102 51.45C25.6102 51.34 25.6102 51.22 25.5702 51.15C25.5302 51.08 25.5302 50.96 25.5302 50.85C25.5302 50.77 25.5302 50.7 25.5702 50.62C25.6102 50.54 25.6102 50.47 25.6102 50.39C25.6102 50.13 25.6102 49.82 25.5702 49.56C25.5302 49.3 25.5302 48.99 25.5302 48.73V48.73C25.5302 48.62 25.5302 48.5 25.5702 48.39C25.6102 48.28 25.6102 48.16 25.6102 48.05C25.6102 47.86 25.6102 47.71 25.5702 47.52C25.5302 47.37 25.5302 47.22 25.5302 47.03C25.5302 46.84 25.5702 46.69 25.6402 46.62C25.6802 46.54 25.8302 46.51 26.0202 46.51C26.2802 46.51 26.5902 46.51 26.8502 46.55C27.1102 46.59 27.3802 46.59 27.6402 46.59C28.1702 46.59 28.7002 46.59 29.2202 46.55C29.7102 46.51 30.2402 46.51 30.7702 46.51C30.8102 46.51 30.8802 46.51 30.9202 46.55C30.9389 46.5687 30.9489 46.5875 30.9583 46.6052C30.969 46.6253 30.9789 46.6441 31.0002 46.66C31.083 46.7684 31.171 46.8768 31.2608 46.9874L31.2609 46.9875L31.2609 46.9875C31.4528 47.224 31.6531 47.4707 31.8302 47.75C31.8847 47.8382 31.9397 47.9259 31.9944 48.013L31.9945 48.0131L31.9946 48.0133C32.058 48.1144 32.1209 48.2147 32.1819 48.3138ZM28.3102 32.82C28.1602 33.01 27.9702 33.23 27.7802 33.42L27.7394 33.4535L27.7394 33.4535L27.7393 33.4536C27.5756 33.5884 27.3714 33.7564 27.1502 33.95C27.2402 33.95 27.3102 33.94 27.4102 33.91C27.4802 33.87 27.5602 33.87 27.6702 33.87H31.4402C31.4402 33.83 31.4402 33.76 31.4002 33.68C31.3602 33.64 31.3602 33.57 31.3602 33.53C31.3602 33.34 31.4002 33.15 31.4402 32.96C31.4802 32.81 31.4802 32.62 31.4802 32.43V32.43V31.49C31.4402 31.18 31.4402 30.88 31.4402 30.58V30.58C31.4402 30.39 31.5902 30.32 31.9302 30.28C32.2302 30.24 32.4202 30.24 32.5302 30.24C33.3202 30.24 33.8102 30.43 33.9602 30.84C34.1102 31.26 34.1902 31.82 34.1902 32.5V33.51C34.1902 33.66 34.2302 33.73 34.2702 33.77C34.3102 33.81 34.3902 33.85 34.5002 33.85C34.5402 33.81 34.6101 33.81 34.6902 33.81H34.6902C34.9502 33.81 35.2602 33.81 35.5202 33.85C35.7802 33.89 36.0902 33.93 36.3502 33.93C36.4602 33.93 36.5402 33.93 36.6102 33.89C36.6802 33.85 36.7602 33.85 36.8702 33.85C37.0202 33.85 37.1702 33.85 37.3202 33.89C37.4702 33.93 37.6202 33.93 37.7702 33.93C37.8902 33.93 38.0402 33.89 38.1502 33.85C38.2701 33.81 38.4201 33.81 38.5302 33.81H38.5303C38.9102 33.81 39.2802 33.81 39.6602 33.85C40.0402 33.89 40.4102 33.89 40.7902 33.89H40.9802C41.0202 33.93 41.0902 33.93 41.1302 33.89C41.0929 33.7876 40.9604 33.7112 40.789 33.6124L40.789 33.6124L40.7502 33.59C40.6752 33.5542 40.6045 33.5226 40.5395 33.4935L40.5394 33.4934L40.5393 33.4934C40.4048 33.4333 40.2943 33.3839 40.2202 33.33C40.173 33.2867 40.1211 33.2419 40.0689 33.1968L40.0689 33.1968L40.0689 33.1968L40.0688 33.1967C39.9883 33.1271 39.9069 33.0567 39.8402 32.99C39.7841 32.9386 39.7214 32.8937 39.6593 32.8493L39.6593 32.8492C39.5886 32.7986 39.5187 32.7486 39.4602 32.69C39.3852 32.635 39.3102 32.5775 39.2352 32.52C39.1602 32.4625 39.0852 32.405 39.0102 32.35C38.9352 32.295 38.8602 32.2475 38.7852 32.2L38.7852 32.2C38.7102 32.1525 38.6352 32.105 38.5602 32.05C37.9202 31.56 37.3202 31.07 36.7502 30.5C36.4544 30.199 36.1475 29.9119 35.8398 29.624L35.8396 29.6239L35.8395 29.6238C35.5646 29.3666 35.289 29.1089 35.0202 28.84C34.9102 28.77 34.7602 28.61 34.5302 28.35C34.4152 28.22 34.3027 28.0875 34.1902 27.955C34.0777 27.8225 33.9652 27.69 33.8502 27.56L33.8501 27.56C33.5801 27.29 33.3601 27.07 33.1702 26.84C33.1418 26.8187 33.116 26.8 33.0918 26.7824C33.0477 26.7504 33.0089 26.7223 32.9702 26.69C32.5002 26.51 32.0102 26.45 31.5102 26.46C31.5052 26.485 31.5002 26.5075 31.4952 26.53C31.4902 26.5525 31.4852 26.575 31.4802 26.6C31.3602 27.09 31.2102 27.58 31.0602 28.07C30.9102 28.6 30.7602 29.09 30.5702 29.54C30.3802 29.99 30.1902 30.37 30.0402 30.63C29.9702 30.74 29.8902 30.86 29.7802 30.97C29.7369 31.0172 29.6921 31.069 29.647 31.1212L29.647 31.1212L29.6469 31.1212L29.6469 31.1213L29.6469 31.1213C29.5773 31.2018 29.5069 31.2833 29.4402 31.35L29.4232 31.3722L29.4231 31.3723C29.1701 31.7031 28.9469 31.995 28.8002 32.22C28.6102 32.44 28.4602 32.63 28.3102 32.82ZM25.5402 36.8V37.06C25.5648 37.0929 25.5692 37.1732 25.5756 37.2897V37.2898C25.5769 37.3149 25.5784 37.3416 25.5802 37.37C25.5802 37.48 25.5802 37.55 25.5402 37.63C25.5002 37.74 25.5002 37.82 25.5002 37.93C25.5002 38 25.5002 38.08 25.5402 38.12V38.35C25.5402 38.62 25.5402 38.77 25.5802 38.88C25.5802 38.99 25.7402 39.03 26.0002 39.03C26.2602 39.03 26.5702 38.99 26.8302 38.95C27.0902 38.91 27.4002 38.91 27.6602 38.91C28.1502 38.91 28.6002 38.91 29.0902 38.95L29.1932 38.9584C29.6438 38.9954 30.0647 39.03 30.5202 39.03C30.6002 39.03 30.6802 39.03 30.7502 38.99C30.8202 38.95 30.9002 38.95 31.0102 38.95C31.1202 38.95 31.2402 38.95 31.3502 38.99C31.4202 39.03 31.5401 39.03 31.6501 39.03H31.6502C31.9102 39.03 32.2202 38.99 32.4802 38.95C32.7402 38.91 33.0502 38.91 33.3102 38.91C33.9502 38.91 34.6302 38.91 35.2702 38.95C35.9102 38.99 36.5902 38.99 37.2302 38.99C37.6402 38.99 38.1002 38.99 38.5502 38.95C39.0002 38.91 39.4602 38.91 39.8702 38.91C39.8872 38.91 39.8969 38.91 39.9056 38.9069C39.9174 38.9028 39.9272 38.893 39.9502 38.87H39.9902C40.0302 38.76 40.0302 38.61 40.0302 38.42V38.42V38.4199C40.0302 38.23 40.0302 38.04 39.9902 37.85C39.9502 37.66 39.9102 37.47 39.9102 37.28C39.9102 37.17 39.9102 37.05 39.9502 36.94V36.68C39.9502 36.53 39.8302 36.42 39.5702 36.34C39.3944 36.3197 39.2141 36.2949 39.023 36.2685C38.9314 36.2559 38.8374 36.243 38.7402 36.23C38.4002 36.19 38.1002 36.19 37.8002 36.19H37.2302C36.9702 36.19 36.6602 36.19 36.4002 36.23C36.1402 36.27 35.8302 36.27 35.5702 36.27C35.3102 36.27 35.0002 36.27 34.7402 36.23C34.4802 36.19 34.1702 36.19 33.9102 36.19C33.8002 36.19 33.6902 36.19 33.6102 36.23C33.5402 36.27 33.4202 36.27 33.3102 36.27H29.8402C29.6502 36.27 29.5002 36.27 29.3502 36.23C29.2002 36.19 29.0502 36.19 28.9002 36.19C28.7902 36.19 28.6702 36.19 28.5602 36.23C28.4402 36.27 28.2902 36.27 28.1802 36.27H26.5602H26.4102H26.0302C25.9752 36.29 25.9177 36.3 25.8602 36.31L25.8602 36.31L25.8601 36.31C25.8026 36.32 25.7451 36.33 25.6902 36.35C25.5802 36.38 25.5402 36.42 25.5402 36.46C25.5172 36.483 25.5074 36.4928 25.5032 36.5045C25.5002 36.5132 25.5002 36.523 25.5002 36.54C25.5002 36.65 25.5002 36.72 25.5402 36.8ZM32.7302 44.07C32.9202 44.07 33.1102 44.07 33.3002 44.11C33.4902 44.15 33.6802 44.19 33.8402 44.18C34.0702 44.18 34.2902 44.18 34.5202 44.14C34.7102 44.1 34.9302 44.1 35.1602 44.1C35.3102 44.1 35.4602 44.1 35.6102 44.14C35.7602 44.18 35.9102 44.22 36.0602 44.22C36.2502 44.22 36.4002 44.22 36.5902 44.18H37.0802C37.3802 44.18 37.7202 44.18 38.0602 44.14C38.4002 44.14 38.7002 44.1 39.0002 43.99C39.2602 43.92 39.4902 43.77 39.6802 43.54C39.8602 43.35 39.9402 43.01 39.9402 42.6C39.9402 42.11 39.9002 41.74 39.7902 41.51C39.6802 41.32 39.3402 41.21 38.7702 41.21C38.6502 41.21 38.5802 41.21 38.5402 41.25H38.4602C38.4302 41.29 38.3902 41.29 38.3502 41.29C38.1602 41.29 37.9402 41.25 37.7502 41.21C37.5702 41.17 37.3402 41.17 37.1502 41.17C36.9602 41.17 36.7702 41.17 36.6202 41.21C36.4302 41.25 36.2402 41.29 36.0502 41.29C35.4902 41.29 34.8902 41.29 34.3202 41.25C33.7602 41.21 33.1602 41.21 32.5902 41.21H32.3602C32.2502 41.25 32.1802 41.25 32.1002 41.25H31.8402C31.8133 41.2232 31.7055 41.2143 31.5228 41.1994L31.5227 41.1993C31.433 41.192 31.3253 41.1832 31.2002 41.17H31.2C30.7901 41.17 30.3701 41.17 29.8802 41.13H27.6502H27.6501C27.5401 41.13 27.4701 41.13 27.3902 41.17C27.3202 41.21 27.2402 41.25 27.1302 41.25C26.5702 41.25 26.1502 41.29 25.8902 41.4C25.6302 41.51 25.4802 41.89 25.4802 42.57C25.4802 42.76 25.4802 42.98 25.5202 43.17V43.77C25.5202 43.7909 25.5311 43.8118 25.5472 43.8427C25.5619 43.8709 25.5811 43.9075 25.6002 43.96C25.6302 44.07 25.6702 44.15 25.7102 44.11H25.8202C25.9402 44.11 26.0902 44.11 26.2002 44.15C26.3201 44.19 26.4701 44.19 26.5801 44.19H26.5802H28.3102C28.4116 44.19 28.4791 44.1559 28.5518 44.1193L28.5702 44.11C28.6502 44.07 28.7202 44.07 28.8002 44.07H31.0302C31.1402 44.07 31.2202 44.07 31.3302 44.11C31.4002 44.15 31.5202 44.19 31.6302 44.19C31.8202 44.19 32.0102 44.15 32.2002 44.11C32.3502 44.07 32.5402 44.07 32.7302 44.07ZM46.9202 57.35C47.0302 57.35 47.1502 57.32 47.2602 57.24C47.3802 57.16 47.4202 57.05 47.4002 56.91C47.4002 56.57 47.3602 56.31 47.3202 56.12C47.2802 55.93 47.2402 55.71 47.2402 55.48C47.2402 55.14 47.2802 54.8 47.3202 54.46C47.3602 54.16 47.4002 53.82 47.4002 53.48C47.4002 53.22 47.3602 52.95 47.3202 52.69C47.2502 52.43 47.2102 52.16 47.2102 51.9C47.2102 51.79 47.2102 51.75 47.2502 51.71C47.2502 51.67 47.2502 51.6 47.2902 51.52C47.3302 51.44 47.3302 51.37 47.3302 51.33C47.3302 51.22 47.3002 51.18 47.2202 51.14H46.9902C46.9102 51.18 46.8002 51.22 46.6102 51.18H46.2302C46.2054 51.1553 46.154 51.1458 46.0829 51.1328L46.0827 51.1328C46.0388 51.1247 45.9874 51.1153 45.9302 51.1H45.5902C45.4002 51.1 45.2902 51.17 45.2502 51.36C45.2447 51.386 45.2392 51.4114 45.2338 51.436L45.2288 51.4587C45.1971 51.6038 45.1702 51.7269 45.1702 51.85C45.1702 51.93 45.1702 52 45.2102 52.04V52.27C45.2502 52.31 45.2502 52.38 45.2502 52.46V53.59C45.2502 53.93 45.2102 54.31 45.1702 54.65C45.1302 55.02 45.0902 55.4 45.0902 55.74C45.0902 55.85 45.0902 55.96 45.1302 56C45.1302 56.04 45.1302 56.15 45.1702 56.3C45.1702 56.45 45.1702 56.6 45.2102 56.75C45.2102 56.94 45.2502 57.09 45.2902 57.2C45.3302 57.35 45.3602 57.43 45.4402 57.43C45.5502 57.43 45.6702 57.43 45.7802 57.39C45.8902 57.35 46.0002 57.35 46.1202 57.35H46.5002C46.6602 57.39 46.8102 57.39 46.9202 57.35ZM49.8302 57.39C49.8602 57.43 49.9002 57.43 49.9402 57.43C49.9802 57.43 50.0202 57.43 50.0602 57.42H50.7802C50.8202 57.42 50.9302 57.42 51.0802 57.38C51.2001 57.35 51.35 57.31 51.4999 57.27L51.5002 57.27C51.6202 57.24 51.7702 57.2 51.8802 57.16C51.9902 57.12 52.0302 57.05 52.0302 56.97V56.63V55.99C51.9902 55.77 51.9902 55.54 51.9902 55.35V55.35V55.3499C51.9902 55.2 51.9902 55.05 52.0302 54.9C52.0702 54.79 52.0702 54.64 52.0702 54.49C52.0702 54.38 52.0702 54.26 52.0302 54.15C51.9902 54.08 51.9502 53.97 51.9502 53.85C51.9502 53.73 51.9502 53.58 51.9902 53.43V53.05C51.9902 52.78 51.9902 52.56 51.9502 52.33C51.9102 52.1 51.8702 51.87 51.8702 51.61C51.8702 51.5 51.8702 51.38 51.9102 51.27C51.9502 51.2 51.8402 51.16 51.6502 51.16H50.5902C50.4002 51.16 50.2102 51.2 50.0602 51.24C49.9102 51.32 49.8302 51.47 49.8302 51.73V53.24C49.8302 53.43 49.7902 53.62 49.7502 53.81C49.7102 54 49.6702 54.22 49.6702 54.41C49.6702 54.72 49.7102 55.02 49.7502 55.32C49.7902 55.62 49.8302 55.92 49.8302 56.22C49.8302 56.34 49.8302 56.49 49.7902 56.64C49.7502 56.79 49.7502 56.94 49.7502 57.05V57.13V57.28C49.7502 57.35 49.7902 57.39 49.8302 57.39ZM58.28 29.89C58.17 29.89 58.09 29.89 58.05 29.85C57.79 29.85 57.6 29.81 57.56 29.7C57.48 29.59 57.45 29.4 57.45 29.13C57.49 29.09 57.49 29.05 57.49 28.98C57.4954 28.9652 57.5008 28.951 57.5061 28.9373C57.5104 28.926 57.5146 28.915 57.5188 28.9044C57.5472 28.8315 57.57 28.7729 57.57 28.72C57.59 28.7 57.6 28.6725 57.61 28.645C57.62 28.6175 57.63 28.59 57.65 28.57C57.65 28.53 57.65 28.49 57.69 28.46C57.69 28.38 57.69 28.31 57.73 28.27C57.71 28.1001 57.6825 27.9402 57.6551 27.7802L57.655 27.78C57.6275 27.62 57.6 27.46 57.58 27.29C57.54 26.99 57.5 26.69 57.5 26.35C57.5 26.12 57.5 25.9 57.54 25.67C57.58 25.48 57.58 25.25 57.58 25.03V24.58C57.54 24.47 57.54 24.32 57.54 24.2C57.54 23.94 57.62 23.78 57.8 23.75C57.99 23.71 58.18 23.71 58.37 23.71H58.67C59.16 23.71 59.46 23.82 59.58 24.09C59.66 24.35 59.69 24.73 59.69 25.15V26.66L59.58 26.81C59.62 27 59.66 27.22 59.66 27.41V28.05V29.26C59.66 29.3 59.66 29.41 59.62 29.52C59.58 29.67 59.51 29.75 59.47 29.78C59.43 29.82 59.39 29.86 59.32 29.86C59.24 29.9 59.17 29.9 59.13 29.9H58.28V29.89ZM63.33 29.97C63.22 29.97 63.1 29.97 62.99 30.01C62.88 30.05 62.76 30.05 62.65 30.05C62.42 30.05 62.31 29.97 62.27 29.86C62.23 29.75 62.23 29.6 62.23 29.41C62.23 29.07 62.23 28.77 62.27 28.43V27.49C62.27 27.3 62.27 27.08 62.31 26.89C62.35 26.7 62.35 26.4701 62.35 26.2901V26.29V26.29C62.35 26.06 62.35 25.84 62.31 25.65C62.27 25.46 62.23 25.24 62.23 25.01C62.23 24.93 62.23 24.82 62.27 24.71C62.27 24.6 62.27 24.45 62.31 24.33C62.35 24.22 62.39 24.1 62.42 23.99C62.46 23.88 62.53 23.84 62.65 23.84H62.84C62.88 23.88 62.95 23.88 62.99 23.88C63.03 23.92 63.1 23.92 63.18 23.92H63.56C63.6 23.92 63.67 23.92 63.75 23.88H63.9C64.05 23.88 64.16 23.99 64.28 24.22C64.36 24.45 64.43 24.71 64.47 25.01C64.51 25.31 64.51 25.61 64.51 25.88V26.52V27.73C64.51 27.8712 64.4746 27.9769 64.4371 28.0889L64.43 28.11C64.35 28.22 64.32 28.37 64.32 28.52C64.32 28.71 64.36 28.86 64.4 29.01L64.4001 29.0102C64.44 29.1601 64.48 29.3101 64.48 29.5V29.88C64.48 29.96 64.37 29.99 64.18 29.99H63.33V29.97Z" fill="#C30D23"/>
</g>
<defs>
<clipPath id="clip0_98_465">
<rect width="71" height="70" fill="white"/>
</clipPath>
</defs>
</svg>
